SplineFontDB: 3.0
FontName: Euri
FullName: Euri
FamilyName: Euri
Weight: Regular

StartChar: exclam
Encoding: 33 33 4
Width: 253
GlyphClass: 2
Flags: W
LayerCount: 2
Fore
SplineSet
96 617 m 1,0,-1
 86 627 l 1,1,-1
 96 617 l 1,0,-1
110 229 m 1,2,3
 100 282 100 282 100 334 c 2,4,-1
 100 371 l 1,5,6
 80 426 80 426 80 471 c 2,7,-1
 80 482 l 2,8,9
 80 493 80 493 77.5 513.5 c 128,-1,10
 75 534 75 534 75 544 c 2,11,-1
 75 561 l 2,12,13
 75 576 75 576 80 593 c 1,14,-1
 89 602 l 2,15,16
 108 621 108 621 122 602.5 c 128,-1,17
 136 584 136 584 136 557 c 2,18,-1
 136 544 l 2,19,20
 136 539 136 539 135 529 c 128,-1,21
 134 519 134 519 134 515 c 2,22,-1
 134 504 l 2,23,24
 134 481 134 481 147 411 c 2,25,-1
 155 355 l 2,26,27
 157 341 157 341 157 328 c 0,28,29
 157 250 157 250 116 234 c 1,30,-1
 110 229 l 1,2,3
141 451 m 1,31,-1
 130 461 l 1,32,-1
 141 451 l 1,31,-1
90 441 m 1,33,-1
 80 451 l 1,34,-1
 90 441 l 1,33,-1
151 390 m 1,35,-1
 141 401 l 1,36,-1
 151 390 l 1,35,-1
100 380 m 1,37,-1
 90 390 l 1,38,-1
 100 380 l 1,37,-1
110 239 m 1,39,-1
 100 250 l 1,40,-1
 110 239 l 1,39,-1
151 229 m 1,41,-1
 141 239 l 1,42,-1
 151 229 l 1,41,-1
120 109 m 1,43,-1
 110 119 l 1,44,-1
 120 109 l 1,43,-1
121 110 m 1,45,46
 154 128 154 128 176.5 108 c 128,-1,47
 199 88 199 88 197.5 52.5 c 128,-1,48
 196 17 196 17 171 -2 c 1,49,50
 132 -22 132 -22 106 3 c 128,-1,51
 80 28 80 28 91 73 c 0,52,53
 97 97 97 97 120 109 c 1,54,-1
 121 110 l 1,45,46
182 110 m 1,55,-1
 172 120 l 1,56,-1
 182 110 l 1,55,-1
111 100 m 1,57,-1
 101 110 l 1,58,-1
 111 100 l 1,57,-1
192 100 m 1,59,-1
 182 110 l 1,60,-1
 192 100 l 1,59,-1
202 89 m 1,61,-1
 192 100 l 1,62,-1
 202 89 l 1,61,-1
101 69 m 1,63,-1
 91 79 l 1,64,-1
 101 69 l 1,63,-1
202 19 m 1,65,-1
 192 29 l 1,66,-1
 202 19 l 1,65,-1
202 9 m 1,67,-1
 192 19 l 1,68,-1
 202 9 l 1,67,-1
101 -1 m 1,69,-1
 91 9 l 1,70,-1
 101 -1 l 1,69,-1
182 -1 m 1,71,-1
 172 9 l 1,72,-1
 182 -1 l 1,71,-1
192 -1 m 1,73,-1
 182 9 l 1,74,-1
 192 -1 l 1,73,-1
162 -1 m 1,75,-1
 172 -11 l 1,76,-1
 162 -1 l 1,75,-1
EndSplineSet
EndChar

StartChar: quotedbl
Encoding: 34 34 5
Width: 408
GlyphClass: 2
Flags: W
LayerCount: 2
Fore
SplineSet
97 657 m 1,0,-1
 81 673 l 1,1,-1
 97 657 l 1,0,-1
120 660 m 1,2,3
 138 656 138 656 150 641.5 c 128,-1,4
 162 627 162 627 162 607 c 0,5,6
 162 593 162 593 162.5 558 c 128,-1,7
 163 523 163 523 163 502.5 c 128,-1,8
 163 482 163 482 161 454 c 128,-1,9
 159 426 159 426 155 406 c 0,10,11
 150 383 150 383 138.5 368 c 128,-1,12
 127 353 127 353 108 357 c 0,13,14
 90 361 90 361 77 386 c 2,15,-1
 71 398 l 2,16,17
 56 429 56 429 53.5 484.5 c 128,-1,18
 51 540 51 540 63 590.5 c 128,-1,19
 75 641 75 641 97 657 c 1,20,-1
 120 660 l 1,2,3
294 657 m 1,21,-1
 278 673 l 1,22,-1
 294 657 l 1,21,-1
295 329 m 1,23,24
 284 362 284 362 281.5 387 c 128,-1,25
 279 412 279 412 279 461 c 2,26,-1
 279 543 l 2,27,28
 279 564 279 564 294 624 c 0,29,30
 304 659 304 659 323 659 c 0,31,32
 332 659 332 659 344 643 c 0,33,34
 360 627 360 627 360 572 c 2,35,-1
 360 544 l 2,36,37
 360 534 360 534 360.5 508 c 128,-1,38
 361 482 361 482 360.5 472 c 128,-1,39
 360 462 360 462 359 440.5 c 128,-1,40
 358 419 358 419 355.5 409 c 128,-1,41
 353 399 353 399 348 383 c 128,-1,42
 343 367 343 367 336 358.5 c 128,-1,43
 329 350 329 350 318.5 341 c 128,-1,44
 308 332 308 332 294 327 c 1,45,-1
 295 329 l 1,23,24
81 609 m 1,46,-1
 65 626 l 1,47,-1
 81 609 l 1,46,-1
81 378 m 1,48,-1
 65 395 l 1,49,-1
 81 378 l 1,48,-1
164 345 m 1,50,-1
 147 362 l 1,51,-1
 164 345 l 1,50,-1
279 362 m 1,52,-1
 295 345 l 1,53,-1
 279 362 l 1,52,-1
344 345 m 1,54,-1
 361 329 l 1,55,-1
 344 345 l 1,54,-1
EndSplineSet
EndChar

StartChar: numbersign
Encoding: 35 35 6
Width: 640
GlyphClass: 2
Flags: W
LayerCount: 2
Fore
SplineSet
212 590 m 1,0,1
 226 581 226 581 243 575 c 1,2,3
 238 577 238 577 231.5 579 c 128,-1,4
 225 581 225 581 220.5 583 c 128,-1,5
 216 585 216 585 212 590 c 1,0,1
200 581 m 1,6,-1
 210 572 l 1,7,-1
 200 581 l 1,6,-1
206 545 m 1,8,9
 206 555 206 555 214 565 c 128,-1,10
 222 575 222 575 231 575 c 0,11,12
 241 575 241 575 247 564 c 128,-1,13
 253 553 253 553 253 538 c 0,14,15
 253 516 253 516 244.5 478 c 128,-1,16
 236 440 236 440 236 420 c 1,17,-1
 251 420 l 2,18,19
 256 420 256 420 266 419 c 128,-1,20
 276 418 276 418 281 418 c 2,21,-1
 296 418 l 2,22,23
 355 418 355 418 372 474 c 0,24,25
 377 491 377 491 379 499 c 128,-1,26
 381 507 381 507 388 521 c 128,-1,27
 395 535 395 535 402 541 c 128,-1,28
 409 547 409 547 421 551.5 c 128,-1,29
 433 556 433 556 449 554 c 1,30,-1
 411 419 l 1,31,32
 422 419 422 419 455.5 420 c 128,-1,33
 489 421 489 421 504 420 c 128,-1,34
 519 419 519 419 543 416 c 128,-1,35
 567 413 567 413 581 404 c 128,-1,36
 595 395 595 395 604 380 c 1,37,38
 581 374 581 374 554 371 c 128,-1,39
 527 368 527 368 507.5 368 c 128,-1,40
 488 368 488 368 453 369 c 128,-1,41
 418 370 418 370 400 370 c 1,42,-1
 390 302 l 1,43,44
 401 302 401 302 435.5 303 c 128,-1,45
 470 304 470 304 484 303 c 128,-1,46
 498 302 498 302 521.5 299 c 128,-1,47
 545 296 545 296 559.5 287 c 128,-1,48
 574 278 574 278 584 263 c 1,49,50
 547 250 547 250 485 250 c 0,51,52
 468 250 468 250 436.5 252 c 128,-1,53
 405 254 405 254 389 254 c 1,54,-1
 389 80 l 2,55,56
 389 61 389 61 379 48.5 c 128,-1,57
 369 36 369 36 351 43 c 1,58,59
 338 43 338 43 338 60 c 0,60,61
 338 66 338 66 340 76 c 128,-1,62
 342 86 342 86 342 92 c 2,63,-1
 342 257 l 1,64,-1
 226 257 l 1,65,-1
 226 235 l 2,66,67
 226 227 226 227 227 211 c 128,-1,68
 228 195 228 195 228 187 c 2,69,-1
 228 161 l 2,70,71
 228 99 228 99 215 62 c 1,72,73
 202 68 202 68 193 80.5 c 128,-1,74
 184 93 184 93 180 107 c 128,-1,75
 176 121 176 121 174.5 142 c 128,-1,76
 173 163 173 163 173.5 179 c 128,-1,77
 174 195 174 195 175 219.5 c 128,-1,78
 176 244 176 244 176 257 c 1,79,-1
 165 257 l 2,80,81
 159 257 159 257 144.5 256 c 128,-1,82
 130 255 130 255 124 255 c 2,83,-1
 100 255 l 2,84,85
 40 255 40 255 40 275 c 0,86,87
 40 286 40 286 49 293 c 128,-1,88
 58 300 58 300 75.5 302 c 128,-1,89
 93 304 93 304 106.5 304.5 c 128,-1,90
 120 305 120 305 142 304 c 128,-1,91
 164 303 164 303 169 303 c 2,92,-1
 183 303 l 1,93,-1
 183 381 l 1,94,95
 175 381 175 381 145 378 c 128,-1,96
 115 375 115 375 103 375 c 0,97,98
 38 375 38 375 38 398 c 0,99,100
 38 409 38 409 47 416 c 128,-1,101
 56 423 56 423 73.5 425 c 128,-1,102
 91 427 91 427 104.5 427.5 c 128,-1,103
 118 428 118 428 140 427 c 128,-1,104
 162 426 162 426 167 426 c 2,105,-1
 181 426 l 1,106,-1
 186 427 l 1,107,108
 186 502 186 502 206 545 c 1,8,9
409 573 m 1,109,110
 426 573 426 573 437 563 c 1,111,112
 434 563 434 563 430 563 c 0,113,114
 418 563 418 563 414 568 c 0,115,116
 411 571 411 571 409 573 c 1,109,110
397 563 m 1,117,-1
 407 553 l 1,118,-1
 397 563 l 1,117,-1
436 563 m 1,119,-1
 445 553 l 1,120,-1
 436 563 l 1,119,-1
194 544 m 1,121,-1
 203 534 l 1,122,-1
 194 544 l 1,121,-1
387 544 m 1,123,-1
 397 534 l 1,124,-1
 387 544 l 1,123,-1
252 524 m 1,125,-1
 242 534 l 1,126,-1
 252 524 l 1,125,-1
436 534 m 1,127,-1
 445 524 l 1,128,-1
 436 534 l 1,127,-1
184 524 m 1,129,-1
 194 515 l 1,130,-1
 184 524 l 1,129,-1
242 524 m 1,131,-1
 252 515 l 1,132,-1
 242 524 l 1,131,-1
378 524 m 1,133,-1
 387 515 l 1,134,-1
 378 524 l 1,133,-1
436 524 m 1,135,-1
 445 515 l 1,136,-1
 436 524 l 1,135,-1
232 515 m 1,137,-1
 242 505 l 1,138,-1
 232 515 l 1,137,-1
426 515 m 1,139,-1
 436 505 l 1,140,-1
 426 515 l 1,139,-1
232 505 m 1,141,-1
 242 495 l 1,142,-1
 232 505 l 1,141,-1
426 505 m 1,143,-1
 436 495 l 1,144,-1
 426 505 l 1,143,-1
368 476 m 1,145,-1
 378 466 l 1,146,-1
 368 476 l 1,145,-1
416 466 m 1,147,-1
 426 456 l 1,148,-1
 416 466 l 1,147,-1
416 456 m 1,149,-1
 426 447 l 1,150,-1
 416 456 l 1,149,-1
368 437 m 1,151,-1
 358 447 l 1,152,-1
 368 437 l 1,151,-1
407 437 m 1,153,-1
 416 427 l 1,154,-1
 407 437 l 1,153,-1
39 427 m 1,155,-1
 48 418 l 1,156,-1
 39 427 l 1,155,-1
416 418 m 1,157,-1
 407 427 l 1,158,-1
 416 418 l 1,157,-1
29 418 m 1,159,-1
 39 408 l 1,160,-1
 29 418 l 1,159,-1
581 418 m 1,161,-1
 591 408 l 1,162,-1
 581 418 l 1,161,-1
591 408 m 1,163,-1
 600 398 l 1,164,-1
 591 408 l 1,163,-1
29 398 m 1,165,-1
 39 389 l 1,166,-1
 29 398 l 1,165,-1
591 379 m 1,167,-1
 600 369 l 1,168,-1
 591 379 l 1,167,-1
232 301 m 1,169,-1
 339 301 l 1,170,-1
 349 369 l 1,171,-1
 232 369 l 1,172,-1
 232 301 l 1,169,-1
339 340 m 1,173,-1
 349 331 l 1,174,-1
 339 340 l 1,173,-1
387 331 m 1,175,-1
 397 321 l 1,176,-1
 387 331 l 1,175,-1
387 321 m 1,177,-1
 397 311 l 1,178,-1
 387 321 l 1,177,-1
39 301 m 1,179,-1
 48 292 l 1,180,-1
 39 301 l 1,179,-1
562 301 m 1,181,-1
 571 292 l 1,182,-1
 562 301 l 1,181,-1
29 292 m 1,183,-1
 39 282 l 1,184,-1
 29 292 l 1,183,-1
571 292 m 1,185,-1
 581 282 l 1,186,-1
 571 292 l 1,185,-1
29 272 m 1,187,-1
 39 263 l 1,188,-1
 29 272 l 1,187,-1
571 263 m 1,189,-1
 581 253 l 1,190,-1
 571 263 l 1,189,-1
223 108 m 1,191,-1
 232 98 l 1,192,-1
 223 108 l 1,191,-1
223 88 m 1,193,-1
 232 79 l 1,194,-1
 223 88 l 1,193,-1
174 79 m 1,195,-1
 184 69 l 1,196,-1
 174 79 l 1,195,-1
223 79 m 1,197,-1
 232 69 l 1,198,-1
 223 79 l 1,197,-1
184 69 m 1,199,-1
 194 59 l 1,200,-1
 184 69 l 1,199,-1
213 69 m 1,201,-1
 223 59 l 1,202,-1
 213 69 l 1,201,-1
329 69 m 1,203,-1
 339 59 l 1,204,-1
 329 69 l 1,203,-1
329 50 m 1,205,-1
 339 40 l 1,206,-1
 329 50 l 1,205,-1
378 40 m 1,207,-1
 387 30 l 1,208,-1
 378 40 l 1,207,-1
EndSplineSet
EndChar

StartChar: dollar
Encoding: 36 36 7
Width: 422
GlyphClass: 2
Flags: W
LayerCount: 2
Fore
SplineSet
207 659 m 1,0,-1
 196 670 l 1,1,-1
 207 659 l 1,0,-1
217 659 m 1,2,-1
 207 670 l 1,3,-1
 217 659 l 1,2,-1
229 659 m 1,4,-1
 217 670 l 1,5,-1
 229 659 l 1,4,-1
196 648 m 1,6,-1
 186 659 l 1,7,-1
 196 648 l 1,6,-1
112 17 m 2,8,9
 25 17 25 17 30 85 c 0,10,11
 32 103 32 103 44 115 c 128,-1,12
 56 127 56 127 70 113 c 0,13,14
 78 103 78 103 84 79 c 1,15,-1
 173 79 l 1,16,-1
 165 70 l 1,17,18
 165 92 165 92 167 114 c 2,19,-1
 170 159 l 2,20,21
 171 170 171 170 171 182 c 2,22,-1
 171 204 l 2,23,24
 171 225 171 225 166 248 c 0,25,26
 160 266 160 266 143.5 281 c 128,-1,27
 127 296 127 296 111 304.5 c 128,-1,28
 95 313 95 313 78.5 327.5 c 128,-1,29
 62 342 62 342 56 360 c 0,30,31
 44 384 44 384 43.5 409.5 c 128,-1,32
 43 435 43 435 52.5 457.5 c 128,-1,33
 62 480 62 480 74.5 497.5 c 128,-1,34
 87 515 87 515 102 530 c 2,35,-1
 146 574 l 2,36,37
 151 580 151 580 161.5 597 c 128,-1,38
 172 614 172 614 179.5 623.5 c 128,-1,39
 187 633 187 633 202 639.5 c 128,-1,40
 217 646 217 646 237 641 c 1,41,-1
 226 586 l 1,42,43
 235 584 235 584 245.5 579 c 128,-1,44
 256 574 256 574 264.5 567 c 128,-1,45
 273 560 273 560 273.5 551.5 c 128,-1,46
 274 543 274 543 263 535 c 0,47,48
 253 528 253 528 227 528 c 1,49,-1
 227 316 l 1,50,51
 276 309 276 309 320.5 275 c 128,-1,52
 365 241 365 241 381 194 c 128,-1,53
 397 147 397 147 361 95 c 0,54,55
 349 76 349 76 306.5 63 c 128,-1,56
 264 50 264 50 252 41 c 0,57,58
 243 33 243 33 226 -4.5 c 128,-1,59
 209 -42 209 -42 186 -48 c 1,60,-1
 173 19 l 1,61,-1
 160 19 l 2,62,63
 155 19 155 19 144.5 18 c 128,-1,64
 134 17 134 17 128 17 c 2,65,-1
 112 17 l 2,8,9
232 639 m 1,66,-1
 221 650 l 1,67,-1
 232 639 l 1,66,-1
178 628 m 1,68,-1
 165 639 l 1,69,-1
 178 628 l 1,68,-1
232 615 m 1,70,-1
 221 628 l 1,71,-1
 232 615 l 1,70,-1
232 605 m 1,72,-1
 221 615 l 1,73,-1
 232 605 l 1,72,-1
154 572 m 1,74,-1
 143 584 l 1,75,-1
 154 572 l 1,74,-1
266 572 m 1,76,-1
 255 584 l 1,77,-1
 266 572 l 1,76,-1
132 561 m 1,78,-1
 121 572 l 1,79,-1
 132 561 l 1,78,-1
121 548 m 1,80,-1
 110 561 l 1,81,-1
 121 548 l 1,80,-1
288 548 m 1,82,-1
 277 561 l 1,83,-1
 288 548 l 1,82,-1
110 538 m 1,84,-1
 99 548 l 1,85,-1
 110 538 l 1,84,-1
99 527 m 1,86,-1
 87 538 l 1,87,-1
 99 527 l 1,86,-1
288 527 m 1,88,-1
 277 538 l 1,89,-1
 288 527 l 1,88,-1
87 516 m 1,90,-1
 76 527 l 1,91,-1
 87 516 l 1,90,-1
154 527 m 1,92,-1
 165 516 l 1,93,-1
 154 527 l 1,92,-1
244 516 m 1,94,-1
 232 527 l 1,95,-1
 244 516 l 1,94,-1
255 516 m 1,96,-1
 244 527 l 1,97,-1
 255 516 l 1,96,-1
277 516 m 1,98,-1
 266 527 l 1,99,-1
 277 516 l 1,98,-1
288 516 m 1,100,-1
 277 527 l 1,101,-1
 288 516 l 1,100,-1
76 505 m 1,102,-1
 65 516 l 1,103,-1
 76 505 l 1,102,-1
165 348 m 1,104,105
 165 363 165 363 167 390 c 128,-1,106
 169 417 169 417 169 432 c 0,107,108
 169 479 169 479 155 513 c 1,109,110
 140 494 140 494 133 483.5 c 128,-1,111
 126 473 126 473 115 452.5 c 128,-1,112
 104 432 104 432 105 413.5 c 128,-1,113
 106 395 106 395 118 378 c 0,114,115
 131 360 131 360 165 348 c 1,104,105
66 480 m 1,116,-1
 55 491 l 1,117,-1
 66 480 l 1,116,-1
44 468 m 1,118,-1
 55 457 l 1,119,-1
 44 468 l 1,118,-1
111 457 m 1,120,-1
 122 446 l 1,121,-1
 111 457 l 1,120,-1
100 435 m 1,122,-1
 111 424 l 1,123,-1
 100 435 l 1,122,-1
100 379 m 1,124,-1
 111 368 l 1,125,-1
 100 379 l 1,124,-1
133 357 m 1,126,-1
 122 368 l 1,127,-1
 133 357 l 1,126,-1
44 357 m 1,128,-1
 55 346 l 1,129,-1
 44 357 l 1,128,-1
144 357 m 1,130,-1
 155 346 l 1,131,-1
 144 357 l 1,130,-1
111 301 m 1,132,-1
 100 312 l 1,133,-1
 111 301 l 1,132,-1
122 301 m 1,134,-1
 111 312 l 1,135,-1
 122 301 l 1,134,-1
256 312 m 1,136,-1
 267 301 l 1,137,-1
 256 312 l 1,136,-1
133 290 m 1,138,-1
 122 301 l 1,139,-1
 133 290 l 1,138,-1
278 301 m 1,140,-1
 289 290 l 1,141,-1
 278 301 l 1,140,-1
155 279 m 1,142,-1
 144 290 l 1,143,-1
 155 279 l 1,142,-1
300 290 m 1,144,-1
 311 279 l 1,145,-1
 300 290 l 1,144,-1
220 91 m 1,146,147
 229 95 229 95 241 100 c 2,148,-1
 265 109 l 2,149,150
 276 113 276 113 289.5 121.5 c 128,-1,151
 303 130 303 130 309 137 c 0,152,153
 315 146 315 146 317 155 c 128,-1,154
 319 164 319 164 316 172.5 c 128,-1,155
 313 181 313 181 310.5 188 c 128,-1,156
 308 195 308 195 299 203.5 c 128,-1,157
 290 212 290 212 285 216.5 c 128,-1,158
 280 221 280 221 268 228.5 c 128,-1,159
 256 236 256 236 252 238.5 c 128,-1,160
 248 241 248 241 235.5 248.5 c 128,-1,161
 223 256 223 256 222 256 c 2,162,-1
 220 91 l 1,146,147
231 258 m 1,163,-1
 243 247 l 1,164,-1
 231 258 l 1,163,-1
243 258 m 1,165,-1
 254 247 l 1,166,-1
 243 258 l 1,165,-1
254 247 m 1,167,-1
 265 236 l 1,168,-1
 254 247 l 1,167,-1
265 247 m 1,169,-1
 276 236 l 1,170,-1
 265 247 l 1,169,-1
287 225 m 1,171,-1
 276 236 l 1,172,-1
 287 225 l 1,171,-1
365 225 m 1,173,-1
 354 236 l 1,174,-1
 365 225 l 1,173,-1
287 225 m 1,175,-1
 298 214 l 1,176,-1
 287 225 l 1,175,-1
309 203 m 1,177,-1
 298 214 l 1,178,-1
 309 203 l 1,177,-1
376 203 m 1,179,-1
 365 214 l 1,180,-1
 376 203 l 1,179,-1
309 203 m 1,181,-1
 321 192 l 1,182,-1
 309 203 l 1,181,-1
321 125 m 1,183,-1
 309 137 l 1,184,-1
 321 125 l 1,183,-1
19 125 m 1,185,-1
 31 113 l 1,186,-1
 19 125 l 1,185,-1
75 113 m 1,187,-1
 64 125 l 1,188,-1
 75 113 l 1,187,-1
276 125 m 1,189,-1
 287 113 l 1,190,-1
 276 125 l 1,189,-1
376 113 m 1,191,-1
 365 125 l 1,192,-1
 376 113 l 1,191,-1
243 113 m 1,193,-1
 254 102 l 1,194,-1
 243 113 l 1,193,-1
376 102 m 1,195,-1
 365 113 l 1,196,-1
 376 102 l 1,195,-1
243 91 m 1,197,-1
 231 102 l 1,198,-1
 243 91 l 1,197,-1
354 91 m 1,199,-1
 365 80 l 1,200,-1
 354 91 l 1,199,-1
354 69 m 1,201,-1
 343 80 l 1,202,-1
 354 69 l 1,201,-1
287 69 m 1,203,-1
 298 58 l 1,204,-1
 287 69 l 1,203,-1
309 58 m 1,205,-1
 298 69 l 1,206,-1
 309 58 l 1,205,-1
276 47 m 1,207,-1
 265 58 l 1,208,-1
 276 47 l 1,207,-1
31 35 m 1,209,-1
 19 47 l 1,210,-1
 31 35 l 1,209,-1
254 35 m 1,211,-1
 243 47 l 1,212,-1
 254 35 l 1,211,-1
265 35 m 1,213,-1
 254 47 l 1,214,-1
 265 35 l 1,213,-1
243 24 m 1,215,-1
 231 35 l 1,216,-1
 243 24 l 1,215,-1
164 -32 m 1,217,-1
 177 -43 l 1,218,-1
 164 -32 l 1,217,-1
208 -43 m 1,219,-1
 220 -54 l 1,220,-1
 208 -43 l 1,219,-1
EndSplineSet
EndChar

StartChar: percent
Encoding: 37 37 8
Width: 624
GlyphClass: 2
Flags: W
LayerCount: 2
Fore
SplineSet
390 639 m 1,0,-1
 377 652 l 1,1,-1
 390 639 l 1,0,-1
403 639 m 1,2,-1
 390 652 l 1,3,-1
 403 639 l 1,2,-1
416 639 m 1,4,-1
 403 652 l 1,5,-1
 416 639 l 1,4,-1
377 626 m 1,6,-1
 364 639 l 1,7,-1
 377 626 l 1,6,-1
422 620 m 1,8,9
 415 603 415 603 409.5 585.5 c 128,-1,10
 404 568 404 568 400 545.5 c 128,-1,11
 396 523 396 523 394 509 c 128,-1,12
 392 495 392 495 388.5 465 c 128,-1,13
 385 435 385 435 384 423 c 0,14,15
 381 390 381 390 371 363 c 0,16,17
 354 322 354 322 306.5 262.5 c 128,-1,18
 259 203 259 203 243 167 c 0,19,20
 240 161 240 161 231.5 142 c 128,-1,21
 223 123 223 123 219 113.5 c 128,-1,22
 215 104 215 104 207.5 89.5 c 128,-1,23
 200 75 200 75 193 63 c 128,-1,24
 186 51 186 51 178 41 c 0,25,26
 172 35 172 35 168.5 32 c 128,-1,27
 165 29 165 29 157 23 c 128,-1,28
 149 17 149 17 144 16 c 128,-1,29
 139 15 139 15 129.5 13 c 128,-1,30
 120 11 120 11 113 16 c 0,31,32
 101 25 101 25 101 40.5 c 128,-1,33
 101 56 101 56 108 70.5 c 128,-1,34
 115 85 115 85 128 102.5 c 128,-1,35
 141 120 141 120 149.5 129 c 128,-1,36
 158 138 158 138 167 147 c 0,37,38
 184 179 184 179 225.5 242.5 c 128,-1,39
 267 306 267 306 284 337 c 0,40,41
 311 387 311 387 317 444 c 2,42,-1
 319 483 l 2,43,44
 324 535 324 535 338 561 c 1,45,46
 349 601 349 601 369 618.5 c 128,-1,47
 389 636 389 636 429 626 c 1,48,-1
 422 620 l 1,8,9
422 620 m 1,49,-1
 409 633 l 1,50,-1
 422 620 l 1,49,-1
357 607 m 1,51,-1
 344 620 l 1,52,-1
 357 607 l 1,51,-1
422 594 m 1,53,-1
 409 607 l 1,54,-1
 422 594 l 1,53,-1
73 581 m 1,55,-1
 60 594 l 1,56,-1
 73 581 l 1,55,-1
70 581 m 1,57,58
 114 604 114 604 140 576 c 128,-1,59
 166 548 166 548 156 497 c 0,60,61
 144 445 144 445 109 427 c 0,62,63
 83 413 83 413 67 418 c 0,64,65
 43 424 43 424 33.5 449 c 128,-1,66
 24 474 24 474 28.5 502.5 c 128,-1,67
 33 531 33 531 46 552 c 0,68,69
 57 571 57 571 73 581 c 1,70,-1
 70 581 l 1,57,58
147 581 m 1,71,-1
 134 594 l 1,72,-1
 147 581 l 1,71,-1
341 581 m 1,73,-1
 328 594 l 1,74,-1
 341 581 l 1,73,-1
419 581 m 1,75,-1
 406 594 l 1,76,-1
 419 581 l 1,75,-1
57 568 m 1,77,-1
 44 581 l 1,78,-1
 57 568 l 1,77,-1
406 568 m 1,79,-1
 393 581 l 1,80,-1
 406 568 l 1,79,-1
173 555 m 1,81,-1
 160 568 l 1,82,-1
 173 555 l 1,81,-1
328 555 m 1,83,-1
 315 568 l 1,84,-1
 328 555 l 1,83,-1
406 555 m 1,85,-1
 393 568 l 1,86,-1
 406 555 l 1,85,-1
44 543 m 1,87,-1
 31 555 l 1,88,-1
 44 543 l 1,87,-1
380 555 m 1,89,-1
 393 543 l 1,90,-1
 380 555 l 1,89,-1
380 543 m 1,91,-1
 393 530 l 1,92,-1
 380 543 l 1,91,-1
31 517 m 1,93,-1
 18 530 l 1,94,-1
 31 517 l 1,93,-1
173 504 m 1,95,-1
 160 517 l 1,96,-1
 173 504 l 1,95,-1
173 491 m 1,97,-1
 160 504 l 1,98,-1
 173 491 l 1,97,-1
160 452 m 1,99,-1
 147 465 l 1,100,-1
 160 452 l 1,99,-1
147 439 m 1,101,-1
 134 452 l 1,102,-1
 147 439 l 1,101,-1
31 426 m 1,103,-1
 18 439 l 1,104,-1
 31 426 l 1,103,-1
134 426 m 1,105,-1
 121 439 l 1,106,-1
 134 426 l 1,105,-1
121 413 m 1,107,-1
 108 426 l 1,108,-1
 121 413 l 1,107,-1
315 400 m 1,109,-1
 302 413 l 1,110,-1
 315 400 l 1,109,-1
302 374 m 1,111,-1
 290 387 l 1,112,-1
 302 374 l 1,111,-1
380 361 m 1,113,-1
 367 374 l 1,114,-1
 380 361 l 1,113,-1
290 348 m 1,115,-1
 277 361 l 1,116,-1
 290 348 l 1,115,-1
367 336 m 1,117,-1
 354 348 l 1,118,-1
 367 336 l 1,117,-1
277 323 m 1,119,-1
 264 336 l 1,120,-1
 277 323 l 1,119,-1
264 310 m 1,121,-1
 251 323 l 1,122,-1
 264 310 l 1,121,-1
354 310 m 1,123,-1
 341 323 l 1,124,-1
 354 310 l 1,123,-1
341 297 m 1,125,-1
 328 310 l 1,126,-1
 341 297 l 1,125,-1
251 284 m 1,127,-1
 238 297 l 1,128,-1
 251 284 l 1,127,-1
238 271 m 1,129,-1
 225 284 l 1,130,-1
 238 271 l 1,129,-1
328 271 m 1,131,-1
 315 284 l 1,132,-1
 328 271 l 1,131,-1
225 258 m 1,133,-1
 212 271 l 1,134,-1
 225 258 l 1,133,-1
315 258 m 1,135,-1
 302 271 l 1,136,-1
 315 258 l 1,135,-1
302 245 m 1,137,-1
 290 258 l 1,138,-1
 302 245 l 1,137,-1
212 232 m 1,139,-1
 199 245 l 1,140,-1
 212 232 l 1,139,-1
290 219 m 1,141,-1
 277 232 l 1,142,-1
 290 219 l 1,141,-1
471 219 m 1,143,-1
 458 232 l 1,144,-1
 471 219 l 1,143,-1
432 172 m 0,145,146
 436 196 436 196 465.5 216 c 128,-1,147
 495 236 495 236 524 223 c 0,148,149
 547 213 547 213 561 191.5 c 128,-1,150
 575 170 575 170 574 142 c 0,151,152
 573 116 573 116 542 99.5 c 128,-1,153
 511 83 511 83 485 91 c 128,-1,154
 459 99 459 99 443 120.5 c 128,-1,155
 427 142 427 142 432 172 c 0,145,146
548 219 m 1,156,-1
 535 232 l 1,157,-1
 548 219 l 1,156,-1
199 206 m 1,158,-1
 186 219 l 1,159,-1
 199 206 l 1,158,-1
277 206 m 1,160,-1
 264 219 l 1,161,-1
 277 206 l 1,160,-1
458 206 m 1,162,-1
 445 219 l 1,163,-1
 458 206 l 1,162,-1
264 193 m 1,164,-1
 251 206 l 1,165,-1
 264 193 l 1,164,-1
445 193 m 1,166,-1
 432 206 l 1,167,-1
 445 193 l 1,166,-1
574 193 m 1,168,-1
 561 206 l 1,169,-1
 574 193 l 1,168,-1
186 180 m 1,170,-1
 173 193 l 1,171,-1
 186 180 l 1,170,-1
264 180 m 1,172,-1
 251 193 l 1,173,-1
 264 180 l 1,172,-1
251 167 m 1,174,-1
 238 180 l 1,175,-1
 251 167 l 1,174,-1
432 167 m 1,176,-1
 419 180 l 1,177,-1
 432 167 l 1,176,-1
173 154 m 1,178,-1
 160 167 l 1,179,-1
 173 154 l 1,178,-1
251 154 m 1,180,-1
 238 167 l 1,181,-1
 251 154 l 1,180,-1
238 142 m 1,182,-1
 225 154 l 1,183,-1
 238 142 l 1,182,-1
160 129 m 1,184,-1
 147 142 l 1,185,-1
 160 129 l 1,184,-1
238 129 m 1,186,-1
 225 142 l 1,187,-1
 238 129 l 1,186,-1
225 116 m 1,188,-1
 212 129 l 1,189,-1
 225 116 l 1,188,-1
432 116 m 1,190,-1
 419 129 l 1,191,-1
 432 116 l 1,190,-1
147 103 m 1,192,-1
 134 116 l 1,193,-1
 147 103 l 1,192,-1
225 103 m 1,194,-1
 212 116 l 1,195,-1
 225 103 l 1,194,-1
574 103 m 1,196,-1
 561 116 l 1,197,-1
 574 103 l 1,196,-1
134 90 m 1,198,-1
 121 103 l 1,199,-1
 134 90 l 1,198,-1
212 90 m 1,200,-1
 199 103 l 1,201,-1
 212 90 l 1,200,-1
445 90 m 1,202,-1
 432 103 l 1,203,-1
 445 90 l 1,202,-1
458 90 m 1,204,-1
 445 103 l 1,205,-1
 458 90 l 1,204,-1
561 90 m 1,206,-1
 548 103 l 1,207,-1
 561 90 l 1,206,-1
121 77 m 1,208,-1
 108 90 l 1,209,-1
 121 77 l 1,208,-1
212 77 m 1,210,-1
 199 90 l 1,211,-1
 212 77 l 1,210,-1
108 64 m 1,212,-1
 96 77 l 1,213,-1
 108 64 l 1,212,-1
199 64 m 1,214,-1
 186 77 l 1,215,-1
 199 64 l 1,214,-1
199 51 m 1,216,-1
 186 64 l 1,217,-1
 199 51 l 1,216,-1
96 38 m 1,218,-1
 83 51 l 1,219,-1
 96 38 l 1,218,-1
186 38 m 1,220,-1
 173 51 l 1,221,-1
 186 38 l 1,220,-1
173 25 m 1,222,-1
 160 38 l 1,223,-1
 173 25 l 1,222,-1
96 12 m 1,224,-1
 83 25 l 1,225,-1
 96 12 l 1,224,-1
160 -1 m 1,226,-1
 147 12 l 1,227,-1
 160 -1 l 1,226,-1
EndSplineSet
EndChar

StartChar: ampersand
Encoding: 38 38 9
Width: 406
GlyphClass: 2
Flags: W
LayerCount: 2
Fore
SplineSet
134 668 m 1,0,-1
 123 679 l 1,1,-1
 134 668 l 1,0,-1
374 273 m 2,2,3
 374 208 374 208 351 170.5 c 128,-1,4
 328 133 328 133 276 112 c 1,5,6
 283 104 283 104 299.5 91.5 c 128,-1,7
 316 79 316 79 323 72 c 0,8,9
 325 70 325 70 331.5 63.5 c 128,-1,10
 338 57 338 57 340.5 54.5 c 128,-1,11
 343 52 343 52 347.5 46.5 c 128,-1,12
 352 41 352 41 355.5 36 c 128,-1,13
 359 31 359 31 362 25 c 1,14,15
 301 6 301 6 239 54 c 0,16,17
 219 70 219 70 180.5 84.5 c 128,-1,18
 142 99 142 99 109 115 c 128,-1,19
 76 131 76 131 59 155 c 0,20,21
 16 204 16 204 37 264 c 0,22,23
 46 292 46 292 66 313 c 128,-1,24
 86 334 86 334 113 341 c 1,25,-1
 111 335 l 1,26,27
 108 340 108 340 103.5 350.5 c 128,-1,28
 99 361 99 361 96 366 c 2,29,-1
 89 381 l 2,30,31
 70 418 70 418 70 464 c 0,32,33
 70 482 70 482 75 514 c 128,-1,34
 80 546 80 546 80 564 c 0,35,36
 84 591 84 591 100 616.5 c 128,-1,37
 116 642 116 642 136 655 c 0,38,39
 163 671 163 671 187 666.5 c 128,-1,40
 211 662 211 662 232 640 c 0,41,42
 261 614 261 614 272.5 571.5 c 128,-1,43
 284 529 284 529 274 477 c 0,44,45
 265 430 265 430 239.5 392 c 128,-1,46
 214 354 214 354 177 338 c 1,47,-1
 220 153 l 1,48,49
 304 167 304 167 318 260 c 1,50,-1
 318 271 l 2,51,52
 318 276 318 276 318 288 c 128,-1,53
 318 300 318 300 318 306 c 128,-1,54
 318 312 318 312 318.5 322.5 c 128,-1,55
 319 333 319 333 320.5 338.5 c 128,-1,56
 322 344 322 344 324.5 351.5 c 128,-1,57
 327 359 327 359 331.5 363.5 c 128,-1,58
 336 368 336 368 342 370 c 0,59,60
 351 370 351 370 357 371 c 128,-1,61
 363 372 363 372 366.5 364.5 c 128,-1,62
 370 357 370 357 372 352.5 c 128,-1,63
 374 348 374 348 374.5 337 c 128,-1,64
 375 326 375 326 375 319 c 128,-1,65
 375 312 375 312 374.5 301 c 128,-1,66
 374 290 374 290 374 284 c 2,67,-1
 374 273 l 2,2,3
209 662 m 1,68,-1
 198 673 l 1,69,-1
 209 662 l 1,68,-1
121 650 m 1,70,-1
 111 662 l 1,71,-1
 121 650 l 1,70,-1
230 650 m 1,72,-1
 219 662 l 1,73,-1
 230 650 l 1,72,-1
111 639 m 1,74,-1
 100 650 l 1,75,-1
 111 639 l 1,74,-1
100 629 m 1,76,-1
 89 639 l 1,77,-1
 100 629 l 1,76,-1
253 629 m 1,78,-1
 242 639 l 1,79,-1
 253 629 l 1,78,-1
78 629 m 1,80,-1
 89 618 l 1,81,-1
 78 629 l 1,80,-1
264 618 m 1,82,-1
 253 629 l 1,83,-1
 264 618 l 1,82,-1
155 379 m 1,84,85
 191 400 191 400 205 436 c 128,-1,86
 219 472 219 472 219 531 c 0,87,88
 219 596 219 596 176 596 c 1,89,90
 154 603 154 603 142.5 586 c 128,-1,91
 131 569 131 569 131 542 c 1,92,93
 121 487 121 487 126 452 c 128,-1,94
 131 417 131 417 155 379 c 1,84,85
198 607 m 1,95,-1
 209 596 l 1,96,-1
 198 607 l 1,95,-1
132 596 m 1,97,-1
 143 586 l 1,98,-1
 132 596 l 1,97,-1
274 586 m 1,99,-1
 264 596 l 1,100,-1
 274 586 l 1,99,-1
209 586 m 1,101,-1
 219 575 l 1,102,-1
 209 586 l 1,101,-1
78 520 m 1,103,-1
 68 531 l 1,104,-1
 78 520 l 1,103,-1
121 520 m 1,105,-1
 132 509 l 1,106,-1
 121 520 l 1,105,-1
121 509 m 1,107,-1
 132 498 l 1,108,-1
 121 509 l 1,107,-1
209 443 m 1,109,-1
 219 433 l 1,110,-1
 209 443 l 1,109,-1
274 422 m 1,111,-1
 264 433 l 1,112,-1
 274 422 l 1,111,-1
121 422 m 1,113,-1
 132 411 l 1,114,-1
 121 422 l 1,113,-1
198 422 m 1,115,-1
 209 411 l 1,116,-1
 198 422 l 1,115,-1
274 411 m 1,117,-1
 264 422 l 1,118,-1
 274 411 l 1,117,-1
78 400 m 1,119,-1
 68 411 l 1,120,-1
 78 400 l 1,119,-1
132 411 m 1,121,-1
 143 400 l 1,122,-1
 132 411 l 1,121,-1
264 400 m 1,123,-1
 253 411 l 1,124,-1
 264 400 l 1,123,-1
176 400 m 1,125,-1
 187 390 l 1,126,-1
 176 400 l 1,125,-1
264 390 m 1,127,-1
 253 400 l 1,128,-1
 264 390 l 1,127,-1
89 379 m 1,129,-1
 78 390 l 1,130,-1
 89 379 l 1,129,-1
143 390 m 1,131,-1
 155 379 l 1,132,-1
 143 390 l 1,131,-1
166 390 m 1,133,-1
 176 379 l 1,134,-1
 166 390 l 1,133,-1
253 379 m 1,135,-1
 242 390 l 1,136,-1
 253 379 l 1,135,-1
100 356 m 1,137,-1
 89 367 l 1,138,-1
 100 356 l 1,137,-1
219 346 m 1,139,-1
 209 356 l 1,140,-1
 219 346 l 1,139,-1
209 335 m 1,141,-1
 198 346 l 1,142,-1
 209 335 l 1,141,-1
78 324 m 1,143,-1
 68 335 l 1,144,-1
 78 324 l 1,143,-1
57 324 m 1,145,-1
 68 313 l 1,146,-1
 57 324 l 1,145,-1
45 313 m 1,147,-1
 57 302 l 1,148,-1
 45 313 l 1,147,-1
198 292 m 1,149,-1
 187 302 l 1,150,-1
 198 292 l 1,149,-1
34 292 m 1,151,-1
 45 281 l 1,152,-1
 34 292 l 1,151,-1
111 292 m 1,153,-1
 121 281 l 1,154,-1
 111 292 l 1,153,-1
121 292 m 1,155,-1
 132 281 l 1,156,-1
 121 292 l 1,155,-1
198 281 m 1,157,-1
 187 292 l 1,158,-1
 198 281 l 1,157,-1
100 281 m 1,159,-1
 111 269 l 1,160,-1
 100 281 l 1,159,-1
130 280 m 1,161,162
 75 248 75 248 94 206 c 0,163,164
 101 188 101 188 122 172.5 c 128,-1,165
 143 157 143 157 166 150 c 1,166,-1
 130 280 l 1,161,162
130 280 m 1,167,-1
 141 268 l 1,168,-1
 130 280 l 1,167,-1
32 257 m 1,169,-1
 22 268 l 1,170,-1
 32 257 l 1,169,-1
98 257 m 1,171,-1
 87 268 l 1,172,-1
 98 257 l 1,171,-1
87 247 m 1,173,-1
 76 257 l 1,174,-1
 87 247 l 1,173,-1
87 236 m 1,175,-1
 76 247 l 1,176,-1
 87 236 l 1,175,-1
305 225 m 1,177,-1
 315 214 l 1,178,-1
 305 225 l 1,177,-1
196 204 m 1,179,-1
 207 193 l 1,180,-1
 196 204 l 1,179,-1
305 193 m 1,181,-1
 294 204 l 1,182,-1
 305 193 l 1,181,-1
32 182 m 1,183,-1
 22 193 l 1,184,-1
 32 182 l 1,183,-1
87 193 m 1,185,-1
 98 182 l 1,186,-1
 87 193 l 1,185,-1
153 182 m 1,187,-1
 141 193 l 1,188,-1
 153 182 l 1,187,-1
207 193 m 1,189,-1
 217 182 l 1,190,-1
 207 193 l 1,189,-1
370 182 m 1,191,-1
 359 193 l 1,192,-1
 370 182 l 1,191,-1
98 182 m 1,193,-1
 109 170 l 1,194,-1
 98 182 l 1,193,-1
207 182 m 1,195,-1
 217 170 l 1,196,-1
 207 182 l 1,195,-1
283 182 m 1,197,-1
 294 170 l 1,198,-1
 283 182 l 1,197,-1
43 159 m 1,199,-1
 32 170 l 1,200,-1
 43 159 l 1,199,-1
130 159 m 1,201,-1
 119 170 l 1,202,-1
 130 159 l 1,201,-1
153 170 m 1,203,-1
 164 159 l 1,204,-1
 153 170 l 1,203,-1
283 159 m 1,205,-1
 272 170 l 1,206,-1
 283 159 l 1,205,-1
359 159 m 1,207,-1
 349 170 l 1,208,-1
 359 159 l 1,207,-1
43 159 m 1,209,-1
 55 149 l 1,210,-1
 43 159 l 1,209,-1
141 149 m 1,211,-1
 130 159 l 1,212,-1
 141 149 l 1,211,-1
217 159 m 1,213,-1
 228 149 l 1,214,-1
 217 159 l 1,213,-1
240 159 m 1,215,-1
 251 149 l 1,216,-1
 240 159 l 1,215,-1
164 138 m 1,217,-1
 153 149 l 1,218,-1
 164 138 l 1,217,-1
349 138 m 1,219,-1
 338 149 l 1,220,-1
 349 138 l 1,219,-1
66 127 m 1,221,-1
 55 138 l 1,222,-1
 66 127 l 1,221,-1
66 138 m 1,223,-1
 76 127 l 1,224,-1
 66 138 l 1,223,-1
338 127 m 1,225,-1
 326 138 l 1,226,-1
 338 127 l 1,225,-1
87 116 m 1,227,-1
 76 127 l 1,228,-1
 87 116 l 1,227,-1
315 116 m 1,229,-1
 305 127 l 1,230,-1
 315 116 l 1,229,-1
326 116 m 1,231,-1
 315 127 l 1,232,-1
 326 116 l 1,231,-1
294 106 m 1,233,-1
 283 116 l 1,234,-1
 294 106 l 1,233,-1
305 106 m 1,235,-1
 294 116 l 1,236,-1
 305 106 l 1,235,-1
119 95 m 1,237,-1
 109 106 l 1,238,-1
 119 95 l 1,237,-1
119 106 m 1,239,-1
 130 95 l 1,240,-1
 119 106 l 1,239,-1
130 95 m 1,241,-1
 141 83 l 1,242,-1
 130 95 l 1,241,-1
141 95 m 1,243,-1
 153 83 l 1,244,-1
 141 95 l 1,243,-1
283 95 m 1,245,-1
 294 83 l 1,246,-1
 283 95 l 1,245,-1
196 83 m 1,247,-1
 207 72 l 1,248,-1
 196 83 l 1,247,-1
294 83 m 1,249,-1
 305 72 l 1,250,-1
 294 83 l 1,249,-1
207 72 m 1,251,-1
 217 61 l 1,252,-1
 207 72 l 1,251,-1
315 72 m 1,253,-1
 326 61 l 1,254,-1
 315 72 l 1,253,-1
349 51 m 1,255,-1
 338 61 l 1,256,-1
 349 51 l 1,255,-1
251 40 m 1,257,-1
 240 51 l 1,258,-1
 251 40 l 1,257,-1
349 51 m 1,259,-1
 359 40 l 1,260,-1
 349 51 l 1,259,-1
272 29 m 1,261,-1
 283 18 l 1,262,-1
 272 29 l 1,261,-1
349 18 m 1,263,-1
 359 8 l 1,264,-1
 349 18 l 1,263,-1
EndSplineSet
EndChar

StartChar: quotesingle
Encoding: 39 39 10
Width: 230
GlyphClass: 2
Flags: W
LayerCount: 2
Fore
SplineSet
168 621 m 1,0,-1
 156 633 l 1,1,-1
 168 621 l 1,0,-1
181 621 m 1,2,-1
 168 633 l 1,3,-1
 181 621 l 1,2,-1
44 385 m 1,4,5
 36 411 36 411 39.5 439.5 c 128,-1,6
 43 468 43 468 51.5 491 c 128,-1,7
 60 514 60 514 72 534 c 0,8,9
 122 617 122 617 193 609 c 1,10,11
 189 602 189 602 173 568.5 c 128,-1,12
 157 535 157 535 148 518 c 2,13,-1
 132 488 l 2,14,15
 95 419 95 419 45 385 c 1,16,-1
 44 385 l 1,4,5
193 608 m 1,17,-1
 180 621 l 1,18,-1
 193 608 l 1,17,-1
118 584 m 1,19,-1
 106 595 l 1,20,-1
 118 584 l 1,19,-1
193 584 m 1,21,-1
 180 595 l 1,22,-1
 193 584 l 1,21,-1
106 571 m 1,23,-1
 93 584 l 1,24,-1
 106 571 l 1,23,-1
180 584 m 1,25,-1
 193 571 l 1,26,-1
 180 584 l 1,25,-1
180 559 m 1,27,-1
 167 571 l 1,28,-1
 180 559 l 1,27,-1
93 534 m 1,29,-1
 81 546 l 1,30,-1
 93 534 l 1,29,-1
155 546 m 1,31,-1
 167 534 l 1,32,-1
 155 546 l 1,31,-1
155 521 m 1,33,-1
 143 534 l 1,34,-1
 155 521 l 1,33,-1
81 509 m 1,35,-1
 68 521 l 1,36,-1
 81 509 l 1,35,-1
143 521 m 1,37,-1
 155 509 l 1,38,-1
 143 521 l 1,37,-1
143 497 m 1,39,-1
 131 509 l 1,40,-1
 143 497 l 1,39,-1
68 485 m 1,41,-1
 57 497 l 1,42,-1
 68 485 l 1,41,-1
143 485 m 1,43,-1
 131 497 l 1,44,-1
 143 485 l 1,43,-1
57 472 m 1,45,-1
 44 485 l 1,46,-1
 57 472 l 1,45,-1
131 472 m 1,47,-1
 118 485 l 1,48,-1
 131 472 l 1,47,-1
131 459 m 1,49,-1
 118 472 l 1,50,-1
 131 459 l 1,49,-1
44 448 m 1,51,-1
 31 459 l 1,52,-1
 44 448 l 1,51,-1
118 435 m 1,53,-1
 106 448 l 1,54,-1
 118 435 l 1,53,-1
31 422 m 1,55,-1
 19 435 l 1,56,-1
 31 422 l 1,55,-1
106 422 m 1,57,-1
 93 435 l 1,58,-1
 106 422 l 1,57,-1
31 410 m 1,59,-1
 19 422 l 1,60,-1
 31 410 l 1,59,-1
93 410 m 1,61,-1
 81 422 l 1,62,-1
 93 410 l 1,61,-1
31 398 m 1,63,-1
 19 410 l 1,64,-1
 31 398 l 1,63,-1
93 398 m 1,65,-1
 81 410 l 1,66,-1
 93 398 l 1,65,-1
44 385 m 1,67,-1
 31 398 l 1,68,-1
 44 385 l 1,67,-1
57 398 m 1,69,-1
 68 385 l 1,70,-1
 57 398 l 1,69,-1
68 398 m 1,71,-1
 81 385 l 1,72,-1
 68 398 l 1,71,-1
EndSplineSet
EndChar

StartChar: parenleft
Encoding: 40 40 11
Width: 411
GlyphClass: 2
Flags: W
LayerCount: 2
Fore
SplineSet
182 605 m 1,0,-1
 168 617 l 1,1,-1
 182 605 l 1,0,-1
194 605 m 1,2,-1
 182 617 l 1,3,-1
 194 605 l 1,2,-1
207 605 m 1,4,-1
 194 617 l 1,5,-1
 207 605 l 1,4,-1
168 591 m 1,6,-1
 156 605 l 1,7,-1
 168 591 l 1,6,-1
219 590 m 1,8,9
 145 402 145 402 105 189 c 1,10,-1
 105 160 l 2,11,12
 105 25 105 25 157 -37 c 1,13,14
 183 -58 183 -58 250 -67.5 c 128,-1,15
 317 -77 317 -77 336 -83 c 0,16,17
 364 -92 364 -92 383 -125 c 1,18,-1
 381 -130 l 1,19,20
 350 -141 350 -141 297 -141 c 2,21,-1
 269 -141 l 2,22,23
 207 -138 207 -138 162 -114.5 c 128,-1,24
 117 -91 117 -91 91.5 -53 c 128,-1,25
 66 -15 66 -15 53.5 38 c 128,-1,26
 41 91 41 91 42 149 c 128,-1,27
 43 207 43 207 55 273 c 0,28,29
 65 328 65 328 82 375 c 0,30,31
 87 390 87 390 96.5 426.5 c 128,-1,32
 106 463 106 463 112 484 c 128,-1,33
 118 505 118 505 130.5 530.5 c 128,-1,34
 143 556 143 556 159 572 c 0,35,36
 181 594 181 594 219 590 c 1,8,9
217 586 m 1,37,-1
 205 600 l 1,38,-1
 217 586 l 1,37,-1
154 574 m 1,39,-1
 142 586 l 1,40,-1
 154 574 l 1,39,-1
217 562 m 1,41,-1
 205 574 l 1,42,-1
 217 562 l 1,41,-1
217 549 m 1,43,-1
 205 562 l 1,44,-1
 217 549 l 1,43,-1
142 537 m 1,45,-1
 129 549 l 1,46,-1
 142 537 l 1,45,-1
205 525 m 1,47,-1
 192 537 l 1,48,-1
 205 525 l 1,47,-1
129 511 m 1,49,-1
 117 525 l 1,50,-1
 129 511 l 1,49,-1
205 511 m 1,51,-1
 192 525 l 1,52,-1
 205 511 l 1,51,-1
192 499 m 1,53,-1
 180 511 l 1,54,-1
 192 499 l 1,53,-1
117 486 m 1,55,-1
 104 499 l 1,56,-1
 117 486 l 1,55,-1
192 486 m 1,57,-1
 180 499 l 1,58,-1
 192 486 l 1,57,-1
180 448 m 1,59,-1
 166 462 l 1,60,-1
 180 448 l 1,59,-1
104 399 m 1,61,-1
 91 411 l 1,62,-1
 104 399 l 1,61,-1
166 386 m 1,63,-1
 154 399 l 1,64,-1
 166 386 l 1,63,-1
91 373 m 1,65,-1
 79 386 l 1,66,-1
 91 373 l 1,65,-1
166 373 m 1,67,-1
 154 386 l 1,68,-1
 166 373 l 1,67,-1
79 336 m 1,69,-1
 66 348 l 1,70,-1
 79 336 l 1,69,-1
154 336 m 1,71,-1
 142 348 l 1,72,-1
 154 336 l 1,71,-1
142 323 m 1,73,-1
 129 336 l 1,74,-1
 142 323 l 1,73,-1
142 311 m 1,75,-1
 129 323 l 1,76,-1
 142 311 l 1,75,-1
66 273 m 1,77,-1
 54 285 l 1,78,-1
 66 273 l 1,77,-1
129 260 m 1,79,-1
 117 273 l 1,80,-1
 129 260 l 1,79,-1
129 248 m 1,81,-1
 117 260 l 1,82,-1
 129 248 l 1,81,-1
54 222 m 1,83,-1
 42 235 l 1,84,-1
 54 222 l 1,83,-1
117 185 m 1,85,-1
 104 197 l 1,86,-1
 117 185 l 1,85,-1
117 47 m 1,87,-1
 104 59 l 1,88,-1
 117 47 l 1,87,-1
54 33 m 1,89,-1
 42 47 l 1,90,-1
 54 33 l 1,89,-1
129 21 m 1,91,-1
 117 33 l 1,92,-1
 129 21 l 1,91,-1
66 -4 m 1,93,-1
 54 9 l 1,94,-1
 66 -4 l 1,93,-1
142 -4 m 1,95,-1
 129 9 l 1,96,-1
 142 -4 l 1,95,-1
79 -29 m 1,97,-1
 66 -16 l 1,98,-1
 79 -29 l 1,97,-1
142 -29 m 1,99,-1
 154 -42 l 1,100,-1
 142 -29 l 1,99,-1
154 -42 m 1,101,-1
 166 -54 l 1,102,-1
 154 -42 l 1,101,-1
91 -67 m 1,103,-1
 79 -54 l 1,104,-1
 91 -67 l 1,103,-1
180 -54 m 1,105,-1
 192 -67 l 1,106,-1
 180 -54 l 1,105,-1
205 -67 m 1,107,-1
 217 -79 l 1,108,-1
 205 -67 l 1,107,-1
104 -91 m 1,109,-1
 91 -79 l 1,110,-1
 104 -91 l 1,109,-1
368 -91 m 1,111,-1
 355 -79 l 1,112,-1
 368 -91 l 1,111,-1
381 -104 m 1,113,-1
 368 -91 l 1,114,-1
 381 -104 l 1,113,-1
166 -130 m 1,115,-1
 154 -117 l 1,116,-1
 166 -130 l 1,115,-1
180 -130 m 1,117,-1
 166 -117 l 1,118,-1
 180 -130 l 1,117,-1
192 -142 m 1,119,-1
 180 -130 l 1,120,-1
 192 -142 l 1,119,-1
205 -142 m 1,121,-1
 192 -130 l 1,122,-1
 205 -142 l 1,121,-1
381 -142 m 1,123,-1
 368 -130 l 1,124,-1
 381 -142 l 1,123,-1
EndSplineSet
EndChar

StartChar: parenright
Encoding: 41 41 12
Width: 402
GlyphClass: 2
Flags: W
LayerCount: 2
Fore
SplineSet
37 592 m 1,0,-1
 24 605 l 1,1,-1
 37 592 l 1,0,-1
190 -139 m 1,2,3
 202 -97 202 -97 228.5 -13 c 128,-1,4
 255 71 255 71 274 138.5 c 128,-1,5
 293 206 293 206 305 272 c 1,6,-1
 305 301 l 2,7,8
 305 434 305 434 241 501 c 0,9,10
 223 519 223 519 195 526 c 128,-1,11
 167 533 167 533 129.5 537.5 c 128,-1,12
 92 542 92 542 70 549 c 0,13,14
 43 558 43 558 24 592 c 1,15,-1
 23 588 l 1,16,17
 62 602 62 602 137 602 c 0,18,19
 260 597 260 597 315 517 c 128,-1,20
 370 437 370 437 365 296 c 0,21,22
 364 268 364 268 361 241 c 128,-1,23
 358 214 358 214 351.5 182 c 128,-1,24
 345 150 345 150 341.5 134 c 128,-1,25
 338 118 338 118 328 79.5 c 128,-1,26
 318 41 318 41 316 34 c 2,27,-1
 310 10 l 2,28,29
 303 -18 303 -18 298 -34 c 128,-1,30
 293 -50 293 -50 284 -73 c 128,-1,31
 275 -96 275 -96 262 -110.5 c 128,-1,32
 249 -125 249 -125 233 -133 c 0,33,34
 215 -142 215 -142 190 -139 c 1,2,3
215 588 m 1,35,-1
 202 601 l 1,36,-1
 215 588 l 1,35,-1
227 588 m 1,37,-1
 215 601 l 1,38,-1
 227 588 l 1,37,-1
240 576 m 1,39,-1
 227 588 l 1,40,-1
 240 576 l 1,39,-1
254 576 m 1,41,-1
 240 588 l 1,42,-1
 254 576 l 1,41,-1
36 550 m 1,43,-1
 23 562 l 1,44,-1
 36 550 l 1,43,-1
48 537 m 1,45,-1
 36 550 l 1,46,-1
 48 537 l 1,45,-1
317 537 m 1,47,-1
 304 550 l 1,48,-1
 317 537 l 1,47,-1
202 525 m 1,49,-1
 190 537 l 1,50,-1
 202 525 l 1,49,-1
227 512 m 1,51,-1
 215 525 l 1,52,-1
 227 512 l 1,51,-1
330 512 m 1,53,-1
 317 525 l 1,54,-1
 330 512 l 1,53,-1
240 512 m 1,55,-1
 254 498 l 1,56,-1
 240 512 l 1,55,-1
254 498 m 1,57,-1
 266 486 l 1,58,-1
 254 498 l 1,57,-1
342 473 m 1,59,-1
 330 486 l 1,60,-1
 342 473 l 1,59,-1
279 448 m 1,61,-1
 266 461 l 1,62,-1
 279 448 l 1,61,-1
355 448 m 1,63,-1
 342 461 l 1,64,-1
 355 448 l 1,63,-1
291 422 m 1,65,-1
 279 434 l 1,66,-1
 291 422 l 1,65,-1
368 409 m 1,67,-1
 355 422 l 1,68,-1
 368 409 l 1,67,-1
304 397 m 1,69,-1
 291 409 l 1,70,-1
 304 397 l 1,69,-1
304 256 m 1,71,-1
 291 269 l 1,72,-1
 304 256 l 1,71,-1
368 218 m 1,73,-1
 355 230 l 1,74,-1
 368 218 l 1,73,-1
291 193 m 1,75,-1
 279 205 l 1,76,-1
 291 193 l 1,75,-1
291 179 m 1,77,-1
 279 193 l 1,78,-1
 291 179 l 1,77,-1
355 166 m 1,79,-1
 342 179 l 1,80,-1
 355 166 l 1,79,-1
279 129 m 1,81,-1
 266 141 l 1,82,-1
 279 129 l 1,81,-1
279 115 m 1,83,-1
 266 129 l 1,84,-1
 279 115 l 1,83,-1
266 102 m 1,85,-1
 254 115 l 1,86,-1
 266 102 l 1,85,-1
342 102 m 1,87,-1
 330 115 l 1,88,-1
 342 102 l 1,87,-1
254 65 m 1,89,-1
 240 77 l 1,90,-1
 254 65 l 1,89,-1
330 65 m 1,91,-1
 317 77 l 1,92,-1
 330 65 l 1,91,-1
254 51 m 1,93,-1
 240 65 l 1,94,-1
 254 51 l 1,93,-1
317 38 m 1,95,-1
 304 51 l 1,96,-1
 317 38 l 1,95,-1
240 -13 m 1,97,-1
 227 1 l 1,98,-1
 240 -13 l 1,97,-1
227 -50 m 1,99,-1
 215 -38 l 1,100,-1
 227 -50 l 1,99,-1
304 -50 m 1,101,-1
 291 -38 l 1,102,-1
 304 -50 l 1,101,-1
227 -63 m 1,103,-1
 215 -50 l 1,104,-1
 227 -63 l 1,103,-1
215 -77 m 1,105,-1
 202 -63 l 1,106,-1
 215 -77 l 1,105,-1
291 -77 m 1,107,-1
 279 -63 l 1,108,-1
 291 -77 l 1,107,-1
215 -89 m 1,109,-1
 202 -77 l 1,110,-1
 215 -89 l 1,109,-1
279 -102 m 1,111,-1
 266 -89 l 1,112,-1
 279 -102 l 1,111,-1
202 -114 m 1,113,-1
 190 -102 l 1,114,-1
 202 -114 l 1,113,-1
202 -127 m 1,115,-1
 190 -114 l 1,116,-1
 202 -127 l 1,115,-1
266 -141 m 1,117,-1
 254 -127 l 1,118,-1
 266 -141 l 1,117,-1
202 -153 m 1,119,-1
 190 -141 l 1,120,-1
 202 -153 l 1,119,-1
254 -153 m 1,121,-1
 240 -141 l 1,122,-1
 254 -153 l 1,121,-1
215 -166 m 1,123,-1
 202 -153 l 1,124,-1
 215 -166 l 1,123,-1
227 -166 m 1,125,-1
 215 -153 l 1,126,-1
 227 -166 l 1,125,-1
240 -166 m 1,127,-1
 227 -153 l 1,128,-1
 240 -166 l 1,127,-1
EndSplineSet
EndChar

StartChar: asterisk
Encoding: 42 42 13
Width: 355
GlyphClass: 2
Flags: W
LayerCount: 2
Fore
SplineSet
238 608 m 1,0,-1
 231 614 l 1,1,-1
 238 608 l 1,0,-1
231 601 m 1,2,-1
 225 608 l 1,3,-1
 231 601 l 1,2,-1
128 455 m 1,4,5
 124 454 124 454 107 449 c 128,-1,6
 90 444 90 444 77.5 441.5 c 128,-1,7
 65 439 65 439 53 439 c 0,8,9
 40 439 40 439 32 444 c 0,10,11
 29 445 29 445 27.5 447 c 128,-1,12
 26 449 26 449 26 451 c 128,-1,13
 26 453 26 453 27 454.5 c 128,-1,14
 28 456 28 456 30 458.5 c 128,-1,15
 32 461 32 461 33 462 c 128,-1,16
 34 463 34 463 36.5 465.5 c 128,-1,17
 39 468 39 468 39 468 c 1,18,19
 74 479 74 479 103 479 c 1,20,21
 83 498 83 498 70 518 c 0,22,23
 56 537 56 537 52 560 c 1,24,25
 43 568 43 568 48 581 c 128,-1,26
 53 594 53 594 66 592 c 0,27,28
 75 592 75 592 80.5 579 c 128,-1,29
 86 566 86 566 86 554 c 1,30,-1
 107 527 l 2,31,32
 117 515 117 515 131 505 c 1,33,34
 131 528 131 528 143 543 c 0,35,36
 151 554 151 554 157 537 c 0,37,38
 162 522 162 522 162 510 c 2,39,-1
 162 488 l 1,40,-1
 159 482 l 1,41,42
 172 495 172 495 190.5 533.5 c 128,-1,43
 209 572 209 572 223 586 c 0,44,45
 236 599 236 599 256 596 c 1,46,47
 249 575 249 575 233 540.5 c 128,-1,48
 217 506 217 506 212 495 c 1,49,50
 228 495 228 495 235.5 491 c 128,-1,51
 243 487 243 487 250 476 c 1,52,53
 241 473 241 473 222 467 c 128,-1,54
 203 461 203 461 194 458 c 1,55,56
 204 450 204 450 216.5 441.5 c 128,-1,57
 229 433 229 433 244.5 423.5 c 128,-1,58
 260 414 260 414 268 409 c 0,59,60
 314 377 314 377 327 346 c 1,61,62
 290 344 290 344 245 378 c 2,63,-1
 206 408 l 2,64,65
 188 422 188 422 167 430 c 1,66,67
 166 427 166 427 163 408 c 0,68,69
 156 353 156 353 146 353 c 0,70,71
 141 353 141 353 136 360 c 1,72,-1
 123 360 l 2,73,74
 122 359 122 359 118 349.5 c 128,-1,75
 114 340 114 340 113 338.5 c 128,-1,76
 112 337 112 337 108.5 329 c 128,-1,77
 105 321 105 321 103 318.5 c 128,-1,78
 101 316 101 316 97 309.5 c 128,-1,79
 93 303 93 303 90 300 c 128,-1,80
 87 297 87 297 83 292.5 c 128,-1,81
 79 288 79 288 74.5 285 c 128,-1,82
 70 282 70 282 65 279 c 1,83,84
 64 295 64 295 63.5 303.5 c 128,-1,85
 63 312 63 312 68.5 326 c 128,-1,86
 74 340 74 340 77.5 346 c 128,-1,87
 81 352 81 352 88 364 c 0,88,89
 89 367 89 367 90 368 c 2,90,-1
 114 410 l 2,91,92
 127 432 127 432 128 455 c 1,4,5
52 589 m 1,93,-1
 45 595 l 1,94,-1
 52 589 l 1,93,-1
222 583 m 1,95,-1
 216 589 l 1,96,-1
 222 583 l 1,95,-1
254 576 m 1,97,-1
 247 583 l 1,98,-1
 254 576 l 1,97,-1
216 570 m 1,99,-1
 209 576 l 1,100,-1
 216 570 l 1,99,-1
77 570 m 1,101,-1
 83 564 l 1,102,-1
 77 570 l 1,101,-1
247 564 m 1,103,-1
 241 570 l 1,104,-1
 247 564 l 1,103,-1
52 557 m 1,105,-1
 45 564 l 1,106,-1
 52 557 l 1,105,-1
209 557 m 1,107,-1
 203 564 l 1,108,-1
 209 557 l 1,107,-1
247 557 m 1,109,-1
 241 564 l 1,110,-1
 247 557 l 1,109,-1
203 551 m 1,111,-1
 197 557 l 1,112,-1
 203 551 l 1,111,-1
241 551 m 1,113,-1
 235 557 l 1,114,-1
 241 551 l 1,113,-1
134 539 m 1,115,-1
 127 545 l 1,116,-1
 134 539 l 1,115,-1
235 539 m 1,117,-1
 228 545 l 1,118,-1
 235 539 l 1,117,-1
58 532 m 1,119,-1
 52 539 l 1,120,-1
 58 532 l 1,119,-1
89 539 m 1,121,-1
 96 532 l 1,122,-1
 89 539 l 1,121,-1
197 532 m 1,123,-1
 190 539 l 1,124,-1
 197 532 l 1,123,-1
102 526 m 1,125,-1
 96 532 l 1,126,-1
 102 526 l 1,125,-1
190 526 m 1,127,-1
 184 532 l 1,128,-1
 190 526 l 1,127,-1
228 526 m 1,129,-1
 222 532 l 1,130,-1
 228 526 l 1,129,-1
58 526 m 1,131,-1
 64 520 l 1,132,-1
 58 526 l 1,131,-1
102 520 m 1,133,-1
 96 526 l 1,134,-1
 102 520 l 1,133,-1
228 520 m 1,135,-1
 222 526 l 1,136,-1
 228 520 l 1,135,-1
70 513 m 1,137,-1
 64 520 l 1,138,-1
 70 513 l 1,137,-1
108 513 m 1,139,-1
 102 520 l 1,140,-1
 108 513 l 1,139,-1
222 513 m 1,141,-1
 216 520 l 1,142,-1
 222 513 l 1,141,-1
184 507 m 1,143,-1
 178 513 l 1,144,-1
 184 507 l 1,143,-1
77 501 m 1,145,-1
 70 507 l 1,146,-1
 77 501 l 1,145,-1
83 494 m 1,147,-1
 77 501 l 1,148,-1
 83 494 l 1,147,-1
171 501 m 1,149,-1
 178 494 l 1,150,-1
 171 501 l 1,149,-1
235 501 m 1,151,-1
 241 494 l 1,152,-1
 235 501 l 1,151,-1
89 488 m 1,153,-1
 83 494 l 1,154,-1
 89 488 l 1,153,-1
247 488 m 1,155,-1
 241 494 l 1,156,-1
 247 488 l 1,155,-1
96 482 m 1,157,-1
 89 488 l 1,158,-1
 96 482 l 1,157,-1
171 482 m 1,159,-1
 165 488 l 1,160,-1
 171 482 l 1,159,-1
96 482 m 1,161,-1
 102 475 l 1,162,-1
 96 482 l 1,161,-1
77 475 m 1,163,-1
 83 469 l 1,164,-1
 77 475 l 1,163,-1
247 469 m 1,165,-1
 241 475 l 1,166,-1
 247 469 l 1,165,-1
45 469 m 1,167,-1
 52 463 l 1,168,-1
 45 469 l 1,167,-1
228 463 m 1,169,-1
 222 469 l 1,170,-1
 228 463 l 1,169,-1
33 456 m 1,171,-1
 26 463 l 1,172,-1
 33 456 l 1,171,-1
216 456 m 1,173,-1
 209 463 l 1,174,-1
 216 456 l 1,173,-1
26 450 m 1,175,-1
 20 456 l 1,176,-1
 26 450 l 1,175,-1
197 456 m 1,177,-1
 203 450 l 1,178,-1
 197 456 l 1,177,-1
115 444 m 1,179,-1
 108 450 l 1,180,-1
 115 444 l 1,179,-1
121 444 m 1,181,-1
 115 450 l 1,182,-1
 121 444 l 1,181,-1
26 438 m 1,183,-1
 20 444 l 1,184,-1
 26 438 l 1,183,-1
89 438 m 1,185,-1
 83 444 l 1,186,-1
 89 438 l 1,185,-1
96 438 m 1,187,-1
 89 444 l 1,188,-1
 96 438 l 1,187,-1
209 438 m 1,189,-1
 203 444 l 1,190,-1
 209 438 l 1,189,-1
58 431 m 1,191,-1
 52 438 l 1,192,-1
 58 431 l 1,191,-1
228 431 m 1,193,-1
 222 438 l 1,194,-1
 228 431 l 1,193,-1
127 419 m 1,195,-1
 121 425 l 1,196,-1
 127 419 l 1,195,-1
171 425 m 1,197,-1
 178 419 l 1,198,-1
 171 425 l 1,197,-1
247 425 m 1,199,-1
 254 419 l 1,200,-1
 247 425 l 1,199,-1
159 419 m 1,201,-1
 165 412 l 1,202,-1
 159 419 l 1,201,-1
184 419 m 1,203,-1
 190 412 l 1,204,-1
 184 419 l 1,203,-1
254 419 m 1,205,-1
 260 412 l 1,206,-1
 254 419 l 1,205,-1
190 412 m 1,207,-1
 197 406 l 1,208,-1
 190 412 l 1,207,-1
203 406 m 1,209,-1
 197 412 l 1,210,-1
 203 406 l 1,209,-1
115 406 m 1,211,-1
 121 400 l 1,212,-1
 115 406 l 1,211,-1
216 400 m 1,213,-1
 209 406 l 1,214,-1
 216 400 l 1,213,-1
260 406 m 1,215,-1
 266 400 l 1,216,-1
 260 406 l 1,215,-1
216 400 m 1,217,-1
 222 393 l 1,218,-1
 216 400 l 1,217,-1
222 400 m 1,219,-1
 228 393 l 1,220,-1
 222 400 l 1,219,-1
272 393 m 1,221,-1
 266 400 l 1,222,-1
 272 393 l 1,221,-1
108 393 m 1,223,-1
 115 387 l 1,224,-1
 108 393 l 1,223,-1
228 393 m 1,225,-1
 235 387 l 1,226,-1
 228 393 l 1,225,-1
279 393 m 1,227,-1
 285 387 l 1,228,-1
 279 393 l 1,227,-1
108 381 m 1,229,-1
 102 387 l 1,230,-1
 108 381 l 1,229,-1
235 387 m 1,231,-1
 241 381 l 1,232,-1
 235 387 l 1,231,-1
96 381 m 1,233,-1
 102 374 l 1,234,-1
 96 381 l 1,233,-1
241 381 m 1,235,-1
 247 374 l 1,236,-1
 241 381 l 1,235,-1
298 374 m 1,237,-1
 291 381 l 1,238,-1
 298 374 l 1,237,-1
254 368 m 1,239,-1
 247 374 l 1,240,-1
 254 368 l 1,239,-1
304 368 m 1,241,-1
 298 374 l 1,242,-1
 304 368 l 1,241,-1
96 362 m 1,243,-1
 89 368 l 1,244,-1
 96 362 l 1,243,-1
254 368 m 1,245,-1
 260 362 l 1,246,-1
 254 368 l 1,245,-1
310 368 m 1,247,-1
 317 362 l 1,248,-1
 310 368 l 1,247,-1
89 355 m 1,249,-1
 83 362 l 1,250,-1
 89 355 l 1,249,-1
266 362 m 1,251,-1
 272 355 l 1,252,-1
 266 362 l 1,251,-1
323 355 m 1,253,-1
 317 362 l 1,254,-1
 323 355 l 1,253,-1
279 349 m 1,255,-1
 272 355 l 1,256,-1
 279 349 l 1,255,-1
83 343 m 1,257,-1
 77 349 l 1,258,-1
 83 343 l 1,257,-1
159 343 m 1,259,-1
 153 349 l 1,260,-1
 159 343 l 1,259,-1
285 343 m 1,261,-1
 279 349 l 1,262,-1
 285 343 l 1,261,-1
115 337 m 1,263,-1
 108 343 l 1,264,-1
 115 337 l 1,263,-1
298 337 m 1,265,-1
 291 343 l 1,266,-1
 298 337 l 1,265,-1
317 337 m 1,267,-1
 310 343 l 1,268,-1
 317 337 l 1,267,-1
77 330 m 1,269,-1
 70 337 l 1,270,-1
 77 330 l 1,269,-1
108 324 m 1,271,-1
 102 330 l 1,272,-1
 108 324 l 1,271,-1
70 318 m 1,273,-1
 64 324 l 1,274,-1
 70 318 l 1,273,-1
108 318 m 1,275,-1
 102 324 l 1,276,-1
 108 318 l 1,275,-1
102 311 m 1,277,-1
 96 318 l 1,278,-1
 102 311 l 1,277,-1
64 299 m 1,279,-1
 58 305 l 1,280,-1
 64 299 l 1,279,-1
58 292 m 1,281,-1
 52 299 l 1,282,-1
 58 292 l 1,281,-1
89 299 m 1,283,-1
 96 292 l 1,284,-1
 89 299 l 1,283,-1
52 292 m 1,285,-1
 58 286 l 1,286,-1
 52 292 l 1,285,-1
52 286 m 1,287,-1
 58 280 l 1,288,-1
 52 286 l 1,287,-1
83 286 m 1,289,-1
 89 280 l 1,290,-1
 83 286 l 1,289,-1
58 280 m 1,291,-1
 64 273 l 1,292,-1
 58 280 l 1,291,-1
70 280 m 1,293,-1
 77 273 l 1,294,-1
 70 280 l 1,293,-1
77 280 m 1,295,-1
 83 273 l 1,296,-1
 77 280 l 1,295,-1
EndSplineSet
EndChar

StartChar: plus
Encoding: 43 43 14
Width: 385
GlyphClass: 2
Flags: W
LayerCount: 2
Fore
SplineSet
183 493 m 1,0,-1
 174 502 l 1,1,-1
 183 493 l 1,0,-1
173 371 m 1,2,3
 173 382 173 382 171 405 c 128,-1,4
 169 428 169 428 169 440 c 0,5,6
 169 488 169 488 191 493 c 0,7,8
 201 495 201 495 207 488.5 c 128,-1,9
 213 482 213 482 215 466 c 128,-1,10
 217 450 217 450 217.5 438.5 c 128,-1,11
 218 427 218 427 217.5 406.5 c 128,-1,12
 217 386 217 386 217 384 c 2,13,-1
 217 373 l 1,14,15
 226 373 226 373 251 374 c 128,-1,16
 276 375 276 375 286 374 c 128,-1,17
 296 373 296 373 312.5 370 c 128,-1,18
 329 367 329 367 338.5 359.5 c 128,-1,19
 348 352 348 352 355 339 c 1,20,21
 341 333 341 333 323 330 c 128,-1,22
 305 327 305 327 291.5 327 c 128,-1,23
 278 327 278 327 253.5 328 c 128,-1,24
 229 329 229 329 217 329 c 1,25,26
 217 316 217 316 220 273.5 c 128,-1,27
 223 231 223 231 222 210 c 0,28,29
 217 132 217 132 174 122 c 1,30,31
 167 150 167 150 167 185 c 128,-1,32
 167 220 167 220 170.5 264 c 128,-1,33
 174 308 174 308 174 330 c 1,34,-1
 61 330 l 2,35,36
 35 330 35 330 35 346 c 0,37,38
 35 375 35 375 95 375 c 2,39,-1
 118 375 l 2,40,41
 128 375 128 375 146.5 373.5 c 128,-1,42
 165 372 165 372 174 372 c 1,43,-1
 173 371 l 1,2,3
43 363 m 1,44,-1
 35 371 l 1,45,-1
 43 363 l 1,44,-1
346 363 m 1,46,-1
 337 371 l 1,47,-1
 346 363 l 1,46,-1
35 354 m 1,48,-1
 26 363 l 1,49,-1
 35 354 l 1,48,-1
354 354 m 1,50,-1
 346 363 l 1,51,-1
 354 354 l 1,50,-1
35 337 m 1,52,-1
 26 345 l 1,53,-1
 35 337 l 1,52,-1
354 328 m 1,54,-1
 346 337 l 1,55,-1
 354 328 l 1,54,-1
173 190 m 1,56,-1
 164 199 l 1,57,-1
 173 190 l 1,56,-1
216 164 m 1,58,-1
 207 173 l 1,59,-1
 216 164 l 1,58,-1
173 129 m 1,60,-1
 164 138 l 1,61,-1
 173 129 l 1,60,-1
199 129 m 1,62,-1
 207 121 l 1,63,-1
 199 129 l 1,62,-1
EndSplineSet
EndChar

StartChar: comma
Encoding: 44 44 15
Width: 208
GlyphClass: 2
Flags: W
LayerCount: 2
Fore
SplineSet
107 117 m 1,0,-1
 97 127 l 1,1,-1
 107 117 l 1,0,-1
88 34 m 2,2,3
 88 66 88 66 98 97 c 1,4,5
 98 111 98 111 110 117 c 128,-1,6
 122 123 122 123 137 116 c 0,7,8
 159 108 159 108 167 89 c 0,9,10
 169 82 169 82 170 75 c 128,-1,11
 171 68 171 68 170 60.5 c 128,-1,12
 169 53 169 53 168 48 c 128,-1,13
 167 43 167 43 163.5 34.5 c 128,-1,14
 160 26 160 26 158.5 23 c 128,-1,15
 157 20 157 20 152.5 11.5 c 128,-1,16
 148 3 148 3 147 1 c 0,17,18
 124 -44 124 -44 85 -88 c 0,19,20
 67 -108 67 -108 49 -118 c 1,21,-1
 51 -119 l 1,22,23
 43 -76 43 -76 66 -31 c 2,24,-1
 73 -16 l 2,25,26
 80 -1 80 -1 88 17 c 1,27,-1
 88 34 l 2,2,3
158 116 m 1,28,-1
 148 126 l 1,29,-1
 158 116 l 1,28,-1
99 106 m 1,30,-1
 90 116 l 1,31,-1
 99 106 l 1,30,-1
168 106 m 1,32,-1
 158 116 l 1,33,-1
 168 106 l 1,32,-1
178 87 m 1,34,-1
 168 97 l 1,35,-1
 178 87 l 1,34,-1
90 57 m 1,36,-1
 99 48 l 1,37,-1
 90 57 l 1,36,-1
178 48 m 1,38,-1
 168 57 l 1,39,-1
 178 48 l 1,38,-1
90 48 m 1,40,-1
 99 38 l 1,41,-1
 90 48 l 1,40,-1
178 38 m 1,42,-1
 168 48 l 1,43,-1
 178 38 l 1,42,-1
90 38 m 1,44,-1
 99 28 l 1,45,-1
 90 38 l 1,44,-1
168 28 m 1,46,-1
 158 38 l 1,47,-1
 168 28 l 1,46,-1
158 18 m 1,48,-1
 148 28 l 1,49,-1
 158 18 l 1,48,-1
90 9 m 1,50,-1
 80 18 l 1,51,-1
 90 9 l 1,50,-1
148 -1 m 1,52,-1
 139 9 l 1,53,-1
 148 -1 l 1,52,-1
129 -1 m 1,54,-1
 139 -11 l 1,55,-1
 129 -1 l 1,54,-1
80 -21 m 1,56,-1
 70 -11 l 1,57,-1
 80 -21 l 1,56,-1
70 -31 m 1,58,-1
 60 -21 l 1,59,-1
 70 -31 l 1,58,-1
119 -21 m 1,60,-1
 129 -31 l 1,61,-1
 119 -21 l 1,60,-1
129 -40 m 1,62,-1
 119 -31 l 1,63,-1
 129 -40 l 1,62,-1
60 -50 m 1,64,-1
 51 -40 l 1,65,-1
 60 -50 l 1,64,-1
119 -50 m 1,66,-1
 109 -40 l 1,67,-1
 119 -50 l 1,66,-1
109 -60 m 1,68,-1
 99 -50 l 1,69,-1
 109 -60 l 1,68,-1
51 -70 m 1,70,-1
 41 -60 l 1,71,-1
 51 -70 l 1,70,-1
109 -70 m 1,72,-1
 99 -60 l 1,73,-1
 109 -70 l 1,72,-1
99 -80 m 1,74,-1
 90 -70 l 1,75,-1
 99 -80 l 1,74,-1
41 -89 m 1,76,-1
 31 -80 l 1,77,-1
 41 -89 l 1,76,-1
99 -89 m 1,78,-1
 90 -80 l 1,79,-1
 99 -89 l 1,78,-1
41 -99 m 1,80,-1
 31 -89 l 1,81,-1
 41 -99 l 1,80,-1
90 -99 m 1,82,-1
 80 -89 l 1,83,-1
 90 -99 l 1,82,-1
41 -109 m 1,84,-1
 31 -99 l 1,85,-1
 41 -109 l 1,84,-1
90 -109 m 1,86,-1
 80 -99 l 1,87,-1
 90 -109 l 1,86,-1
51 -119 m 1,88,-1
 41 -109 l 1,89,-1
 51 -119 l 1,88,-1
70 -119 m 1,90,-1
 60 -109 l 1,91,-1
 70 -119 l 1,90,-1
80 -119 m 1,92,-1
 70 -109 l 1,93,-1
 80 -119 l 1,92,-1
EndSplineSet
EndChar

StartChar: hyphen
Encoding: 45 45 16
Width: 358
GlyphClass: 2
Flags: W
LayerCount: 2
Fore
SplineSet
38 286 m 1,0,-1
 45 278 l 1,1,-1
 38 286 l 1,0,-1
335 254 m 1,2,3
 298 246 298 246 254 246 c 2,4,-1
 150 246 l 2,5,6
 144 246 144 246 108 243 c 128,-1,7
 72 240 72 240 66 245 c 1,8,9
 58 245 58 245 50 252 c 128,-1,10
 42 259 42 259 42 268 c 0,11,12
 45 273 45 273 50 276 c 128,-1,13
 55 279 55 279 58.5 281 c 128,-1,14
 62 283 62 283 69.5 283.5 c 128,-1,15
 77 284 77 284 81 284 c 128,-1,16
 85 284 85 284 95 284 c 128,-1,17
 105 284 105 284 108 284 c 2,18,-1
 118 284 l 2,19,20
 133 284 133 284 173.5 287 c 128,-1,21
 214 290 214 290 232 290 c 0,22,23
 308 290 308 290 330 255 c 1,24,-1
 335 254 l 1,2,3
320 285 m 1,25,-1
 328 277 l 1,26,-1
 320 285 l 1,25,-1
35 277 m 1,27,-1
 43 269 l 1,28,-1
 35 277 l 1,27,-1
328 277 m 1,29,-1
 335 269 l 1,30,-1
 328 277 l 1,29,-1
35 262 m 1,31,-1
 43 254 l 1,32,-1
 35 262 l 1,31,-1
328 254 m 1,33,-1
 335 246 l 1,34,-1
 328 254 l 1,33,-1
EndSplineSet
EndChar

StartChar: period
Encoding: 46 46 17
Width: 184
GlyphClass: 2
Flags: W
LayerCount: 2
Fore
SplineSet
67 128 m 1,0,-1
 54 140 l 1,1,-1
 67 128 l 1,0,-1
156 62 m 0,2,3
 156 20 156 20 131 1 c 1,4,5
 90 -22 90 -22 60 0 c 128,-1,6
 30 22 30 22 30 66 c 0,7,8
 30 109 30 109 67 128 c 1,9,-1
 68 131 l 1,10,11
 104 148 104 148 130 125 c 128,-1,12
 156 102 156 102 156 62 c 0,2,3
145 131 m 1,13,-1
 132 143 l 1,14,-1
 145 131 l 1,13,-1
55 118 m 1,15,-1
 42 131 l 1,16,-1
 55 118 l 1,15,-1
158 118 m 1,17,-1
 145 131 l 1,18,-1
 158 118 l 1,17,-1
42 105 m 1,19,-1
 29 118 l 1,20,-1
 42 105 l 1,19,-1
42 2 m 1,21,-1
 29 15 l 1,22,-1
 42 2 l 1,21,-1
158 2 m 1,23,-1
 145 15 l 1,24,-1
 158 2 l 1,23,-1
145 -11 m 1,25,-1
 132 2 l 1,26,-1
 145 -11 l 1,25,-1
EndSplineSet
EndChar

StartChar: slash
Encoding: 47 47 18
Width: 373
GlyphClass: 2
Flags: W
LayerCount: 2
Fore
SplineSet
293 606 m 1,0,-1
 280 619 l 1,1,-1
 293 606 l 1,0,-1
36 -3 m 1,2,3
 33 11 33 11 33 25.5 c 128,-1,4
 33 40 33 40 34.5 51 c 128,-1,5
 36 62 36 62 40 74.5 c 128,-1,6
 44 87 44 87 47.5 96 c 128,-1,7
 51 105 51 105 56.5 118.5 c 128,-1,8
 62 132 62 132 65 140 c 0,9,10
 83 188 83 188 104 239 c 2,11,-1
 139 320 l 2,12,13
 182 420 182 420 224 500 c 0,14,15
 227 507 227 507 233.5 521.5 c 128,-1,16
 240 536 240 536 246 546.5 c 128,-1,17
 252 557 252 557 259 566 c 0,18,19
 276 589 276 589 294 599.5 c 128,-1,20
 312 610 312 610 341 605 c 1,21,22
 328 549 328 549 303 495 c 128,-1,23
 278 441 278 441 239.5 374 c 128,-1,24
 201 307 201 307 186 277 c 0,25,26
 142 192 142 192 123 116 c 0,27,28
 101 20 101 20 41 1 c 1,29,-1
 36 -3 l 1,2,3
275 577 m 1,30,-1
 263 590 l 1,31,-1
 275 577 l 1,30,-1
338 565 m 1,32,-1
 325 577 l 1,33,-1
 338 565 l 1,32,-1
325 565 m 1,34,-1
 338 552 l 1,35,-1
 325 565 l 1,34,-1
263 540 m 1,36,-1
 250 552 l 1,37,-1
 263 540 l 1,36,-1
250 527 m 1,38,-1
 238 540 l 1,39,-1
 250 527 l 1,38,-1
325 527 m 1,40,-1
 313 540 l 1,41,-1
 325 527 l 1,40,-1
238 515 m 1,42,-1
 225 527 l 1,43,-1
 238 515 l 1,42,-1
313 502 m 1,44,-1
 300 515 l 1,45,-1
 313 502 l 1,44,-1
300 488 m 1,46,-1
 288 502 l 1,47,-1
 300 488 l 1,46,-1
225 476 m 1,48,-1
 212 488 l 1,49,-1
 225 476 l 1,48,-1
288 463 m 1,50,-1
 275 476 l 1,51,-1
 288 463 l 1,50,-1
212 451 m 1,52,-1
 200 463 l 1,53,-1
 212 451 l 1,52,-1
275 438 m 1,54,-1
 263 451 l 1,55,-1
 275 438 l 1,54,-1
200 426 m 1,56,-1
 187 438 l 1,57,-1
 200 426 l 1,56,-1
263 413 m 1,58,-1
 250 426 l 1,59,-1
 263 413 l 1,58,-1
187 400 m 1,60,-1
 175 413 l 1,61,-1
 187 400 l 1,60,-1
250 388 m 1,62,-1
 238 400 l 1,63,-1
 250 388 l 1,62,-1
175 363 m 1,64,-1
 162 375 l 1,65,-1
 175 363 l 1,64,-1
162 350 m 1,66,-1
 150 363 l 1,67,-1
 162 350 l 1,66,-1
238 350 m 1,68,-1
 225 363 l 1,69,-1
 238 350 l 1,68,-1
150 325 m 1,70,-1
 136 338 l 1,71,-1
 150 325 l 1,70,-1
225 325 m 1,72,-1
 212 338 l 1,73,-1
 225 325 l 1,72,-1
212 313 m 1,74,-1
 200 325 l 1,75,-1
 212 313 l 1,74,-1
136 287 m 1,76,-1
 123 300 l 1,77,-1
 136 287 l 1,76,-1
200 275 m 1,78,-1
 187 287 l 1,79,-1
 200 275 l 1,78,-1
123 261 m 1,80,-1
 111 275 l 1,81,-1
 123 261 l 1,80,-1
111 249 m 1,82,-1
 98 261 l 1,83,-1
 111 249 l 1,82,-1
187 249 m 1,84,-1
 175 261 l 1,85,-1
 187 249 l 1,84,-1
98 224 m 1,86,-1
 86 236 l 1,87,-1
 98 224 l 1,86,-1
175 224 m 1,88,-1
 162 236 l 1,89,-1
 175 224 l 1,88,-1
162 211 m 1,90,-1
 150 224 l 1,91,-1
 162 211 l 1,90,-1
86 173 m 1,92,-1
 73 186 l 1,93,-1
 86 173 l 1,92,-1
150 161 m 1,94,-1
 136 173 l 1,95,-1
 150 161 l 1,94,-1
73 148 m 1,96,-1
 61 161 l 1,97,-1
 73 148 l 1,96,-1
136 136 m 1,98,-1
 123 148 l 1,99,-1
 136 136 l 1,98,-1
136 123 m 1,100,-1
 123 136 l 1,101,-1
 136 123 l 1,100,-1
61 111 m 1,102,-1
 48 123 l 1,103,-1
 61 111 l 1,102,-1
48 98 m 1,104,-1
 36 111 l 1,105,-1
 48 98 l 1,104,-1
123 86 m 1,106,-1
 111 98 l 1,107,-1
 123 86 l 1,106,-1
123 73 m 1,108,-1
 111 86 l 1,109,-1
 123 73 l 1,108,-1
36 60 m 1,110,-1
 23 73 l 1,111,-1
 36 60 l 1,110,-1
111 60 m 1,112,-1
 98 73 l 1,113,-1
 111 60 l 1,112,-1
98 22 m 1,114,-1
 86 35 l 1,115,-1
 98 22 l 1,114,-1
36 9 m 1,116,-1
 23 22 l 1,117,-1
 36 9 l 1,116,-1
73 9 m 1,118,-1
 86 -3 l 1,119,-1
 73 9 l 1,118,-1
EndSplineSet
EndChar

StartChar: zero
Encoding: 48 48 19
Width: 409
GlyphClass: 2
Flags: W
LayerCount: 2
Fore
SplineSet
215 606 m 1,0,-1
 201 620 l 1,1,-1
 215 606 l 1,0,-1
348 172 m 2,2,-1
 348 153 l 2,3,4
 348 66 348 66 296 37 c 1,5,6
 212 3 212 3 142 24 c 0,7,8
 61 46 61 46 41 132 c 0,9,10
 18 251 18 251 63 394 c 0,11,12
 85 465 85 465 123.5 521.5 c 128,-1,13
 162 578 162 578 215 606 c 1,14,-1
 211 603 l 1,15,16
 260 623 260 623 306.5 596 c 128,-1,17
 353 569 353 569 362 525 c 0,18,19
 375 453 375 453 372 409.5 c 128,-1,20
 369 366 369 366 358.5 290 c 128,-1,21
 348 214 348 214 348 172 c 2,2,-1
292 603 m 1,22,-1
 279 617 l 1,23,-1
 292 603 l 1,22,-1
197 590 m 1,24,-1
 184 603 l 1,25,-1
 197 590 l 1,24,-1
320 590 m 1,26,-1
 306 603 l 1,27,-1
 320 590 l 1,26,-1
333 577 m 1,28,-1
 320 590 l 1,29,-1
 333 577 l 1,28,-1
184 562 m 1,30,-1
 171 577 l 1,31,-1
 184 562 l 1,30,-1
346 562 m 1,32,-1
 333 577 l 1,33,-1
 346 562 l 1,32,-1
157 562 m 1,34,-1
 171 549 l 1,35,-1
 157 562 l 1,34,-1
360 549 m 1,36,-1
 346 562 l 1,37,-1
 360 549 l 1,36,-1
157 536 m 1,38,-1
 143 549 l 1,39,-1
 157 536 l 1,38,-1
251 549 m 1,40,-1
 266 536 l 1,41,-1
 251 549 l 1,40,-1
143 523 m 1,42,-1
 130 536 l 1,43,-1
 143 523 l 1,42,-1
224 508 m 2,44,45
 226 510 226 510 229 513 c 128,-1,46
 232 516 232 516 233 516.5 c 128,-1,47
 234 517 234 517 235.5 519.5 c 128,-1,48
 237 522 237 522 237 524 c 128,-1,49
 237 526 237 526 237.5 529 c 128,-1,50
 238 532 238 532 238 536 c 2,51,-1
 224 508 l 2,44,45
284 276 m 2,52,53
 284 318 284 318 291 362 c 1,54,-1
 291 404 l 2,55,56
 291 483 291 483 278 536 c 1,57,-1
 281 535 l 1,58,59
 188 494 188 494 127 359 c 0,60,61
 109 317 109 317 100.5 267.5 c 128,-1,62
 92 218 92 218 103 168 c 128,-1,63
 114 118 114 118 150 99 c 0,64,65
 172 88 172 88 197 86.5 c 128,-1,66
 222 85 222 85 246 95 c 0,67,68
 268 105 268 105 279 131 c 1,69,70
 284 164 284 164 284 186 c 2,71,-1
 284 276 l 2,52,53
132 507 m 1,72,-1
 118 522 l 1,73,-1
 132 507 l 1,72,-1
118 481 m 1,74,-1
 105 494 l 1,75,-1
 118 481 l 1,74,-1
199 494 m 1,76,-1
 213 481 l 1,77,-1
 199 494 l 1,76,-1
186 481 m 1,78,-1
 199 467 l 1,79,-1
 186 481 l 1,78,-1
105 453 m 1,80,-1
 91 467 l 1,81,-1
 105 453 l 1,80,-1
173 453 m 1,82,-1
 186 440 l 1,83,-1
 173 453 l 1,82,-1
91 426 m 1,84,-1
 77 440 l 1,85,-1
 91 426 l 1,84,-1
159 440 m 1,86,-1
 173 426 l 1,87,-1
 159 440 l 1,86,-1
77 399 m 1,88,-1
 64 413 l 1,89,-1
 77 399 l 1,88,-1
145 399 m 1,90,-1
 159 386 l 1,91,-1
 145 399 l 1,90,-1
64 359 m 1,92,-1
 51 372 l 1,93,-1
 64 359 l 1,92,-1
132 372 m 1,94,-1
 145 359 l 1,95,-1
 132 372 l 1,94,-1
118 359 m 1,96,-1
 132 345 l 1,97,-1
 118 359 l 1,96,-1
51 331 m 1,98,-1
 38 345 l 1,99,-1
 51 331 l 1,98,-1
118 345 m 1,100,-1
 132 331 l 1,101,-1
 118 345 l 1,100,-1
281 345 m 1,102,-1
 294 331 l 1,103,-1
 281 345 l 1,102,-1
105 331 m 1,104,-1
 118 318 l 1,105,-1
 105 331 l 1,104,-1
105 318 m 1,106,-1
 118 305 l 1,107,-1
 105 318 l 1,106,-1
362 290 m 1,108,-1
 348 305 l 1,109,-1
 362 290 l 1,108,-1
105 128 m 1,110,-1
 118 115 l 1,111,-1
 105 128 l 1,110,-1
118 115 m 1,112,-1
 132 101 l 1,113,-1
 118 115 l 1,112,-1
51 88 m 1,114,-1
 38 101 l 1,115,-1
 51 88 l 1,114,-1
145 101 m 1,116,-1
 159 88 l 1,117,-1
 145 101 l 1,116,-1
253 101 m 1,118,-1
 268 88 l 1,119,-1
 253 101 l 1,118,-1
159 88 m 1,120,-1
 173 74 l 1,121,-1
 159 88 l 1,120,-1
227 88 m 1,122,-1
 240 74 l 1,123,-1
 227 88 l 1,122,-1
348 47 m 1,124,-1
 335 60 l 1,125,-1
 348 47 l 1,124,-1
91 34 m 1,126,-1
 77 47 l 1,127,-1
 91 34 l 1,126,-1
105 34 m 1,128,-1
 91 47 l 1,129,-1
 105 34 l 1,128,-1
308 34 m 1,130,-1
 294 47 l 1,131,-1
 308 34 l 1,130,-1
322 34 m 1,132,-1
 308 47 l 1,133,-1
 322 34 l 1,132,-1
281 19 m 1,134,-1
 268 34 l 1,135,-1
 281 19 l 1,134,-1
294 19 m 1,136,-1
 281 34 l 1,137,-1
 294 19 l 1,136,-1
145 6 m 1,138,-1
 132 19 l 1,139,-1
 145 6 l 1,138,-1
159 6 m 1,140,-1
 145 19 l 1,141,-1
 159 6 l 1,140,-1
253 6 m 1,142,-1
 240 19 l 1,143,-1
 253 6 l 1,142,-1
268 6 m 1,144,-1
 253 19 l 1,145,-1
 268 6 l 1,144,-1
EndSplineSet
EndChar

StartChar: one
Encoding: 49 49 20
Width: 341
GlyphClass: 2
Flags: W
LayerCount: 2
Fore
SplineSet
199 551 m 2,0,1
 199 545 199 545 198 531 c 128,-1,2
 197 517 197 517 197 511 c 2,3,-1
 197 496 l 2,4,5
 197 456 197 456 206.5 346.5 c 128,-1,6
 216 237 216 237 211 176 c 0,7,8
 206 122 206 122 184 74 c 1,9,-1
 224 74 l 2,10,11
 277 74 277 74 313 28 c 1,12,13
 269 11 269 11 195 7.5 c 128,-1,14
 121 4 121 4 66 15 c 1,15,16
 22 30 22 30 63 54 c 0,17,18
 96 74 96 74 125 74 c 1,19,20
 130 100 130 100 134 127 c 2,21,-1
 142 181 l 1,22,23
 168 384 168 384 125 507 c 1,24,25
 116 481 116 481 104 469.5 c 128,-1,26
 92 458 92 458 65 449 c 1,27,-1
 63 451 l 1,28,29
 55 495 55 495 70 533 c 128,-1,30
 85 571 85 571 111 616 c 0,31,32
 118 629 118 629 130 640 c 128,-1,33
 142 651 142 651 157 653 c 128,-1,34
 172 655 172 655 184 638 c 0,35,36
 199 623 199 623 199 572 c 2,37,-1
 199 551 l 2,0,1
122 650 m 1,38,-1
 134 638 l 1,39,-1
 122 650 l 1,38,-1
110 627 m 1,40,-1
 122 615 l 1,41,-1
 110 627 l 1,40,-1
99 603 m 1,42,-1
 110 592 l 1,43,-1
 99 603 l 1,42,-1
87 580 m 1,44,-1
 99 568 l 1,45,-1
 87 580 l 1,44,-1
75 568 m 1,46,-1
 87 556 l 1,47,-1
 75 568 l 1,46,-1
63 545 m 1,48,-1
 75 533 l 1,49,-1
 63 545 l 1,48,-1
63 509 m 1,50,-1
 52 521 l 1,51,-1
 63 509 l 1,50,-1
134 498 m 1,52,-1
 122 509 l 1,53,-1
 134 498 l 1,52,-1
110 486 m 1,54,-1
 122 474 l 1,55,-1
 110 486 l 1,54,-1
52 474 m 1,56,-1
 63 463 l 1,57,-1
 52 474 l 1,56,-1
99 463 m 1,58,-1
 110 451 l 1,59,-1
 99 463 l 1,58,-1
192 451 m 1,60,-1
 204 439 l 1,61,-1
 192 451 l 1,60,-1
134 439 m 1,62,-1
 145 428 l 1,63,-1
 134 439 l 1,62,-1
134 158 m 1,64,-1
 145 147 l 1,65,-1
 134 158 l 1,64,-1
122 123 m 1,66,-1
 134 112 l 1,67,-1
 122 123 l 1,66,-1
192 123 m 1,68,-1
 204 112 l 1,69,-1
 192 123 l 1,68,-1
181 88 m 1,70,-1
 192 76 l 1,71,-1
 181 88 l 1,70,-1
40 76 m 1,72,-1
 52 65 l 1,73,-1
 40 76 l 1,72,-1
286 76 m 1,74,-1
 298 65 l 1,75,-1
 286 76 l 1,74,-1
28 65 m 1,76,-1
 40 53 l 1,77,-1
 28 65 l 1,76,-1
298 65 m 1,78,-1
 309 53 l 1,79,-1
 298 65 l 1,78,-1
28 41 m 1,80,-1
 40 29 l 1,81,-1
 28 41 l 1,80,-1
309 18 m 1,82,-1
 298 29 l 1,83,-1
 309 18 l 1,82,-1
EndSplineSet
EndChar

StartChar: two
Encoding: 50 50 21
Width: 553
GlyphClass: 2
Flags: W
LayerCount: 2
Fore
SplineSet
232 617 m 1,0,-1
 220 630 l 1,1,-1
 232 617 l 1,0,-1
328 8 m 0,2,3
 251 8 251 8 147 21 c 0,4,5
 138 21 138 21 120 24 c 2,6,-1
 102 28 l 2,7,8
 79 33 79 33 62.5 47.5 c 128,-1,9
 46 62 46 62 52 83 c 0,10,11
 55 92 55 92 60.5 99.5 c 128,-1,12
 66 107 66 107 76.5 114 c 128,-1,13
 87 121 87 121 93.5 124.5 c 128,-1,14
 100 128 100 128 114 134.5 c 128,-1,15
 128 141 128 141 131 143 c 0,16,17
 147 150 147 150 161 155 c 0,18,19
 177 164 177 164 194 174 c 2,20,-1
 232 197 l 2,21,22
 327 255 327 255 362 318 c 0,23,24
 383 356 383 356 379 400 c 1,25,26
 368 438 368 438 363.5 454 c 128,-1,27
 359 470 359 470 346.5 497.5 c 128,-1,28
 334 525 334 525 320 540 c 0,29,30
 303 558 303 558 281 558 c 0,31,32
 267 558 267 558 254 554.5 c 128,-1,33
 241 551 241 551 223.5 543 c 128,-1,34
 206 535 206 535 203 534 c 0,35,36
 177 527 177 527 164.5 532.5 c 128,-1,37
 152 538 152 538 136 557 c 1,38,-1
 134 550 l 1,39,40
 150 558 150 558 168 571 c 2,41,-1
 201 595 l 2,42,43
 240 623 240 623 279 623 c 0,44,45
 331 623 331 623 367.5 592.5 c 128,-1,46
 404 562 404 562 420.5 516 c 128,-1,47
 437 470 437 470 437 414 c 0,48,49
 437 360 437 360 424 321 c 1,50,51
 415 276 415 276 391.5 244 c 128,-1,52
 368 212 368 212 330 182 c 0,53,54
 304 162 304 162 253.5 129 c 128,-1,55
 203 96 203 96 181 80 c 1,56,57
 206 80 206 80 266 84.5 c 128,-1,58
 326 89 326 89 359 88 c 0,59,60
 481 83 481 83 510 31 c 1,61,62
 443 8 443 8 328 8 c 0,2,3
352 610 m 1,63,-1
 339 623 l 1,64,-1
 352 610 l 1,63,-1
207 599 m 1,65,-1
 194 610 l 1,66,-1
 207 599 l 1,65,-1
194 587 m 1,67,-1
 181 599 l 1,68,-1
 194 587 l 1,67,-1
145 550 m 1,69,-1
 134 563 l 1,70,-1
 145 550 l 1,69,-1
243 538 m 1,71,-1
 230 550 l 1,72,-1
 243 538 l 1,71,-1
254 538 m 1,73,-1
 243 550 l 1,74,-1
 254 538 l 1,73,-1
328 538 m 1,75,-1
 316 550 l 1,76,-1
 328 538 l 1,75,-1
134 538 m 1,77,-1
 145 525 l 1,78,-1
 134 538 l 1,77,-1
425 525 m 1,79,-1
 412 538 l 1,80,-1
 425 525 l 1,79,-1
230 514 m 1,81,-1
 218 525 l 1,82,-1
 230 514 l 1,81,-1
352 501 m 1,83,-1
 339 514 l 1,84,-1
 352 501 l 1,83,-1
437 429 m 1,85,-1
 425 441 l 1,86,-1
 437 429 l 1,85,-1
352 307 m 1,87,-1
 339 320 l 1,88,-1
 352 307 l 1,87,-1
437 294 m 1,89,-1
 425 307 l 1,90,-1
 437 294 l 1,89,-1
425 283 m 1,91,-1
 412 294 l 1,92,-1
 425 283 l 1,91,-1
339 271 m 1,93,-1
 328 283 l 1,94,-1
 339 271 l 1,93,-1
328 258 m 1,95,-1
 316 271 l 1,96,-1
 328 258 l 1,95,-1
412 258 m 1,97,-1
 401 271 l 1,98,-1
 412 258 l 1,97,-1
316 247 m 1,99,-1
 303 258 l 1,100,-1
 316 247 l 1,99,-1
412 247 m 1,101,-1
 401 258 l 1,102,-1
 412 247 l 1,101,-1
303 234 m 1,103,-1
 292 247 l 1,104,-1
 303 234 l 1,103,-1
401 234 m 1,105,-1
 388 247 l 1,106,-1
 401 234 l 1,105,-1
292 222 m 1,107,-1
 279 234 l 1,108,-1
 292 222 l 1,107,-1
388 222 m 1,109,-1
 376 234 l 1,110,-1
 388 222 l 1,109,-1
218 173 m 1,111,-1
 207 185 l 1,112,-1
 218 173 l 1,111,-1
352 173 m 1,113,-1
 339 185 l 1,114,-1
 352 173 l 1,113,-1
194 162 m 1,115,-1
 181 173 l 1,116,-1
 194 162 l 1,115,-1
339 162 m 1,117,-1
 328 173 l 1,118,-1
 339 162 l 1,117,-1
158 149 m 1,119,-1
 145 162 l 1,120,-1
 158 149 l 1,119,-1
328 149 m 1,121,-1
 316 162 l 1,122,-1
 328 149 l 1,121,-1
145 136 m 1,123,-1
 134 149 l 1,124,-1
 145 136 l 1,123,-1
303 136 m 1,125,-1
 292 149 l 1,126,-1
 303 136 l 1,125,-1
121 136 m 1,127,-1
 134 125 l 1,128,-1
 121 136 l 1,127,-1
292 125 m 1,129,-1
 279 136 l 1,130,-1
 292 125 l 1,129,-1
96 125 m 1,131,-1
 109 113 l 1,132,-1
 96 125 l 1,131,-1
254 113 m 1,133,-1
 243 125 l 1,134,-1
 254 113 l 1,133,-1
218 113 m 1,135,-1
 230 100 l 1,136,-1
 218 113 l 1,135,-1
49 100 m 1,137,-1
 60 89 l 1,138,-1
 49 100 l 1,137,-1
194 100 m 1,139,-1
 207 89 l 1,140,-1
 194 100 l 1,139,-1
36 89 m 1,141,-1
 49 76 l 1,142,-1
 36 89 l 1,141,-1
194 76 m 1,143,-1
 181 89 l 1,144,-1
 194 76 l 1,143,-1
486 76 m 1,145,-1
 497 64 l 1,146,-1
 486 76 l 1,145,-1
497 64 m 1,147,-1
 510 51 l 1,148,-1
 497 64 l 1,147,-1
36 51 m 1,149,-1
 49 40 l 1,150,-1
 36 51 l 1,149,-1
96 27 m 1,151,-1
 109 15 l 1,152,-1
 96 27 l 1,151,-1
109 27 m 1,153,-1
 121 15 l 1,154,-1
 109 27 l 1,153,-1
497 27 m 1,155,-1
 510 15 l 1,156,-1
 497 27 l 1,155,-1
EndSplineSet
EndChar

StartChar: three
Encoding: 51 51 22
Width: 544
GlyphClass: 2
Flags: W
LayerCount: 2
Fore
SplineSet
101 629 m 1,0,-1
 114 616 l 1,1,-1
 101 629 l 1,0,-1
262 626 m 2,2,3
 272 626 272 626 291.5 625 c 128,-1,4
 311 624 311 624 320 624 c 2,5,-1
 346 624 l 2,6,7
 381 624 381 624 411 599 c 1,8,9
 420 580 420 580 409 553 c 0,10,11
 397 521 397 521 357.5 468 c 128,-1,12
 318 415 318 415 308 397 c 1,13,14
 317 397 317 397 327 396 c 128,-1,15
 337 395 337 395 344.5 393.5 c 128,-1,16
 352 392 352 392 362.5 388.5 c 128,-1,17
 373 385 373 385 378 383.5 c 128,-1,18
 383 382 383 382 395 377.5 c 128,-1,19
 407 373 407 373 410 372 c 0,20,21
 463 341 463 341 490.5 289 c 128,-1,22
 518 237 518 237 496 172 c 0,23,24
 477 114 477 114 429 73 c 128,-1,25
 381 32 381 32 317 19 c 0,26,27
 280 11 280 11 223 31 c 0,28,29
 202 38 202 38 166 56.5 c 128,-1,30
 130 75 130 75 121 79 c 0,31,32
 85 95 85 95 65 112 c 128,-1,33
 45 129 45 129 38 160 c 1,34,35
 75 164 75 164 107 151 c 0,36,37
 138 137 138 137 170 121 c 0,38,39
 201 104 201 104 233 91 c 0,40,41
 264 77 264 77 302 82 c 1,42,43
 339 91 339 91 371.5 115 c 128,-1,44
 404 139 404 139 420 170 c 0,45,46
 446 220 446 220 420.5 265.5 c 128,-1,47
 395 311 395 311 344 322 c 0,48,49
 326 326 326 326 293 330 c 128,-1,50
 260 334 260 334 238.5 340.5 c 128,-1,51
 217 347 217 347 201 363 c 1,52,53
 230 398 230 398 270 476.5 c 128,-1,54
 310 555 310 555 316 565 c 1,55,-1
 227 565 l 1,56,-1
 179 558 l 1,57,58
 147 558 147 558 120 576 c 0,59,60
 89 595 89 595 129 610 c 1,61,62
 158 626 158 626 232 626 c 2,63,-1
 262 626 l 2,2,3
395 622 m 1,64,-1
 408 609 l 1,65,-1
 395 622 l 1,64,-1
90 609 m 1,66,-1
 103 597 l 1,67,-1
 90 609 l 1,66,-1
408 609 m 1,68,-1
 420 597 l 1,69,-1
 408 609 l 1,68,-1
90 584 m 1,70,-1
 103 571 l 1,71,-1
 90 584 l 1,70,-1
318 546 m 1,72,-1
 305 558 l 1,73,-1
 318 546 l 1,72,-1
408 558 m 1,74,-1
 420 546 l 1,75,-1
 408 558 l 1,74,-1
395 546 m 1,76,-1
 408 533 l 1,77,-1
 395 546 l 1,76,-1
293 533 m 1,78,-1
 305 520 l 1,79,-1
 293 533 l 1,78,-1
382 533 m 1,80,-1
 395 520 l 1,81,-1
 382 533 l 1,80,-1
369 520 m 1,82,-1
 382 507 l 1,83,-1
 369 520 l 1,82,-1
280 507 m 1,84,-1
 293 495 l 1,85,-1
 280 507 l 1,84,-1
356 495 m 1,86,-1
 369 482 l 1,87,-1
 356 495 l 1,86,-1
267 482 m 1,88,-1
 280 471 l 1,89,-1
 267 482 l 1,88,-1
344 471 m 1,90,-1
 356 458 l 1,91,-1
 344 471 l 1,90,-1
254 458 m 1,92,-1
 267 445 l 1,93,-1
 254 458 l 1,92,-1
331 458 m 1,94,-1
 344 445 l 1,95,-1
 331 458 l 1,94,-1
318 445 m 1,96,-1
 331 432 l 1,97,-1
 318 445 l 1,96,-1
242 432 m 1,98,-1
 254 420 l 1,99,-1
 242 432 l 1,98,-1
318 432 m 1,100,-1
 331 420 l 1,101,-1
 318 432 l 1,100,-1
305 420 m 1,102,-1
 318 407 l 1,103,-1
 305 420 l 1,102,-1
229 407 m 1,104,-1
 242 394 l 1,105,-1
 229 407 l 1,104,-1
318 394 m 1,106,-1
 305 407 l 1,107,-1
 318 394 l 1,106,-1
356 394 m 1,108,-1
 369 381 l 1,109,-1
 356 394 l 1,108,-1
229 369 m 1,110,-1
 216 381 l 1,111,-1
 229 369 l 1,110,-1
395 369 m 1,112,-1
 382 381 l 1,113,-1
 395 369 l 1,112,-1
203 369 m 1,114,-1
 216 356 l 1,115,-1
 203 369 l 1,114,-1
420 356 m 1,116,-1
 408 369 l 1,117,-1
 420 356 l 1,116,-1
446 343 m 1,118,-1
 433 356 l 1,119,-1
 446 343 l 1,118,-1
203 343 m 1,120,-1
 216 330 l 1,121,-1
 203 343 l 1,120,-1
216 330 m 1,122,-1
 229 317 l 1,123,-1
 216 330 l 1,122,-1
267 330 m 1,124,-1
 280 317 l 1,125,-1
 267 330 l 1,124,-1
471 317 m 1,126,-1
 459 330 l 1,127,-1
 471 317 l 1,126,-1
356 317 m 1,128,-1
 369 305 l 1,129,-1
 356 317 l 1,128,-1
382 305 m 1,130,-1
 369 317 l 1,131,-1
 382 305 l 1,130,-1
471 317 m 1,132,-1
 484 305 l 1,133,-1
 471 317 l 1,132,-1
395 292 m 1,134,-1
 382 305 l 1,135,-1
 395 292 l 1,134,-1
395 305 m 1,136,-1
 408 292 l 1,137,-1
 395 305 l 1,136,-1
484 305 m 1,138,-1
 497 292 l 1,139,-1
 484 305 l 1,138,-1
408 292 m 1,140,-1
 420 279 l 1,141,-1
 408 292 l 1,140,-1
497 266 m 1,142,-1
 510 254 l 1,143,-1
 497 266 l 1,142,-1
433 241 m 1,144,-1
 446 228 l 1,145,-1
 433 241 l 1,144,-1
433 190 m 1,146,-1
 446 177 l 1,147,-1
 433 190 l 1,146,-1
39 164 m 1,148,-1
 52 153 l 1,149,-1
 39 164 l 1,148,-1
433 153 m 1,150,-1
 420 164 l 1,151,-1
 433 153 l 1,150,-1
116 153 m 1,152,-1
 128 140 l 1,153,-1
 116 153 l 1,152,-1
408 153 m 1,154,-1
 420 140 l 1,155,-1
 408 153 l 1,154,-1
497 153 m 1,156,-1
 510 140 l 1,157,-1
 497 153 l 1,156,-1
141 140 m 1,158,-1
 154 128 l 1,159,-1
 141 140 l 1,158,-1
395 140 m 1,160,-1
 408 128 l 1,161,-1
 395 140 l 1,160,-1
39 128 m 1,162,-1
 52 115 l 1,163,-1
 39 128 l 1,162,-1
167 128 m 1,164,-1
 179 115 l 1,165,-1
 167 128 l 1,164,-1
382 128 m 1,166,-1
 395 115 l 1,167,-1
 382 128 l 1,166,-1
484 128 m 1,168,-1
 497 115 l 1,169,-1
 484 128 l 1,168,-1
192 115 m 1,170,-1
 203 102 l 1,171,-1
 192 115 l 1,170,-1
369 115 m 1,172,-1
 382 102 l 1,173,-1
 369 115 l 1,172,-1
471 115 m 1,174,-1
 484 102 l 1,175,-1
 471 115 l 1,174,-1
229 102 m 1,176,-1
 242 89 l 1,177,-1
 229 102 l 1,176,-1
344 102 m 1,178,-1
 356 89 l 1,179,-1
 344 102 l 1,178,-1
459 102 m 1,180,-1
 471 89 l 1,181,-1
 459 102 l 1,180,-1
103 77 m 1,182,-1
 90 89 l 1,183,-1
 103 77 l 1,182,-1
103 89 m 1,184,-1
 116 77 l 1,185,-1
 103 89 l 1,184,-1
242 89 m 1,186,-1
 254 77 l 1,187,-1
 242 89 l 1,186,-1
318 89 m 1,188,-1
 331 77 l 1,189,-1
 318 89 l 1,188,-1
116 77 m 1,190,-1
 128 64 l 1,191,-1
 116 77 l 1,190,-1
433 77 m 1,192,-1
 446 64 l 1,193,-1
 433 77 l 1,192,-1
420 64 m 1,194,-1
 433 51 l 1,195,-1
 420 64 l 1,194,-1
179 38 m 1,196,-1
 167 51 l 1,197,-1
 179 38 l 1,196,-1
179 51 m 1,198,-1
 192 38 l 1,199,-1
 179 51 l 1,198,-1
382 51 m 1,200,-1
 395 38 l 1,201,-1
 382 51 l 1,200,-1
395 51 m 1,202,-1
 408 38 l 1,203,-1
 395 51 l 1,202,-1
356 38 m 1,204,-1
 369 26 l 1,205,-1
 356 38 l 1,204,-1
369 38 m 1,206,-1
 382 26 l 1,207,-1
 369 38 l 1,206,-1
216 26 m 1,208,-1
 229 13 l 1,209,-1
 216 26 l 1,208,-1
229 26 m 1,210,-1
 242 13 l 1,211,-1
 229 26 l 1,210,-1
331 26 m 1,212,-1
 344 13 l 1,213,-1
 331 26 l 1,212,-1
356 13 m 1,214,-1
 344 26 l 1,215,-1
 356 13 l 1,214,-1
EndSplineSet
EndChar

StartChar: four
Encoding: 52 52 23
Width: 326
GlyphClass: 2
Flags: W
LayerCount: 2
Fore
SplineSet
220 626 m 1,0,-1
 208 638 l 1,1,-1
 220 626 l 1,0,-1
246 627 m 0,2,3
 263 623 263 623 273.5 612.5 c 128,-1,4
 284 602 284 602 288 583 c 128,-1,5
 292 564 292 564 293 550 c 128,-1,6
 294 536 294 536 294 510 c 0,7,8
 294 503 294 503 294 500 c 2,9,-1
 294 484 l 2,10,11
 294 424 294 424 288 312.5 c 128,-1,12
 282 201 282 201 282 142 c 2,13,-1
 282 121 l 2,14,15
 282 76 282 76 268 50.5 c 128,-1,16
 254 25 254 25 222 12 c 1,17,18
 208 60 208 60 208 116 c 0,19,20
 208 213 208 213 232 296 c 1,21,-1
 233 292 l 1,22,23
 114 292 114 292 67 303 c 1,24,25
 49 303 49 303 36 319.5 c 128,-1,26
 23 336 23 336 33 353 c 1,27,28
 33 378 33 378 65 399 c 2,29,-1
 92 417 l 2,30,31
 107 427 107 427 115 435 c 0,32,33
 133 460 133 460 189 561 c 2,34,-1
 199 579 l 2,35,36
 204 588 204 588 209 596 c 2,37,-1
 219 612 l 2,38,39
 229 627 229 627 246 627 c 0,2,3
280 610 m 1,40,-1
 268 622 l 1,41,-1
 280 610 l 1,40,-1
292 599 m 1,42,-1
 280 610 l 1,43,-1
 292 599 l 1,42,-1
209 587 m 1,44,-1
 197 599 l 1,45,-1
 209 587 l 1,44,-1
197 563 m 1,46,-1
 185 575 l 1,47,-1
 197 563 l 1,46,-1
185 540 m 1,48,-1
 173 551 l 1,49,-1
 185 540 l 1,48,-1
173 516 m 1,50,-1
 162 528 l 1,51,-1
 173 516 l 1,50,-1
150 516 m 1,52,-1
 162 504 l 1,53,-1
 150 516 l 1,52,-1
221 516 m 1,54,-1
 233 504 l 1,55,-1
 221 516 l 1,54,-1
233 492 m 1,56,-1
 221 504 l 1,57,-1
 233 492 l 1,56,-1
138 492 m 1,58,-1
 150 480 l 1,59,-1
 138 492 l 1,58,-1
209 492 m 1,60,-1
 221 480 l 1,61,-1
 209 492 l 1,60,-1
232 348 m 1,62,63
 232 361 232 361 234 384 c 128,-1,64
 236 407 236 407 236 420 c 0,65,66
 236 462 236 462 221 492 c 1,67,-1
 149 358 l 1,68,-1
 168 358 l 2,69,70
 206 358 206 358 232 348 c 1,62,63
208 465 m 1,71,-1
 196 476 l 1,72,-1
 208 465 l 1,71,-1
125 465 m 1,73,-1
 137 453 l 1,74,-1
 125 465 l 1,73,-1
196 465 m 1,75,-1
 208 453 l 1,76,-1
 196 465 l 1,75,-1
196 441 m 1,77,-1
 184 453 l 1,78,-1
 196 441 l 1,77,-1
113 441 m 1,79,-1
 125 429 l 1,80,-1
 113 441 l 1,79,-1
196 429 m 1,81,-1
 184 441 l 1,82,-1
 196 429 l 1,81,-1
113 417 m 1,83,-1
 102 429 l 1,84,-1
 113 417 l 1,83,-1
102 406 m 1,85,-1
 90 417 l 1,86,-1
 102 406 l 1,85,-1
90 394 m 1,87,-1
 78 406 l 1,88,-1
 90 394 l 1,87,-1
184 394 m 1,89,-1
 172 406 l 1,90,-1
 184 394 l 1,89,-1
78 382 m 1,91,-1
 66 394 l 1,92,-1
 78 382 l 1,91,-1
172 382 m 1,93,-1
 161 394 l 1,94,-1
 172 382 l 1,93,-1
31 382 m 1,95,-1
 43 370 l 1,96,-1
 31 382 l 1,95,-1
161 370 m 1,97,-1
 149 382 l 1,98,-1
 161 370 l 1,97,-1
19 370 m 1,99,-1
 31 358 l 1,100,-1
 19 370 l 1,99,-1
137 370 m 1,101,-1
 149 358 l 1,102,-1
 137 370 l 1,101,-1
220 347 m 1,103,-1
 208 358 l 1,104,-1
 220 347 l 1,103,-1
19 323 m 1,105,-1
 31 311 l 1,106,-1
 19 323 l 1,105,-1
220 288 m 1,107,-1
 232 276 l 1,108,-1
 220 288 l 1,107,-1
279 276 m 1,109,-1
 291 264 l 1,110,-1
 279 276 l 1,109,-1
220 110 m 1,111,-1
 208 122 l 1,112,-1
 220 110 l 1,111,-1
279 40 m 1,113,-1
 267 51 l 1,114,-1
 279 40 l 1,113,-1
220 16 m 1,115,-1
 208 28 l 1,116,-1
 220 16 l 1,115,-1
255 16 m 1,117,-1
 267 4 l 1,118,-1
 255 16 l 1,117,-1
EndSplineSet
EndChar

StartChar: five
Encoding: 53 53 24
Width: 397
GlyphClass: 2
Flags: W
LayerCount: 2
Fore
SplineSet
48 430 m 0,0,1
 48 454 48 454 59 493 c 0,2,3
 69 538 69 538 106 568 c 128,-1,4
 143 598 143 598 193 611 c 0,5,6
 248 625 248 625 288.5 604.5 c 128,-1,7
 329 584 329 584 345 541 c 1,8,9
 324 531 324 531 299 528.5 c 128,-1,10
 274 526 274 526 255 528 c 128,-1,11
 236 530 236 530 205 536 c 0,12,13
 180 541 180 541 155 541 c 1,14,-1
 119 410 l 1,15,16
 135 410 135 410 148.5 409 c 128,-1,17
 162 408 162 408 176.5 405 c 128,-1,18
 191 402 191 402 199.5 399.5 c 128,-1,19
 208 397 208 397 225 392 c 128,-1,20
 242 387 242 387 250 385 c 0,21,22
 296 359 296 359 302 356 c 0,23,24
 325 345 325 345 345 327 c 1,25,26
 372 282 372 282 372 234 c 0,27,28
 372 158 372 158 332 100.5 c 128,-1,29
 292 43 292 43 230 23 c 0,30,31
 135 -8 135 -8 59 76 c 1,32,33
 39 112 39 112 23 158 c 1,34,-1
 24 160 l 1,35,36
 37 164 37 164 48.5 163.5 c 128,-1,37
 60 163 60 163 67.5 161.5 c 128,-1,38
 75 160 75 160 84.5 154 c 128,-1,39
 94 148 94 148 98 144.5 c 128,-1,40
 102 141 102 141 111 132 c 2,41,-1
 128 115 l 2,42,43
 161 82 161 82 190 78 c 1,44,45
 226 78 226 78 253.5 101 c 128,-1,46
 281 124 281 124 297 157 c 0,47,48
 312 188 312 188 309.5 223.5 c 128,-1,49
 307 259 307 259 286 281 c 0,50,51
 250 314 250 314 170 346 c 0,52,53
 163 349 163 349 156 351 c 0,54,55
 132 351 132 351 119.5 352 c 128,-1,56
 107 353 107 353 92.5 358.5 c 128,-1,57
 78 364 78 364 71 375 c 1,58,59
 48 390 48 390 48 430 c 0,0,1
250 601 m 1,60,-1
 237 612 l 1,61,-1
 250 601 l 1,60,-1
333 588 m 1,62,-1
 321 601 l 1,63,-1
 333 588 l 1,62,-1
155 494 m 1,64,-1
 143 506 l 1,65,-1
 155 494 l 1,64,-1
60 482 m 1,66,-1
 48 494 l 1,67,-1
 60 482 l 1,66,-1
202 399 m 1,68,-1
 190 410 l 1,69,-1
 202 399 l 1,68,-1
226 399 m 1,70,-1
 237 386 l 1,71,-1
 226 399 l 1,70,-1
262 375 m 1,72,-1
 250 386 l 1,73,-1
 262 375 l 1,72,-1
48 375 m 1,74,-1
 60 363 l 1,75,-1
 48 375 l 1,74,-1
214 315 m 1,76,-1
 202 328 l 1,77,-1
 214 315 l 1,76,-1
226 315 m 1,78,-1
 214 328 l 1,79,-1
 226 315 l 1,78,-1
237 304 m 1,80,-1
 226 315 l 1,81,-1
 237 304 l 1,80,-1
250 304 m 1,82,-1
 237 315 l 1,83,-1
 250 304 l 1,82,-1
357 304 m 1,84,-1
 345 315 l 1,85,-1
 357 304 l 1,84,-1
262 291 m 1,86,-1
 250 304 l 1,87,-1
 262 291 l 1,86,-1
297 280 m 1,88,-1
 286 291 l 1,89,-1
 297 280 l 1,88,-1
368 280 m 1,90,-1
 357 291 l 1,91,-1
 368 280 l 1,90,-1
36 160 m 1,92,-1
 24 173 l 1,93,-1
 36 160 l 1,92,-1
310 160 m 1,94,-1
 297 173 l 1,95,-1
 310 160 l 1,94,-1
368 149 m 1,96,-1
 357 160 l 1,97,-1
 368 149 l 1,96,-1
36 137 m 1,98,-1
 24 149 l 1,99,-1
 36 137 l 1,98,-1
297 137 m 1,100,-1
 286 149 l 1,101,-1
 297 137 l 1,100,-1
357 149 m 1,102,-1
 368 137 l 1,103,-1
 357 149 l 1,102,-1
108 137 m 1,104,-1
 119 125 l 1,105,-1
 108 137 l 1,104,-1
345 137 m 1,106,-1
 357 125 l 1,107,-1
 345 137 l 1,106,-1
345 125 m 1,108,-1
 357 113 l 1,109,-1
 345 125 l 1,108,-1
214 89 m 1,110,-1
 226 78 l 1,111,-1
 214 89 l 1,110,-1
333 89 m 1,112,-1
 345 78 l 1,113,-1
 333 89 l 1,112,-1
321 78 m 1,114,-1
 333 66 l 1,115,-1
 321 78 l 1,114,-1
321 66 m 1,116,-1
 333 54 l 1,117,-1
 321 66 l 1,116,-1
297 54 m 1,118,-1
 310 42 l 1,119,-1
 297 54 l 1,118,-1
310 54 m 1,120,-1
 321 42 l 1,121,-1
 310 54 l 1,120,-1
95 42 m 1,122,-1
 108 29 l 1,123,-1
 95 42 l 1,122,-1
286 42 m 1,124,-1
 297 29 l 1,125,-1
 286 42 l 1,124,-1
250 29 m 1,126,-1
 262 18 l 1,127,-1
 250 29 l 1,126,-1
EndSplineSet
EndChar

StartChar: six
Encoding: 54 54 25
Width: 436
GlyphClass: 2
Flags: W
LayerCount: 2
Fore
SplineSet
179 644 m 1,0,-1
 192 631 l 1,1,-1
 179 644 l 1,0,-1
166 631 m 1,2,-1
 179 617 l 1,3,-1
 166 631 l 1,2,-1
155 348 m 0,4,5
 188 348 188 348 227 338 c 0,6,7
 276 327 276 327 314 311 c 0,8,9
 429 258 429 258 401 123 c 0,10,11
 396 113 396 113 389.5 89.5 c 128,-1,12
 383 66 383 66 374 52 c 128,-1,13
 365 38 365 38 348 32 c 1,14,15
 315 9 315 9 265 11 c 128,-1,16
 215 13 215 13 167 27.5 c 128,-1,17
 119 42 119 42 96 60 c 0,18,19
 62 80 62 80 44 120.5 c 128,-1,20
 26 161 26 161 25 209 c 128,-1,21
 24 257 24 257 35 312 c 0,22,23
 59 430 59 430 113 522 c 2,24,-1
 127 546 l 2,25,26
 148 584 148 584 175 604 c 128,-1,27
 202 624 202 624 245 617 c 1,28,-1
 99 340 l 1,29,30
 126 348 126 348 155 348 c 0,4,5
238 615 m 1,31,-1
 225 629 l 1,32,-1
 238 615 l 1,31,-1
159 603 m 1,33,-1
 146 615 l 1,34,-1
 159 603 l 1,33,-1
146 576 m 1,35,-1
 133 590 l 1,36,-1
 146 576 l 1,35,-1
238 576 m 1,37,-1
 225 590 l 1,38,-1
 238 576 l 1,37,-1
225 563 m 1,39,-1
 212 576 l 1,40,-1
 225 563 l 1,39,-1
133 550 m 1,41,-1
 119 563 l 1,42,-1
 133 550 l 1,41,-1
212 550 m 1,43,-1
 198 563 l 1,44,-1
 212 550 l 1,43,-1
185 550 m 1,45,-1
 198 536 l 1,46,-1
 185 550 l 1,45,-1
119 522 m 1,47,-1
 106 536 l 1,48,-1
 119 522 l 1,47,-1
198 522 m 1,49,-1
 185 536 l 1,50,-1
 198 522 l 1,49,-1
172 522 m 1,51,-1
 185 510 l 1,52,-1
 172 522 l 1,51,-1
106 496 m 1,53,-1
 92 510 l 1,54,-1
 106 496 l 1,53,-1
185 496 m 1,55,-1
 172 510 l 1,56,-1
 185 496 l 1,55,-1
92 483 m 1,57,-1
 80 496 l 1,58,-1
 92 483 l 1,57,-1
159 496 m 1,59,-1
 172 483 l 1,60,-1
 159 496 l 1,59,-1
172 469 m 1,61,-1
 159 483 l 1,62,-1
 172 469 l 1,61,-1
80 443 m 1,63,-1
 66 456 l 1,64,-1
 80 443 l 1,63,-1
159 443 m 1,65,-1
 146 456 l 1,66,-1
 159 443 l 1,65,-1
133 443 m 1,67,-1
 146 430 l 1,68,-1
 133 443 l 1,67,-1
66 417 m 1,69,-1
 52 430 l 1,70,-1
 66 417 l 1,69,-1
146 417 m 1,71,-1
 133 430 l 1,72,-1
 146 417 l 1,71,-1
52 404 m 1,73,-1
 39 417 l 1,74,-1
 52 404 l 1,73,-1
133 404 m 1,75,-1
 119 417 l 1,76,-1
 133 404 l 1,75,-1
133 390 m 1,77,-1
 119 404 l 1,78,-1
 133 390 l 1,77,-1
39 364 m 1,79,-1
 26 377 l 1,80,-1
 39 364 l 1,79,-1
119 364 m 1,81,-1
 106 377 l 1,82,-1
 119 364 l 1,81,-1
92 338 m 1,83,-1
 119 338 l 1,84,-1
 92 338 l 1,83,-1
238 338 m 1,85,-1
 225 351 l 1,86,-1
 238 338 l 1,85,-1
277 325 m 1,87,-1
 264 338 l 1,88,-1
 277 325 l 1,87,-1
318 311 m 1,89,-1
 304 325 l 1,90,-1
 318 311 l 1,89,-1
344 298 m 1,91,-1
 331 311 l 1,92,-1
 344 298 l 1,91,-1
357 298 m 1,93,-1
 371 284 l 1,94,-1
 357 298 l 1,93,-1
133 284 m 1,95,-1
 146 271 l 1,96,-1
 133 284 l 1,95,-1
319 85 m 1,97,98
 319 113 319 113 327 152 c 128,-1,99
 335 191 335 191 345 217 c 1,100,101
 291 254 291 254 230.5 268 c 128,-1,102
 170 282 170 282 92 271 c 1,103,-1
 90 269 l 1,104,105
 90 204 90 204 99.5 162.5 c 128,-1,106
 109 121 109 121 140 105 c 0,107,108
 146 102 146 102 152.5 99 c 128,-1,109
 159 96 159 96 165 94 c 128,-1,110
 171 92 171 92 179.5 90.5 c 128,-1,111
 188 89 188 89 193.5 88 c 128,-1,112
 199 87 199 87 209 86.5 c 128,-1,113
 219 86 219 86 224 85.5 c 128,-1,114
 229 85 229 85 241 85 c 128,-1,115
 253 85 253 85 257 85 c 128,-1,116
 261 85 261 85 274.5 85 c 128,-1,117
 288 85 288 85 292 85 c 2,118,-1
 319 85 l 1,97,98
196 282 m 1,119,-1
 210 269 l 1,120,-1
 196 282 l 1,119,-1
223 269 m 1,121,-1
 210 282 l 1,122,-1
 223 269 l 1,121,-1
369 282 m 1,123,-1
 382 269 l 1,124,-1
 369 282 l 1,123,-1
236 269 m 1,125,-1
 249 256 l 1,126,-1
 236 269 l 1,125,-1
262 256 m 1,127,-1
 249 269 l 1,128,-1
 262 256 l 1,127,-1
395 256 m 1,129,-1
 408 243 l 1,130,-1
 395 256 l 1,129,-1
342 190 m 1,131,-1
 329 203 l 1,132,-1
 342 190 l 1,131,-1
408 177 m 1,133,-1
 395 190 l 1,134,-1
 408 177 l 1,133,-1
395 177 m 1,135,-1
 408 164 l 1,136,-1
 395 177 l 1,135,-1
90 150 m 1,137,-1
 104 137 l 1,138,-1
 90 150 l 1,137,-1
329 123 m 1,139,-1
 316 137 l 1,140,-1
 329 123 l 1,139,-1
24 123 m 1,141,-1
 37 111 l 1,142,-1
 24 123 l 1,141,-1
104 123 m 1,143,-1
 117 111 l 1,144,-1
 104 123 l 1,143,-1
144 98 m 1,145,-1
 131 111 l 1,146,-1
 144 98 l 1,145,-1
37 98 m 1,147,-1
 50 84 l 1,148,-1
 37 98 l 1,147,-1
183 84 m 1,149,-1
 170 98 l 1,150,-1
 183 84 l 1,149,-1
395 84 m 1,151,-1
 382 98 l 1,152,-1
 395 84 l 1,151,-1
382 57 m 1,153,-1
 369 71 l 1,154,-1
 382 57 l 1,153,-1
90 43 m 1,155,-1
 78 57 l 1,156,-1
 90 43 l 1,155,-1
104 43 m 1,157,-1
 90 57 l 1,158,-1
 104 43 l 1,157,-1
382 43 m 1,159,-1
 369 57 l 1,160,-1
 382 43 l 1,159,-1
117 30 m 1,161,-1
 104 43 l 1,162,-1
 117 30 l 1,161,-1
131 30 m 1,163,-1
 117 43 l 1,164,-1
 131 30 l 1,163,-1
355 30 m 1,165,-1
 369 18 l 1,166,-1
 355 30 l 1,165,-1
EndSplineSet
EndChar

StartChar: seven
Encoding: 55 55 26
Width: 497
GlyphClass: 2
Flags: W
LayerCount: 2
Fore
SplineSet
28 622 m 1,0,-1
 41 609 l 1,1,-1
 28 622 l 1,0,-1
139 362 m 1,2,3
 203 376 203 376 311 376 c 1,4,-1
 287 560 l 1,5,-1
 176 560 l 1,6,-1
 113 555 l 2,7,8
 78 555 78 555 43 571 c 0,9,10
 6 589 6 589 52 604 c 0,11,12
 89 619 89 619 162 619 c 2,13,-1
 192 619 l 2,14,15
 202 619 202 619 220.5 618 c 128,-1,16
 239 617 239 617 248 617 c 2,17,-1
 272 617 l 2,18,19
 299 617 299 617 312.5 612.5 c 128,-1,20
 326 608 326 608 334 592 c 1,21,22
 369 557 369 557 369 421 c 2,23,-1
 369 371 l 1,24,25
 408 371 408 371 428.5 360 c 128,-1,26
 449 349 449 349 467 321 c 1,27,28
 430 310 430 310 395 310 c 2,29,-1
 369 310 l 1,30,31
 369 289 369 289 373 243.5 c 128,-1,32
 377 198 377 198 377 175 c 2,33,-1
 377 143 l 2,34,35
 377 30 377 30 320 14 c 1,36,37
 305 76 305 76 305 163 c 0,38,39
 305 188 305 188 307 237.5 c 128,-1,40
 309 287 309 287 309 312 c 1,41,42
 301 312 301 312 265 309.5 c 128,-1,43
 229 307 229 307 211 309 c 0,44,45
 153 317 153 317 139 362 c 1,2,3
335 617 m 1,46,-1
 347 604 l 1,47,-1
 335 617 l 1,46,-1
15 604 m 1,48,-1
 27 592 l 1,49,-1
 15 604 l 1,48,-1
347 604 m 1,50,-1
 359 592 l 1,51,-1
 347 604 l 1,50,-1
15 580 m 1,52,-1
 27 567 l 1,53,-1
 15 580 l 1,52,-1
347 531 m 1,54,-1
 359 518 l 1,55,-1
 347 531 l 1,54,-1
347 518 m 1,56,-1
 359 506 l 1,57,-1
 347 518 l 1,56,-1
286 494 m 1,58,-1
 298 481 l 1,59,-1
 286 494 l 1,58,-1
359 457 m 1,60,-1
 372 444 l 1,61,-1
 359 457 l 1,60,-1
298 444 m 1,62,-1
 310 432 l 1,63,-1
 298 444 l 1,62,-1
138 371 m 1,64,-1
 150 358 l 1,65,-1
 138 371 l 1,64,-1
446 371 m 1,66,-1
 458 358 l 1,67,-1
 446 371 l 1,66,-1
458 358 m 1,68,-1
 470 346 l 1,69,-1
 458 358 l 1,68,-1
138 334 m 1,70,-1
 150 321 l 1,71,-1
 138 334 l 1,70,-1
458 321 m 1,72,-1
 470 309 l 1,73,-1
 458 321 l 1,72,-1
310 38 m 1,74,-1
 323 26 l 1,75,-1
 310 38 l 1,74,-1
372 14 m 1,76,-1
 359 26 l 1,77,-1
 372 14 l 1,76,-1
EndSplineSet
EndChar

StartChar: eight
Encoding: 56 56 27
Width: 478
GlyphClass: 2
Flags: W
LayerCount: 2
Fore
SplineSet
114 610 m 1,0,-1
 129 597 l 1,1,-1
 114 610 l 1,0,-1
447 247 m 2,2,-1
 447 218 l 2,3,4
 447 167 447 167 434 128 c 1,5,6
 409 83 409 83 367.5 53 c 128,-1,7
 326 23 326 23 272 14.5 c 128,-1,8
 218 6 218 6 158 33 c 0,9,10
 109 55 109 55 74 101 c 0,11,12
 25 158 25 158 36 254 c 0,13,14
 44 341 44 341 87 396 c 1,15,-1
 80 395 l 1,16,17
 16 447 16 447 34 504 c 0,18,19
 47 546 47 546 86 573.5 c 128,-1,20
 125 601 125 601 177 610 c 0,21,22
 213 616 213 616 246 609 c 0,23,24
 292 594 292 594 317.5 562.5 c 128,-1,25
 343 531 343 531 365.5 470.5 c 128,-1,26
 388 410 388 410 400 388 c 0,27,28
 402 385 402 385 408.5 373.5 c 128,-1,29
 415 362 415 362 417 357.5 c 128,-1,30
 419 353 419 353 424.5 342.5 c 128,-1,31
 430 332 430 332 432 325.5 c 128,-1,32
 434 319 434 319 437.5 308.5 c 128,-1,33
 441 298 441 298 442.5 289.5 c 128,-1,34
 444 281 444 281 445.5 269.5 c 128,-1,35
 447 258 447 258 447 247 c 2,2,-1
268 609 m 1,36,-1
 281 596 l 1,37,-1
 268 609 l 1,36,-1
80 596 m 1,38,-1
 94 582 l 1,39,-1
 80 596 l 1,38,-1
281 596 m 1,40,-1
 295 582 l 1,41,-1
 281 596 l 1,40,-1
67 582 m 1,42,-1
 80 570 l 1,43,-1
 67 582 l 1,42,-1
54 570 m 1,44,-1
 67 556 l 1,45,-1
 54 570 l 1,44,-1
295 570 m 1,46,-1
 308 556 l 1,47,-1
 295 570 l 1,46,-1
40 556 m 1,48,-1
 54 543 l 1,49,-1
 40 556 l 1,48,-1
335 556 m 1,50,-1
 348 543 l 1,51,-1
 335 556 l 1,50,-1
122 543 m 1,52,-1
 133 529 l 1,53,-1
 122 543 l 1,52,-1
133 543 m 1,54,-1
 147 529 l 1,55,-1
 133 543 l 1,54,-1
92 473 m 1,56,57
 163 459 163 459 294 459 c 1,58,59
 270 499 270 499 227.5 520 c 128,-1,60
 185 541 185 541 140 519 c 0,61,62
 114 507 114 507 92 473 c 1,56,57
346 540 m 1,63,-1
 360 526 l 1,64,-1
 346 540 l 1,63,-1
25 526 m 1,65,-1
 38 513 l 1,66,-1
 25 526 l 1,65,-1
105 526 m 1,67,-1
 120 513 l 1,68,-1
 105 526 l 1,67,-1
360 526 m 1,69,-1
 372 513 l 1,70,-1
 360 526 l 1,69,-1
92 513 m 1,71,-1
 105 499 l 1,72,-1
 92 513 l 1,71,-1
252 499 m 1,73,-1
 240 513 l 1,74,-1
 252 499 l 1,73,-1
252 513 m 1,75,-1
 266 499 l 1,76,-1
 252 513 l 1,75,-1
92 499 m 1,77,-1
 105 486 l 1,78,-1
 92 499 l 1,77,-1
266 499 m 1,79,-1
 279 486 l 1,80,-1
 266 499 l 1,79,-1
279 499 m 1,81,-1
 293 486 l 1,82,-1
 279 499 l 1,81,-1
293 486 m 1,83,-1
 306 473 l 1,84,-1
 293 486 l 1,83,-1
92 473 m 1,85,-1
 105 458 l 1,86,-1
 92 473 l 1,85,-1
25 447 m 1,87,-1
 38 433 l 1,88,-1
 25 447 l 1,87,-1
372 433 m 1,89,-1
 360 447 l 1,90,-1
 372 433 l 1,89,-1
386 405 m 1,91,-1
 372 419 l 1,92,-1
 386 405 l 1,91,-1
386 405 m 1,93,-1
 399 392 l 1,94,-1
 386 405 l 1,93,-1
65 392 m 1,95,-1
 78 378 l 1,96,-1
 65 392 l 1,95,-1
369 236 m 0,97,98
 369 269 369 269 359 298 c 1,99,100
 352 334 352 334 322 359 c 128,-1,101
 292 384 292 384 254 386 c 128,-1,102
 216 388 216 388 178 364 c 0,103,104
 142 340 142 340 119 315 c 128,-1,105
 96 290 96 290 87 256 c 1,106,107
 87 195 87 195 120 146.5 c 128,-1,108
 153 98 153 98 202 81 c 0,109,110
 237 69 237 69 277 85 c 0,111,112
 319 106 319 106 344 144 c 128,-1,113
 369 182 369 182 369 236 c 0,97,98
46 375 m 1,114,-1
 59 362 l 1,115,-1
 46 375 l 1,114,-1
180 375 m 1,116,-1
 194 362 l 1,117,-1
 180 375 l 1,116,-1
314 375 m 1,118,-1
 327 362 l 1,119,-1
 314 375 l 1,118,-1
407 362 m 1,120,-1
 393 375 l 1,121,-1
 407 362 l 1,120,-1
32 362 m 1,122,-1
 46 349 l 1,123,-1
 32 362 l 1,122,-1
167 362 m 1,124,-1
 180 349 l 1,125,-1
 167 362 l 1,124,-1
420 349 m 1,126,-1
 407 362 l 1,127,-1
 420 349 l 1,126,-1
139 349 m 1,128,-1
 153 335 l 1,129,-1
 139 349 l 1,128,-1
340 335 m 1,130,-1
 327 349 l 1,131,-1
 340 335 l 1,130,-1
19 335 m 1,132,-1
 32 323 l 1,133,-1
 19 335 l 1,132,-1
114 335 m 1,134,-1
 125 323 l 1,135,-1
 114 335 l 1,134,-1
420 335 m 1,136,-1
 434 323 l 1,137,-1
 420 335 l 1,136,-1
99 323 m 1,138,-1
 114 309 l 1,139,-1
 99 323 l 1,138,-1
86 296 m 1,140,-1
 99 282 l 1,141,-1
 86 296 l 1,140,-1
86 229 m 1,142,-1
 99 215 l 1,143,-1
 86 229 l 1,142,-1
19 203 m 1,144,-1
 32 189 l 1,145,-1
 19 203 l 1,144,-1
354 176 m 1,146,-1
 366 162 l 1,147,-1
 354 176 l 1,146,-1
99 149 m 1,148,-1
 114 135 l 1,149,-1
 99 149 l 1,148,-1
340 149 m 1,150,-1
 354 135 l 1,151,-1
 340 149 l 1,150,-1
327 135 m 1,152,-1
 340 122 l 1,153,-1
 327 135 l 1,152,-1
420 135 m 1,154,-1
 434 122 l 1,155,-1
 420 135 l 1,154,-1
32 122 m 1,156,-1
 46 109 l 1,157,-1
 32 122 l 1,156,-1
153 109 m 1,158,-1
 139 122 l 1,159,-1
 153 109 l 1,158,-1
314 122 m 1,160,-1
 327 109 l 1,161,-1
 314 122 l 1,160,-1
167 109 m 1,162,-1
 180 95 l 1,163,-1
 167 109 l 1,162,-1
300 109 m 1,164,-1
 314 95 l 1,165,-1
 300 109 l 1,164,-1
407 109 m 1,166,-1
 420 95 l 1,167,-1
 407 109 l 1,166,-1
273 95 m 1,168,-1
 287 83 l 1,169,-1
 273 95 l 1,168,-1
393 95 m 1,170,-1
 407 83 l 1,171,-1
 393 95 l 1,170,-1
86 69 m 1,172,-1
 72 83 l 1,173,-1
 86 69 l 1,172,-1
207 83 m 1,174,-1
 220 69 l 1,175,-1
 207 83 l 1,174,-1
246 83 m 1,176,-1
 260 69 l 1,177,-1
 246 83 l 1,176,-1
380 83 m 1,178,-1
 393 69 l 1,179,-1
 380 83 l 1,178,-1
99 56 m 1,180,-1
 86 69 l 1,181,-1
 99 56 l 1,180,-1
114 56 m 1,182,-1
 99 69 l 1,183,-1
 114 56 l 1,182,-1
366 69 m 1,184,-1
 380 56 l 1,185,-1
 366 69 l 1,184,-1
125 41 m 1,186,-1
 114 56 l 1,187,-1
 125 41 l 1,186,-1
139 41 m 1,188,-1
 125 56 l 1,189,-1
 139 41 l 1,188,-1
354 56 m 1,190,-1
 366 41 l 1,191,-1
 354 56 l 1,190,-1
153 28 m 1,192,-1
 139 41 l 1,193,-1
 153 28 l 1,192,-1
327 41 m 1,194,-1
 340 28 l 1,195,-1
 327 41 l 1,194,-1
153 28 m 1,196,-1
 167 14 l 1,197,-1
 153 28 l 1,196,-1
180 14 m 1,198,-1
 167 28 l 1,199,-1
 180 14 l 1,198,-1
314 28 m 1,200,-1
 327 14 l 1,201,-1
 314 28 l 1,200,-1
180 14 m 1,202,-1
 194 1 l 1,203,-1
 180 14 l 1,202,-1
194 14 m 1,204,-1
 207 1 l 1,205,-1
 194 14 l 1,204,-1
287 14 m 1,206,-1
 300 1 l 1,207,-1
 287 14 l 1,206,-1
EndSplineSet
EndChar

StartChar: nine
Encoding: 57 57 28
Width: 421
GlyphClass: 2
Flags: W
LayerCount: 2
Fore
SplineSet
133 651 m 1,0,-1
 147 636 l 1,1,-1
 133 651 l 1,0,-1
320 -2 m 1,2,3
 303 69 303 69 303 172 c 0,4,5
 303 202 303 202 305 259 c 128,-1,6
 307 316 307 316 307 346 c 1,7,-1
 309 344 l 1,8,-1
 275 344 l 2,9,10
 193 344 193 344 168 348 c 0,11,12
 83 363 83 363 47 417 c 0,13,14
 3 480 3 480 65 571 c 0,15,16
 88 606 88 606 124.5 629.5 c 128,-1,17
 161 653 161 653 203 649 c 0,18,19
 247 643 247 643 278.5 625.5 c 128,-1,20
 310 608 310 608 328.5 581.5 c 128,-1,21
 347 555 347 555 358.5 521 c 128,-1,22
 370 487 370 487 373.5 446.5 c 128,-1,23
 377 406 377 406 379 360.5 c 128,-1,24
 381 315 381 315 379 266 c 0,25,26
 379 232 379 232 379 215 c 0,27,28
 379 200 379 200 380 170.5 c 128,-1,29
 381 141 381 141 381 124 c 128,-1,30
 381 107 381 107 378.5 83 c 128,-1,31
 376 59 376 59 370 44.5 c 128,-1,32
 364 30 364 30 351.5 17 c 128,-1,33
 339 4 339 4 320 -2 c 1,2,3
236 649 m 1,34,-1
 251 634 l 1,35,-1
 236 649 l 1,34,-1
120 634 m 1,36,-1
 135 620 l 1,37,-1
 120 634 l 1,36,-1
251 634 m 1,38,-1
 265 620 l 1,39,-1
 251 634 l 1,38,-1
106 620 m 1,40,-1
 120 605 l 1,41,-1
 106 620 l 1,40,-1
265 620 m 1,42,-1
 280 605 l 1,43,-1
 265 620 l 1,42,-1
91 605 m 1,44,-1
 106 591 l 1,45,-1
 91 605 l 1,44,-1
294 605 m 1,46,-1
 309 591 l 1,47,-1
 294 605 l 1,46,-1
77 591 m 1,48,-1
 91 576 l 1,49,-1
 77 591 l 1,48,-1
323 591 m 1,50,-1
 338 576 l 1,51,-1
 323 591 l 1,50,-1
62 576 m 1,52,-1
 77 562 l 1,53,-1
 62 576 l 1,52,-1
162 575 m 1,54,55
 133 546 133 546 133 533 c 1,56,57
 136 536 136 536 145.5 542.5 c 128,-1,58
 155 549 155 549 159.5 556.5 c 128,-1,59
 164 564 164 564 164 576 c 1,60,-1
 162 575 l 1,54,55
278 417 m 1,61,62
 278 458 278 458 263 494 c 128,-1,63
 248 530 248 530 221 545 c 128,-1,64
 194 560 194 560 156 534 c 0,65,66
 127 513 127 513 104 459 c 1,67,-1
 103 460 l 1,68,69
 189 417 189 417 278 417 c 1,61,62
349 576 m 1,70,-1
 364 562 l 1,71,-1
 349 576 l 1,70,-1
45 562 m 1,72,-1
 59 547 l 1,73,-1
 45 562 l 1,72,-1
364 562 m 1,74,-1
 378 547 l 1,75,-1
 364 562 l 1,74,-1
233 547 m 1,76,-1
 248 533 l 1,77,-1
 233 547 l 1,76,-1
248 547 m 1,78,-1
 262 533 l 1,79,-1
 248 547 l 1,78,-1
30 533 m 1,80,-1
 45 518 l 1,81,-1
 30 533 l 1,80,-1
262 533 m 1,82,-1
 277 518 l 1,83,-1
 262 533 l 1,82,-1
117 518 m 1,84,-1
 132 504 l 1,85,-1
 117 518 l 1,84,-1
103 504 m 1,86,-1
 117 489 l 1,87,-1
 103 504 l 1,86,-1
117 460 m 1,88,-1
 132 446 l 1,89,-1
 117 460 l 1,88,-1
146 446 m 1,90,-1
 161 431 l 1,91,-1
 146 446 l 1,90,-1
30 431 m 1,92,-1
 45 417 l 1,93,-1
 30 431 l 1,92,-1
161 431 m 1,94,-1
 175 417 l 1,95,-1
 161 431 l 1,94,-1
132 359 m 1,96,-1
 146 344 l 1,97,-1
 132 359 l 1,96,-1
146 359 m 1,98,-1
 161 344 l 1,99,-1
 146 359 l 1,98,-1
306 26 m 1,100,-1
 320 11 l 1,101,-1
 306 26 l 1,100,-1
364 11 m 1,102,-1
 378 -3 l 1,103,-1
 364 11 l 1,102,-1
EndSplineSet
EndChar

StartChar: colon
Encoding: 58 58 29
Width: 210
GlyphClass: 2
Flags: W
LayerCount: 2
Fore
SplineSet
67 485 m 1,0,-1
 80 472 l 1,1,-1
 67 485 l 1,0,-1
79 471 m 1,2,3
 132 498 132 498 160 435 c 0,4,5
 171 411 171 411 166.5 383.5 c 128,-1,6
 162 356 162 356 145 342 c 1,7,8
 103 319 103 319 72.5 342 c 128,-1,9
 42 365 42 365 42 410 c 0,10,11
 42 451 42 451 80 472 c 1,12,-1
 79 471 l 1,2,3
144 484 m 1,13,-1
 157 471 l 1,14,-1
 144 484 l 1,13,-1
53 471 m 1,15,-1
 66 458 l 1,16,-1
 53 471 l 1,15,-1
157 471 m 1,17,-1
 171 458 l 1,18,-1
 157 471 l 1,17,-1
40 458 m 1,19,-1
 53 445 l 1,20,-1
 40 458 l 1,19,-1
40 354 m 1,21,-1
 53 340 l 1,22,-1
 40 354 l 1,21,-1
157 354 m 1,23,-1
 171 340 l 1,24,-1
 157 354 l 1,23,-1
144 340 m 1,25,-1
 157 328 l 1,26,-1
 144 340 l 1,25,-1
66 132 m 1,27,-1
 79 119 l 1,28,-1
 66 132 l 1,27,-1
169 50 m 0,29,30
 169 17 169 17 150 -4.5 c 128,-1,31
 131 -26 131 -26 102 -23 c 0,32,33
 75 -22 75 -22 58 2 c 128,-1,34
 41 26 41 26 41 57 c 0,35,36
 41 98 41 98 79 119 c 1,37,-1
 81 118 l 1,38,39
 116 137 116 137 142.5 113.5 c 128,-1,40
 169 90 169 90 169 50 c 0,29,30
146 131 m 1,41,-1
 159 118 l 1,42,-1
 146 131 l 1,41,-1
55 118 m 1,43,-1
 68 105 l 1,44,-1
 55 118 l 1,43,-1
159 118 m 1,45,-1
 173 105 l 1,46,-1
 159 118 l 1,45,-1
42 105 m 1,47,-1
 55 92 l 1,48,-1
 42 105 l 1,47,-1
42 1 m 1,49,-1
 55 -13 l 1,50,-1
 42 1 l 1,49,-1
159 1 m 1,51,-1
 173 -13 l 1,52,-1
 159 1 l 1,51,-1
146 -13 m 1,53,-1
 159 -25 l 1,54,-1
 146 -13 l 1,53,-1
EndSplineSet
EndChar

StartChar: semicolon
Encoding: 59 59 30
Width: 257
GlyphClass: 2
Flags: W
LayerCount: 2
Fore
SplineSet
104 470 m 1,0,-1
 116 459 l 1,1,-1
 104 470 l 1,0,-1
115 457 m 1,2,3
 153 475 153 475 177.5 446.5 c 128,-1,4
 202 418 202 418 197 376 c 0,5,6
 194 350 194 350 176 337 c 0,7,8
 135 313 135 313 104 341.5 c 128,-1,9
 73 370 73 370 83 418 c 0,10,11
 89 446 89 446 116 459 c 1,12,-1
 115 457 l 1,2,3
91 457 m 1,13,-1
 103 445 l 1,14,-1
 91 457 l 1,13,-1
78 445 m 1,15,-1
 91 432 l 1,16,-1
 78 445 l 1,15,-1
78 347 m 1,17,-1
 91 335 l 1,18,-1
 78 347 l 1,17,-1
187 347 m 1,19,-1
 199 335 l 1,20,-1
 187 347 l 1,19,-1
176 335 m 1,21,-1
 187 324 l 1,22,-1
 176 335 l 1,21,-1
115 190 m 1,23,-1
 126 178 l 1,24,-1
 115 190 l 1,23,-1
104 56 m 1,25,26
 104 113 104 113 117 151 c 1,27,28
 117 169 117 169 131.5 177.5 c 128,-1,29
 146 186 146 186 165 177 c 0,30,31
 190 169 190 169 200.5 146 c 128,-1,32
 211 123 211 123 200 92 c 0,33,34
 191 65 191 65 176 35 c 2,35,-1
 160 5 l 2,36,37
 116 -77 116 -77 55 -113 c 1,38,-1
 56 -114 l 1,39,40
 55 -87 55 -87 54.5 -72.5 c 128,-1,41
 54 -58 54 -58 61.5 -36.5 c 128,-1,42
 69 -15 69 -15 74 -4 c 128,-1,43
 79 7 79 7 89 26.5 c 128,-1,44
 99 46 99 46 104 56 c 1,25,26
177 189 m 1,45,-1
 188 177 l 1,46,-1
 177 189 l 1,45,-1
104 177 m 1,47,-1
 116 165 l 1,48,-1
 104 177 l 1,47,-1
188 177 m 1,49,-1
 200 165 l 1,50,-1
 188 177 l 1,49,-1
200 152 m 1,51,-1
 213 141 l 1,52,-1
 200 152 l 1,51,-1
104 104 m 1,53,-1
 116 92 l 1,54,-1
 104 104 l 1,53,-1
200 104 m 1,55,-1
 213 92 l 1,56,-1
 200 104 l 1,55,-1
104 92 m 1,57,-1
 116 79 l 1,58,-1
 104 92 l 1,57,-1
200 92 m 1,59,-1
 213 79 l 1,60,-1
 200 92 l 1,59,-1
104 79 m 1,61,-1
 116 68 l 1,62,-1
 104 79 l 1,61,-1
188 79 m 1,63,-1
 200 68 l 1,64,-1
 188 79 l 1,63,-1
177 68 m 1,65,-1
 188 56 l 1,66,-1
 177 68 l 1,65,-1
92 56 m 1,67,-1
 104 43 l 1,68,-1
 92 56 l 1,67,-1
164 43 m 1,69,-1
 177 31 l 1,70,-1
 164 43 l 1,69,-1
152 31 m 1,71,-1
 164 19 l 1,72,-1
 152 31 l 1,71,-1
79 19 m 1,73,-1
 92 7 l 1,74,-1
 79 19 l 1,73,-1
67 7 m 1,75,-1
 79 -5 l 1,76,-1
 67 7 l 1,75,-1
140 7 m 1,77,-1
 152 -5 l 1,78,-1
 140 7 l 1,77,-1
140 -5 m 1,79,-1
 152 -17 l 1,80,-1
 140 -5 l 1,79,-1
56 -17 m 1,81,-1
 67 -29 l 1,82,-1
 56 -17 l 1,81,-1
127 -17 m 1,83,-1
 140 -29 l 1,84,-1
 127 -17 l 1,83,-1
116 -29 m 1,85,-1
 127 -42 l 1,86,-1
 116 -29 l 1,85,-1
43 -42 m 1,87,-1
 56 -53 l 1,88,-1
 43 -42 l 1,87,-1
116 -42 m 1,89,-1
 127 -53 l 1,90,-1
 116 -42 l 1,89,-1
104 -53 m 1,91,-1
 116 -65 l 1,92,-1
 104 -53 l 1,91,-1
31 -65 m 1,93,-1
 43 -78 l 1,94,-1
 31 -65 l 1,93,-1
104 -65 m 1,95,-1
 116 -78 l 1,96,-1
 104 -65 l 1,95,-1
31 -78 m 1,97,-1
 43 -90 l 1,98,-1
 31 -78 l 1,97,-1
92 -78 m 1,99,-1
 104 -90 l 1,100,-1
 92 -78 l 1,99,-1
31 -90 m 1,101,-1
 43 -102 l 1,102,-1
 31 -90 l 1,101,-1
92 -90 m 1,103,-1
 104 -102 l 1,104,-1
 92 -90 l 1,103,-1
43 -102 m 1,105,-1
 56 -114 l 1,106,-1
 43 -102 l 1,105,-1
67 -102 m 1,107,-1
 79 -114 l 1,108,-1
 67 -102 l 1,107,-1
79 -102 m 1,109,-1
 92 -114 l 1,110,-1
 79 -102 l 1,109,-1
EndSplineSet
EndChar

StartChar: less
Encoding: 60 60 31
Width: 412
GlyphClass: 2
Flags: W
LayerCount: 2
Fore
SplineSet
324 504 m 1,0,-1
 317 510 l 1,1,-1
 324 504 l 1,0,-1
352 108 m 1,2,3
 324 101 324 101 282 120 c 0,4,5
 265 127 265 127 218 156 c 1,6,7
 95 215 95 215 71 228 c 0,8,9
 55 237 55 237 44 251 c 0,10,11
 38 264 38 264 37.5 276 c 128,-1,12
 37 288 37 288 42 298.5 c 128,-1,13
 47 309 47 309 53 317 c 128,-1,14
 59 325 59 325 68 334 c 0,15,16
 85 347 85 347 115.5 363 c 128,-1,17
 146 379 146 379 157 386 c 0,18,19
 206 419 206 419 271 475 c 0,20,21
 334 525 334 525 357 484 c 1,22,23
 294 453 294 453 240 410 c 2,24,-1
 183 368 l 2,25,26
 158 349 158 349 123 331 c 1,27,28
 94 326 94 326 79.5 299.5 c 128,-1,29
 65 273 65 273 92 251 c 0,30,31
 103 243 103 243 156 222 c 0,32,33
 178 213 178 213 224 190 c 128,-1,34
 270 167 270 167 292 158 c 0,35,36
 311 147 311 147 325 140 c 0,37,38
 337 132 337 132 352 108 c 1,2,3
352 499 m 1,39,-1
 346 505 l 1,40,-1
 352 499 l 1,39,-1
314 492 m 1,41,-1
 307 499 l 1,42,-1
 314 492 l 1,41,-1
359 492 m 1,43,-1
 352 499 l 1,44,-1
 359 492 l 1,43,-1
301 492 m 1,45,-1
 307 486 l 1,46,-1
 301 492 l 1,45,-1
288 486 m 1,47,-1
 295 480 l 1,48,-1
 288 486 l 1,47,-1
282 480 m 1,49,-1
 288 473 l 1,50,-1
 282 480 l 1,49,-1
359 473 m 1,51,-1
 352 480 l 1,52,-1
 359 473 l 1,51,-1
269 473 m 1,53,-1
 275 467 l 1,54,-1
 269 473 l 1,53,-1
333 467 m 1,55,-1
 327 473 l 1,56,-1
 333 467 l 1,55,-1
263 467 m 1,57,-1
 269 460 l 1,58,-1
 263 467 l 1,57,-1
327 460 m 1,59,-1
 320 467 l 1,60,-1
 327 460 l 1,59,-1
256 460 m 1,61,-1
 263 454 l 1,62,-1
 256 460 l 1,61,-1
314 454 m 1,63,-1
 307 460 l 1,64,-1
 314 454 l 1,63,-1
250 448 m 1,65,-1
 243 454 l 1,66,-1
 250 448 l 1,65,-1
307 448 m 1,67,-1
 301 454 l 1,68,-1
 307 448 l 1,67,-1
243 441 m 1,69,-1
 237 448 l 1,70,-1
 243 441 l 1,69,-1
295 441 m 1,71,-1
 288 448 l 1,72,-1
 295 441 l 1,71,-1
230 435 m 1,73,-1
 224 441 l 1,74,-1
 230 435 l 1,73,-1
288 435 m 1,75,-1
 282 441 l 1,76,-1
 288 435 l 1,75,-1
224 428 m 1,77,-1
 218 435 l 1,78,-1
 224 428 l 1,77,-1
211 422 m 1,79,-1
 205 428 l 1,80,-1
 211 422 l 1,79,-1
282 422 m 1,81,-1
 275 428 l 1,82,-1
 282 422 l 1,81,-1
205 416 m 1,83,-1
 198 422 l 1,84,-1
 205 416 l 1,83,-1
263 416 m 1,85,-1
 256 422 l 1,86,-1
 263 416 l 1,85,-1
250 409 m 1,87,-1
 243 416 l 1,88,-1
 250 409 l 1,87,-1
192 409 m 1,89,-1
 198 403 l 1,90,-1
 192 409 l 1,89,-1
243 403 m 1,91,-1
 237 409 l 1,92,-1
 243 403 l 1,91,-1
186 396 m 1,93,-1
 179 403 l 1,94,-1
 186 396 l 1,93,-1
230 396 m 1,95,-1
 224 403 l 1,96,-1
 230 396 l 1,95,-1
173 396 m 1,97,-1
 179 390 l 1,98,-1
 173 396 l 1,97,-1
166 384 m 1,99,-1
 160 390 l 1,100,-1
 166 384 l 1,99,-1
224 384 m 1,101,-1
 218 390 l 1,102,-1
 224 384 l 1,101,-1
160 377 m 1,103,-1
 154 384 l 1,104,-1
 160 377 l 1,103,-1
218 377 m 1,105,-1
 211 384 l 1,106,-1
 218 377 l 1,105,-1
147 371 m 1,107,-1
 141 377 l 1,108,-1
 147 371 l 1,107,-1
205 371 m 1,109,-1
 198 377 l 1,110,-1
 205 371 l 1,109,-1
134 371 m 1,111,-1
 141 364 l 1,112,-1
 134 371 l 1,111,-1
198 364 m 1,113,-1
 192 371 l 1,114,-1
 198 364 l 1,113,-1
122 358 m 1,115,-1
 115 364 l 1,116,-1
 122 358 l 1,115,-1
186 358 m 1,117,-1
 179 364 l 1,118,-1
 186 358 l 1,117,-1
109 358 m 1,119,-1
 115 352 l 1,120,-1
 109 358 l 1,119,-1
179 352 m 1,121,-1
 173 358 l 1,122,-1
 179 352 l 1,121,-1
96 345 m 1,123,-1
 90 352 l 1,124,-1
 96 345 l 1,123,-1
166 345 m 1,125,-1
 160 352 l 1,126,-1
 166 345 l 1,125,-1
83 339 m 1,127,-1
 77 345 l 1,128,-1
 83 339 l 1,127,-1
160 339 m 1,129,-1
 154 345 l 1,130,-1
 160 339 l 1,129,-1
77 332 m 1,131,-1
 70 339 l 1,132,-1
 77 332 l 1,131,-1
147 332 m 1,133,-1
 141 339 l 1,134,-1
 147 332 l 1,133,-1
134 326 m 1,135,-1
 128 332 l 1,136,-1
 134 326 l 1,135,-1
64 320 m 1,137,-1
 58 326 l 1,138,-1
 64 320 l 1,137,-1
122 320 m 1,139,-1
 115 326 l 1,140,-1
 122 320 l 1,139,-1
58 313 m 1,141,-1
 51 320 l 1,142,-1
 58 313 l 1,141,-1
102 313 m 1,143,-1
 96 320 l 1,144,-1
 102 313 l 1,143,-1
51 307 m 1,145,-1
 45 313 l 1,146,-1
 51 307 l 1,145,-1
45 300 m 1,147,-1
 38 307 l 1,148,-1
 45 300 l 1,147,-1
83 294 m 1,149,-1
 77 300 l 1,150,-1
 83 294 l 1,149,-1
77 287 m 1,151,-1
 70 294 l 1,152,-1
 77 287 l 1,151,-1
45 249 m 1,153,-1
 38 255 l 1,154,-1
 45 249 l 1,153,-1
102 243 m 1,155,-1
 96 249 l 1,156,-1
 102 243 l 1,155,-1
51 236 m 1,157,-1
 45 243 l 1,158,-1
 51 236 l 1,157,-1
115 236 m 1,159,-1
 109 243 l 1,160,-1
 115 236 l 1,159,-1
58 230 m 1,161,-1
 51 236 l 1,162,-1
 58 230 l 1,161,-1
128 230 m 1,163,-1
 122 236 l 1,164,-1
 128 230 l 1,163,-1
64 223 m 1,165,-1
 58 230 l 1,166,-1
 64 223 l 1,165,-1
134 230 m 1,167,-1
 141 223 l 1,168,-1
 134 230 l 1,167,-1
77 217 m 1,169,-1
 70 223 l 1,170,-1
 77 217 l 1,169,-1
166 217 m 1,171,-1
 160 223 l 1,172,-1
 166 217 l 1,171,-1
96 211 m 1,173,-1
 90 217 l 1,174,-1
 96 211 l 1,173,-1
102 204 m 1,175,-1
 96 211 l 1,176,-1
 102 204 l 1,175,-1
109 204 m 1,177,-1
 102 211 l 1,178,-1
 109 204 l 1,177,-1
179 211 m 1,179,-1
 186 204 l 1,180,-1
 179 211 l 1,179,-1
122 198 m 1,181,-1
 115 204 l 1,182,-1
 122 198 l 1,181,-1
205 198 m 1,183,-1
 198 204 l 1,184,-1
 205 198 l 1,183,-1
128 191 m 1,185,-1
 122 198 l 1,186,-1
 128 191 l 1,185,-1
134 191 m 1,187,-1
 128 198 l 1,188,-1
 134 191 l 1,187,-1
154 185 m 1,189,-1
 147 191 l 1,190,-1
 154 185 l 1,189,-1
230 185 m 1,191,-1
 224 191 l 1,192,-1
 230 185 l 1,191,-1
166 179 m 1,193,-1
 160 185 l 1,194,-1
 166 179 l 1,193,-1
173 172 m 1,195,-1
 166 179 l 1,196,-1
 173 172 l 1,195,-1
179 172 m 1,197,-1
 173 179 l 1,198,-1
 179 172 l 1,197,-1
243 179 m 1,199,-1
 250 172 l 1,200,-1
 243 179 l 1,199,-1
192 166 m 1,201,-1
 186 172 l 1,202,-1
 192 166 l 1,201,-1
269 166 m 1,203,-1
 263 172 l 1,204,-1
 269 166 l 1,203,-1
198 159 m 1,205,-1
 192 166 l 1,206,-1
 198 159 l 1,205,-1
205 159 m 1,207,-1
 198 166 l 1,208,-1
 205 159 l 1,207,-1
218 153 m 1,209,-1
 211 159 l 1,210,-1
 218 153 l 1,209,-1
282 159 m 1,211,-1
 288 153 l 1,212,-1
 282 159 l 1,211,-1
230 147 m 1,213,-1
 224 153 l 1,214,-1
 230 147 l 1,213,-1
295 153 m 1,215,-1
 301 147 l 1,216,-1
 295 153 l 1,215,-1
237 140 m 1,217,-1
 230 147 l 1,218,-1
 237 140 l 1,217,-1
307 147 m 1,219,-1
 314 140 l 1,220,-1
 307 147 l 1,219,-1
250 140 m 1,221,-1
 256 134 l 1,222,-1
 250 140 l 1,221,-1
333 134 m 1,223,-1
 327 140 l 1,224,-1
 333 134 l 1,223,-1
263 134 m 1,225,-1
 269 127 l 1,226,-1
 263 134 l 1,225,-1
346 127 m 1,227,-1
 339 134 l 1,228,-1
 346 127 l 1,227,-1
275 121 m 1,229,-1
 269 127 l 1,230,-1
 275 121 l 1,229,-1
275 127 m 1,231,-1
 282 121 l 1,232,-1
 275 127 l 1,231,-1
352 121 m 1,233,-1
 346 127 l 1,234,-1
 352 121 l 1,233,-1
288 121 m 1,235,-1
 295 115 l 1,236,-1
 288 121 l 1,235,-1
301 108 m 1,237,-1
 295 115 l 1,238,-1
 301 108 l 1,237,-1
307 108 m 1,239,-1
 301 115 l 1,240,-1
 307 108 l 1,239,-1
320 102 m 1,241,-1
 314 108 l 1,242,-1
 320 102 l 1,241,-1
327 102 m 1,243,-1
 320 108 l 1,244,-1
 327 102 l 1,243,-1
352 102 m 1,245,-1
 346 108 l 1,246,-1
 352 102 l 1,245,-1
EndSplineSet
EndChar

StartChar: equal
Encoding: 61 61 32
Width: 489
GlyphClass: 2
Flags: W
LayerCount: 2
Fore
SplineSet
45 292 m 1,0,-1
 55 281 l 1,1,-1
 45 292 l 1,0,-1
451 249 m 1,2,3
 400 239 400 239 340 239 c 2,4,-1
 178 239 l 2,5,6
 168 239 168 239 149.5 236.5 c 128,-1,7
 131 234 131 234 122 234 c 2,8,-1
 107 234 l 2,9,10
 94 234 94 234 76 239 c 0,11,12
 65 239 65 239 54.5 248.5 c 128,-1,13
 44 258 44 258 44 271 c 1,14,15
 48 278 48 278 54.5 282.5 c 128,-1,16
 61 287 61 287 66.5 289 c 128,-1,17
 72 291 72 291 83 292 c 128,-1,18
 94 293 94 293 99.5 293 c 128,-1,19
 105 293 105 293 118.5 293 c 128,-1,20
 132 293 132 293 138 293 c 2,21,-1
 150 293 l 2,22,23
 174 293 174 293 229 297 c 128,-1,24
 284 301 284 301 313 300 c 0,25,26
 425 295 425 295 452 249 c 1,27,-1
 451 249 l 1,2,3
430 292 m 1,28,-1
 440 281 l 1,29,-1
 430 292 l 1,28,-1
33 281 m 1,30,-1
 44 270 l 1,31,-1
 33 281 l 1,30,-1
440 281 m 1,32,-1
 451 270 l 1,33,-1
 440 281 l 1,32,-1
33 260 m 1,34,-1
 44 249 l 1,35,-1
 33 260 l 1,34,-1
440 249 m 1,36,-1
 451 238 l 1,37,-1
 440 249 l 1,36,-1
44 463 m 1,38,-1
 54 452 l 1,39,-1
 44 463 l 1,38,-1
450 420 m 1,40,41
 399 410 399 410 339 410 c 2,42,-1
 177 410 l 2,43,44
 167 410 167 410 148.5 407.5 c 128,-1,45
 130 405 130 405 120 405 c 2,46,-1
 106 405 l 2,47,48
 93 405 93 405 75 410 c 0,49,50
 64 410 64 410 53.5 419.5 c 128,-1,51
 43 429 43 429 43 442 c 1,52,53
 47 449 47 449 53.5 453.5 c 128,-1,54
 60 458 60 458 65.5 460 c 128,-1,55
 71 462 71 462 82 463 c 128,-1,56
 93 464 93 464 98.5 464 c 128,-1,57
 104 464 104 464 117.5 464 c 128,-1,58
 131 464 131 464 136 464 c 2,59,-1
 149 464 l 2,60,61
 173 464 173 464 228 468 c 128,-1,62
 283 472 283 472 312 471 c 0,63,64
 424 466 424 466 451 420 c 1,65,-1
 450 420 l 1,40,41
429 463 m 1,66,-1
 439 452 l 1,67,-1
 429 463 l 1,66,-1
32 452 m 1,68,-1
 43 441 l 1,69,-1
 32 452 l 1,68,-1
439 452 m 1,70,-1
 450 441 l 1,71,-1
 439 452 l 1,70,-1
32 431 m 1,72,-1
 43 420 l 1,73,-1
 32 431 l 1,72,-1
439 420 m 1,74,-1
 450 409 l 1,75,-1
 439 420 l 1,74,-1
EndSplineSet
EndChar

StartChar: greater
Encoding: 62 62 33
Width: 407
GlyphClass: 2
Flags: W
LayerCount: 2
Fore
SplineSet
51 516 m 1,0,-1
 44 523 l 1,1,-1
 51 516 l 1,0,-1
44 512 m 1,2,3
 75 517 75 517 119 499 c 2,4,-1
 137 491 l 2,5,6
 164 479 164 479 212.5 454.5 c 128,-1,7
 261 430 261 430 282 420 c 0,8,9
 297 413 297 413 312 405 c 0,10,11
 358 389 358 389 373 362 c 0,12,13
 380 342 380 342 380.5 328 c 128,-1,14
 381 314 381 314 373 301.5 c 128,-1,15
 365 289 365 289 354.5 280.5 c 128,-1,16
 344 272 344 272 329 263 c 128,-1,17
 314 254 314 254 300.5 248 c 128,-1,18
 287 242 287 242 272.5 234.5 c 128,-1,19
 258 227 258 227 250 220 c 0,20,21
 220 199 220 199 126 123 c 0,22,23
 112 112 112 112 97.5 104 c 128,-1,24
 83 96 83 96 64.5 97 c 128,-1,25
 46 98 46 98 37 117 c 1,26,27
 72 135 72 135 100 154 c 0,28,29
 160 198 160 198 220 243 c 0,30,31
 252 267 252 267 283 284 c 1,32,33
 306 289 306 289 325.5 309.5 c 128,-1,34
 345 330 345 330 331 352 c 0,35,36
 321 372 321 372 294 382 c 2,37,-1
 270 391 l 2,38,39
 211 411 211 411 176 430 c 0,40,41
 170 434 170 434 144 447.5 c 128,-1,42
 118 461 118 461 105 469 c 2,43,-1
 69 487 l 2,44,45
 55 494 55 494 44 516 c 1,46,-1
 44 512 l 1,2,3
78 512 m 1,47,-1
 72 519 l 1,48,-1
 78 512 l 1,47,-1
84 512 m 1,49,-1
 78 519 l 1,50,-1
 84 512 l 1,49,-1
99 505 m 1,51,-1
 92 512 l 1,52,-1
 99 505 l 1,51,-1
106 505 m 1,53,-1
 99 512 l 1,54,-1
 106 505 l 1,53,-1
113 499 m 1,55,-1
 106 505 l 1,56,-1
 113 499 l 1,55,-1
51 492 m 1,57,-1
 44 499 l 1,58,-1
 51 492 l 1,57,-1
126 492 m 1,59,-1
 119 499 l 1,60,-1
 126 492 l 1,59,-1
133 492 m 1,61,-1
 126 499 l 1,62,-1
 133 492 l 1,61,-1
57 484 m 1,63,-1
 51 492 l 1,64,-1
 57 484 l 1,63,-1
141 484 m 1,65,-1
 133 492 l 1,66,-1
 141 484 l 1,65,-1
72 478 m 1,67,-1
 64 484 l 1,68,-1
 72 478 l 1,67,-1
147 484 m 1,69,-1
 153 478 l 1,70,-1
 147 484 l 1,69,-1
92 472 m 1,71,-1
 84 478 l 1,72,-1
 92 472 l 1,71,-1
175 472 m 1,73,-1
 168 478 l 1,74,-1
 175 472 l 1,73,-1
106 464 m 1,75,-1
 99 472 l 1,76,-1
 106 464 l 1,75,-1
181 464 m 1,77,-1
 175 472 l 1,78,-1
 181 464 l 1,77,-1
119 457 m 1,79,-1
 113 464 l 1,80,-1
 119 457 l 1,79,-1
188 464 m 1,81,-1
 196 457 l 1,82,-1
 188 464 l 1,81,-1
202 457 m 1,83,-1
 208 450 l 1,84,-1
 202 457 l 1,83,-1
216 450 m 1,85,-1
 208 457 l 1,86,-1
 216 450 l 1,85,-1
141 443 m 1,87,-1
 133 450 l 1,88,-1
 141 443 l 1,87,-1
216 450 m 1,89,-1
 223 443 l 1,90,-1
 216 450 l 1,89,-1
161 437 m 1,91,-1
 153 443 l 1,92,-1
 161 437 l 1,91,-1
230 443 m 1,93,-1
 237 437 l 1,94,-1
 230 443 l 1,93,-1
243 437 m 1,95,-1
 237 443 l 1,96,-1
 243 437 l 1,95,-1
243 437 m 1,97,-1
 250 430 l 1,98,-1
 243 437 l 1,97,-1
181 423 m 1,99,-1
 175 430 l 1,100,-1
 181 423 l 1,99,-1
257 430 m 1,101,-1
 264 423 l 1,102,-1
 257 430 l 1,101,-1
284 415 m 1,103,-1
 277 423 l 1,104,-1
 284 415 l 1,103,-1
292 415 m 1,105,-1
 284 423 l 1,106,-1
 292 415 l 1,105,-1
208 409 m 1,107,-1
 202 415 l 1,108,-1
 208 409 l 1,107,-1
298 409 m 1,109,-1
 292 415 l 1,110,-1
 298 409 l 1,109,-1
230 403 m 1,111,-1
 223 409 l 1,112,-1
 230 403 l 1,111,-1
312 403 m 1,113,-1
 304 409 l 1,114,-1
 312 403 l 1,113,-1
319 403 m 1,115,-1
 312 409 l 1,116,-1
 319 403 l 1,115,-1
326 395 m 1,117,-1
 319 403 l 1,118,-1
 326 395 l 1,117,-1
250 388 m 1,119,-1
 243 395 l 1,120,-1
 250 388 l 1,119,-1
347 388 m 1,121,-1
 339 395 l 1,122,-1
 347 388 l 1,121,-1
277 381 m 1,123,-1
 272 388 l 1,124,-1
 277 381 l 1,123,-1
361 381 m 1,125,-1
 353 388 l 1,126,-1
 361 381 l 1,125,-1
292 375 m 1,127,-1
 284 381 l 1,128,-1
 292 375 l 1,127,-1
367 375 m 1,129,-1
 361 381 l 1,130,-1
 367 375 l 1,129,-1
304 368 m 1,131,-1
 298 375 l 1,132,-1
 304 368 l 1,131,-1
373 368 m 1,133,-1
 367 375 l 1,134,-1
 373 368 l 1,133,-1
319 360 m 1,135,-1
 312 368 l 1,136,-1
 319 360 l 1,135,-1
381 354 m 1,137,-1
 373 360 l 1,138,-1
 381 354 l 1,137,-1
339 319 m 1,139,-1
 347 313 l 1,140,-1
 339 319 l 1,139,-1
333 313 m 1,141,-1
 339 306 l 1,142,-1
 333 313 l 1,141,-1
381 299 m 1,143,-1
 373 306 l 1,144,-1
 381 299 l 1,143,-1
373 292 m 1,145,-1
 367 299 l 1,146,-1
 373 292 l 1,145,-1
312 292 m 1,147,-1
 319 284 l 1,148,-1
 312 292 l 1,147,-1
367 284 m 1,149,-1
 361 292 l 1,150,-1
 367 284 l 1,149,-1
292 284 m 1,151,-1
 298 279 l 1,152,-1
 292 284 l 1,151,-1
361 279 m 1,153,-1
 353 284 l 1,154,-1
 361 279 l 1,153,-1
277 279 m 1,155,-1
 284 272 l 1,156,-1
 277 279 l 1,155,-1
264 272 m 1,157,-1
 272 264 l 1,158,-1
 264 272 l 1,157,-1
347 264 m 1,159,-1
 339 272 l 1,160,-1
 347 264 l 1,159,-1
250 264 m 1,161,-1
 257 258 l 1,162,-1
 250 264 l 1,161,-1
339 258 m 1,163,-1
 333 264 l 1,164,-1
 339 258 l 1,163,-1
243 258 m 1,165,-1
 250 252 l 1,166,-1
 243 258 l 1,165,-1
326 252 m 1,167,-1
 319 258 l 1,168,-1
 326 252 l 1,167,-1
237 244 m 1,169,-1
 230 252 l 1,170,-1
 237 244 l 1,169,-1
304 244 m 1,171,-1
 298 252 l 1,172,-1
 304 244 l 1,171,-1
223 244 m 1,173,-1
 230 237 l 1,174,-1
 223 244 l 1,173,-1
298 237 m 1,175,-1
 292 244 l 1,176,-1
 298 237 l 1,175,-1
216 230 m 1,177,-1
 208 237 l 1,178,-1
 216 230 l 1,177,-1
277 230 m 1,179,-1
 272 237 l 1,180,-1
 277 230 l 1,179,-1
208 223 m 1,181,-1
 202 230 l 1,182,-1
 208 223 l 1,181,-1
272 223 m 1,183,-1
 264 230 l 1,184,-1
 272 223 l 1,183,-1
196 217 m 1,185,-1
 188 223 l 1,186,-1
 196 217 l 1,185,-1
257 217 m 1,187,-1
 250 223 l 1,188,-1
 257 217 l 1,187,-1
188 209 m 1,189,-1
 181 217 l 1,190,-1
 188 209 l 1,189,-1
250 209 m 1,191,-1
 243 217 l 1,192,-1
 250 209 l 1,191,-1
237 203 m 1,193,-1
 230 209 l 1,194,-1
 237 203 l 1,193,-1
175 203 m 1,195,-1
 181 195 l 1,196,-1
 175 203 l 1,195,-1
230 195 m 1,197,-1
 223 203 l 1,198,-1
 230 195 l 1,197,-1
161 195 m 1,199,-1
 168 189 l 1,200,-1
 161 195 l 1,199,-1
216 189 m 1,201,-1
 208 195 l 1,202,-1
 216 189 l 1,201,-1
153 189 m 1,203,-1
 161 183 l 1,204,-1
 153 189 l 1,203,-1
141 183 m 1,205,-1
 147 175 l 1,206,-1
 141 183 l 1,205,-1
208 175 m 1,207,-1
 202 183 l 1,208,-1
 208 175 l 1,207,-1
126 168 m 1,209,-1
 119 175 l 1,210,-1
 126 168 l 1,209,-1
202 168 m 1,211,-1
 196 175 l 1,212,-1
 202 168 l 1,211,-1
188 160 m 1,213,-1
 181 168 l 1,214,-1
 188 160 l 1,213,-1
113 160 m 1,215,-1
 119 155 l 1,216,-1
 113 160 l 1,215,-1
181 155 m 1,217,-1
 175 160 l 1,218,-1
 181 155 l 1,217,-1
106 155 m 1,219,-1
 113 148 l 1,220,-1
 106 155 l 1,219,-1
168 148 m 1,221,-1
 161 155 l 1,222,-1
 168 148 l 1,221,-1
92 148 m 1,223,-1
 99 140 l 1,224,-1
 92 148 l 1,223,-1
161 140 m 1,225,-1
 153 148 l 1,226,-1
 161 140 l 1,225,-1
84 140 m 1,227,-1
 92 134 l 1,228,-1
 84 140 l 1,227,-1
147 134 m 1,229,-1
 141 140 l 1,230,-1
 147 134 l 1,229,-1
72 134 m 1,231,-1
 78 128 l 1,232,-1
 72 134 l 1,231,-1
141 128 m 1,233,-1
 133 134 l 1,234,-1
 141 128 l 1,233,-1
64 128 m 1,235,-1
 72 120 l 1,236,-1
 64 128 l 1,235,-1
133 120 m 1,237,-1
 126 128 l 1,238,-1
 133 120 l 1,237,-1
44 113 m 1,239,-1
 37 120 l 1,240,-1
 44 113 l 1,239,-1
119 113 m 1,241,-1
 113 120 l 1,242,-1
 119 113 l 1,241,-1
113 106 m 1,243,-1
 106 113 l 1,244,-1
 113 106 l 1,243,-1
99 99 m 1,245,-1
 92 106 l 1,246,-1
 99 99 l 1,245,-1
44 93 m 1,247,-1
 37 99 l 1,248,-1
 44 93 l 1,247,-1
92 93 m 1,249,-1
 84 99 l 1,250,-1
 92 93 l 1,249,-1
51 85 m 1,251,-1
 44 93 l 1,252,-1
 51 85 l 1,251,-1
78 85 m 1,253,-1
 72 93 l 1,254,-1
 78 85 l 1,253,-1
EndSplineSet
EndChar

StartChar: question
Encoding: 63 63 34
Width: 300
GlyphClass: 2
Flags: W
LayerCount: 2
Fore
SplineSet
86 608 m 1,0,-1
 93 602 l 1,1,-1
 86 608 l 1,0,-1
50 513 m 1,2,3
 46 558 46 558 81.5 584.5 c 128,-1,4
 117 611 117 611 167 609 c 0,5,6
 198 607 198 607 220 591 c 0,7,8
 249 564 249 564 259.5 508.5 c 128,-1,9
 270 453 270 453 248 407 c 0,10,11
 241 397 241 397 233 388 c 128,-1,12
 225 379 225 379 214 368.5 c 128,-1,13
 203 358 203 358 197.5 353 c 128,-1,14
 192 348 192 348 177 335 c 128,-1,15
 162 322 162 322 159 319 c 0,16,17
 125 290 125 290 123 263 c 2,18,-1
 120 233 l 2,19,20
 118 219 118 219 116.5 212.5 c 128,-1,21
 115 206 115 206 109.5 199.5 c 128,-1,22
 104 193 104 193 94 190 c 1,23,24
 87 221 87 221 88 254 c 128,-1,25
 89 287 89 287 106 309 c 0,26,27
 120 329 120 329 137 344 c 2,28,-1
 173 374 l 2,29,30
 194 392 194 392 206 408 c 128,-1,31
 218 424 218 424 223 448 c 1,32,33
 234 474 234 474 230.5 499.5 c 128,-1,34
 227 525 227 525 214.5 544.5 c 128,-1,35
 202 564 202 564 178.5 573 c 128,-1,36
 155 582 155 582 126 575 c 0,37,38
 111 570 111 570 91.5 545 c 128,-1,39
 72 520 72 520 54 516 c 1,40,-1
 50 513 l 1,2,3
201 605 m 1,41,-1
 208 599 l 1,42,-1
 201 605 l 1,41,-1
76 599 m 1,43,-1
 82 592 l 1,44,-1
 76 599 l 1,43,-1
69 592 m 1,45,-1
 76 585 l 1,46,-1
 69 592 l 1,45,-1
220 592 m 1,47,-1
 227 585 l 1,48,-1
 220 592 l 1,47,-1
227 585 m 1,49,-1
 234 578 l 1,50,-1
 227 585 l 1,49,-1
62 573 m 1,51,-1
 69 566 l 1,52,-1
 62 573 l 1,51,-1
187 573 m 1,53,-1
 194 566 l 1,54,-1
 187 573 l 1,53,-1
240 566 m 1,55,-1
 234 573 l 1,56,-1
 240 566 l 1,55,-1
57 566 m 1,57,-1
 62 559 l 1,58,-1
 57 566 l 1,57,-1
102 559 m 1,59,-1
 96 566 l 1,60,-1
 102 559 l 1,59,-1
240 566 m 1,61,-1
 247 559 l 1,62,-1
 240 566 l 1,61,-1
96 559 m 1,63,-1
 102 552 l 1,64,-1
 96 559 l 1,63,-1
201 559 m 1,65,-1
 208 552 l 1,66,-1
 201 559 l 1,65,-1
247 559 m 1,67,-1
 254 552 l 1,68,-1
 247 559 l 1,67,-1
50 552 m 1,69,-1
 57 545 l 1,70,-1
 50 552 l 1,69,-1
89 552 m 1,71,-1
 96 545 l 1,72,-1
 89 552 l 1,71,-1
208 552 m 1,73,-1
 214 545 l 1,74,-1
 208 552 l 1,73,-1
247 552 m 1,75,-1
 254 545 l 1,76,-1
 247 552 l 1,75,-1
43 545 m 1,77,-1
 50 539 l 1,78,-1
 43 545 l 1,77,-1
82 545 m 1,79,-1
 89 539 l 1,80,-1
 82 545 l 1,79,-1
214 545 m 1,81,-1
 220 539 l 1,82,-1
 214 545 l 1,81,-1
254 539 m 1,83,-1
 260 533 l 1,84,-1
 254 539 l 1,83,-1
76 533 m 1,85,-1
 82 526 l 1,86,-1
 76 533 l 1,85,-1
220 533 m 1,87,-1
 227 526 l 1,88,-1
 220 533 l 1,87,-1
43 526 m 1,89,-1
 50 520 l 1,90,-1
 43 526 l 1,89,-1
69 520 m 1,91,-1
 76 513 l 1,92,-1
 69 520 l 1,91,-1
227 434 m 1,93,-1
 220 441 l 1,94,-1
 227 434 l 1,93,-1
214 434 m 1,95,-1
 220 427 l 1,96,-1
 214 434 l 1,95,-1
254 434 m 1,97,-1
 260 427 l 1,98,-1
 254 434 l 1,97,-1
208 420 m 1,99,-1
 214 415 l 1,100,-1
 208 420 l 1,99,-1
247 420 m 1,101,-1
 254 415 l 1,102,-1
 247 420 l 1,101,-1
201 415 m 1,103,-1
 208 408 l 1,104,-1
 201 415 l 1,103,-1
194 408 m 1,105,-1
 201 401 l 1,106,-1
 194 408 l 1,105,-1
240 408 m 1,107,-1
 247 401 l 1,108,-1
 240 408 l 1,107,-1
187 401 m 1,109,-1
 194 394 l 1,110,-1
 187 401 l 1,109,-1
240 401 m 1,111,-1
 247 394 l 1,112,-1
 240 401 l 1,111,-1
181 394 m 1,113,-1
 187 388 l 1,114,-1
 181 394 l 1,113,-1
227 394 m 1,115,-1
 234 388 l 1,116,-1
 227 394 l 1,115,-1
175 388 m 1,117,-1
 181 381 l 1,118,-1
 175 388 l 1,117,-1
220 388 m 1,119,-1
 227 381 l 1,120,-1
 220 388 l 1,119,-1
220 375 m 1,121,-1
 214 381 l 1,122,-1
 220 375 l 1,121,-1
168 375 m 1,123,-1
 175 368 l 1,124,-1
 168 375 l 1,123,-1
208 375 m 1,125,-1
 214 368 l 1,126,-1
 208 375 l 1,125,-1
161 368 m 1,127,-1
 168 362 l 1,128,-1
 161 368 l 1,127,-1
201 368 m 1,129,-1
 208 362 l 1,130,-1
 201 368 l 1,129,-1
155 362 m 1,131,-1
 161 355 l 1,132,-1
 155 362 l 1,131,-1
141 355 m 1,133,-1
 148 348 l 1,134,-1
 141 355 l 1,133,-1
194 355 m 1,135,-1
 201 348 l 1,136,-1
 194 355 l 1,135,-1
136 348 m 1,137,-1
 141 341 l 1,138,-1
 136 348 l 1,137,-1
187 348 m 1,139,-1
 194 341 l 1,140,-1
 187 348 l 1,139,-1
122 341 m 1,141,-1
 129 336 l 1,142,-1
 122 341 l 1,141,-1
181 341 m 1,143,-1
 187 336 l 1,144,-1
 181 341 l 1,143,-1
115 336 m 1,145,-1
 122 329 l 1,146,-1
 115 336 l 1,145,-1
175 336 m 1,147,-1
 181 329 l 1,148,-1
 175 336 l 1,147,-1
161 329 m 1,149,-1
 168 322 l 1,150,-1
 161 329 l 1,149,-1
102 322 m 1,151,-1
 108 315 l 1,152,-1
 102 322 l 1,151,-1
96 315 m 1,153,-1
 102 309 l 1,154,-1
 96 315 l 1,153,-1
155 315 m 1,155,-1
 161 309 l 1,156,-1
 155 315 l 1,155,-1
89 296 m 1,157,-1
 96 289 l 1,158,-1
 89 296 l 1,157,-1
82 289 m 1,159,-1
 89 283 l 1,160,-1
 82 289 l 1,159,-1
122 289 m 1,161,-1
 129 283 l 1,162,-1
 122 289 l 1,161,-1
122 269 m 1,163,-1
 115 276 l 1,164,-1
 122 269 l 1,163,-1
82 204 m 1,165,-1
 89 197 l 1,166,-1
 82 204 l 1,165,-1
108 197 m 1,167,-1
 115 190 l 1,168,-1
 108 197 l 1,167,-1
82 92 m 1,169,-1
 89 85 l 1,170,-1
 82 92 l 1,169,-1
96 92 m 1,171,172
 103 92 103 92 96 85 c 1,173,174
 89 85 89 85 96 92 c 1,171,172
102 92 m 1,175,-1
 108 85 l 1,176,-1
 102 92 l 1,175,-1
69 85 m 1,177,-1
 76 78 l 1,178,-1
 69 85 l 1,177,-1
61 36 m 0,179,180
 61 60 61 60 72 75 c 128,-1,181
 83 90 83 90 103 77 c 0,182,183
 119 67 119 67 115.5 55 c 128,-1,184
 112 43 112 43 103 35 c 128,-1,185
 94 27 94 27 83 22 c 2,186,-1
 62 13 l 1,187,-1
 62 14 l 2,188,189
 61 19 61 19 61 36 c 0,179,180
108 86 m 1,190,-1
 115 79 l 1,191,-1
 108 86 l 1,190,-1
62 79 m 1,192,-1
 69 73 l 1,193,-1
 62 79 l 1,192,-1
108 47 m 1,194,-1
 115 40 l 1,195,-1
 108 47 l 1,194,-1
108 40 m 1,196,-1
 115 33 l 1,197,-1
 108 40 l 1,196,-1
96 33 m 1,198,-1
 102 26 l 1,199,-1
 96 33 l 1,198,-1
102 33 m 1,200,-1
 108 26 l 1,201,-1
 102 33 l 1,200,-1
57 26 m 1,202,-1
 62 21 l 1,203,-1
 57 26 l 1,202,-1
82 21 m 1,204,-1
 89 14 l 1,205,-1
 82 21 l 1,204,-1
EndSplineSet
EndChar

StartChar: at
Encoding: 64 64 35
Width: 671
GlyphClass: 2
Flags: W
LayerCount: 2
Fore
SplineSet
220 602 m 1,0,-1
 235 588 l 1,1,-1
 220 602 l 1,0,-1
288 47 m 1,2,3
 338 35 338 35 398 35 c 0,4,5
 456 35 456 35 498 47 c 0,6,7
 508 47 508 47 522 53 c 2,8,-1
 549 65 l 2,9,10
 551 66 551 66 559.5 70 c 128,-1,11
 568 74 568 74 571.5 75.5 c 128,-1,12
 575 77 575 77 584.5 78.5 c 128,-1,13
 594 80 594 80 598 76 c 1,14,15
 626 76 626 76 626 46 c 0,16,17
 626 34 626 34 622 21.5 c 128,-1,18
 618 9 618 9 612 5 c 0,19,20
 605 -9 605 -9 594.5 -19 c 128,-1,21
 584 -29 584 -29 569.5 -35.5 c 128,-1,22
 555 -42 555 -42 542 -46.5 c 128,-1,23
 529 -51 529 -51 508.5 -52 c 128,-1,24
 488 -53 488 -53 475 -53.5 c 128,-1,25
 462 -54 462 -54 437.5 -51.5 c 128,-1,26
 413 -49 413 -49 401.5 -48 c 128,-1,27
 390 -47 390 -47 364 -43.5 c 128,-1,28
 338 -40 338 -40 330 -39 c 0,29,30
 312 -35 312 -35 270.5 -29.5 c 128,-1,31
 229 -24 229 -24 209 -19 c 0,32,33
 129 -1 129 -1 89 31 c 0,34,35
 48 67 48 67 29 132 c 128,-1,36
 10 197 10 197 18 275 c 0,37,38
 23 321 23 321 33 358 c 0,39,40
 75 479 75 479 162.5 546 c 128,-1,41
 250 613 250 613 387 601 c 1,42,43
 571 601 571 601 602 464 c 0,44,45
 622 379 622 379 601 218 c 0,46,47
 592 177 592 177 565.5 151 c 128,-1,48
 539 125 539 125 500 127 c 256,49,50
 461 129 461 129 431.5 155 c 128,-1,51
 402 181 402 181 388 218 c 1,52,53
 378 218 378 218 360.5 215 c 128,-1,54
 343 212 343 212 333 212 c 2,55,-1
 320 212 l 2,56,57
 308 212 308 212 290 217 c 1,58,59
 261 217 261 217 248 231 c 1,60,61
 201 260 201 260 191 292 c 0,62,63
 170 356 170 356 238 408 c 0,64,65
 304 457 304 457 375 442 c 0,66,67
 410 434 410 434 431 403 c 0,68,69
 445 384 445 384 453 356.5 c 128,-1,70
 461 329 461 329 463.5 309 c 128,-1,71
 466 289 466 289 469 245 c 0,72,73
 470 216 470 216 475 191 c 1,74,-1
 470 191 l 1,75,76
 513 220 513 220 529.5 285.5 c 128,-1,77
 546 351 546 351 529 420 c 0,78,79
 518 463 518 463 498 489 c 1,80,81
 463 524 463 524 399.5 532 c 128,-1,82
 336 540 336 540 276.5 523.5 c 128,-1,83
 217 507 217 507 187 475 c 1,84,85
 156 449 156 449 129.5 402 c 128,-1,86
 103 355 103 355 92 309 c 0,87,88
 65 193 65 193 115 133 c 0,89,90
 160 74 160 74 243 53 c 0,91,92
 267 47 267 47 288 47 c 1,2,3
427 602 m 1,93,-1
 442 588 l 1,94,-1
 427 602 l 1,93,-1
188 588 m 1,95,-1
 201 574 l 1,96,-1
 188 588 l 1,95,-1
498 588 m 1,97,-1
 512 574 l 1,98,-1
 498 588 l 1,97,-1
172 574 m 1,99,-1
 188 559 l 1,100,-1
 172 574 l 1,99,-1
527 574 m 1,101,-1
 541 559 l 1,102,-1
 527 574 l 1,101,-1
144 559 m 1,103,-1
 158 545 l 1,104,-1
 144 559 l 1,103,-1
541 559 m 1,105,-1
 555 545 l 1,106,-1
 541 559 l 1,105,-1
130 545 m 1,107,-1
 144 530 l 1,108,-1
 130 545 l 1,107,-1
570 530 m 1,109,-1
 555 545 l 1,110,-1
 570 530 l 1,109,-1
115 530 m 1,111,-1
 130 516 l 1,112,-1
 115 530 l 1,111,-1
258 530 m 1,113,-1
 272 516 l 1,114,-1
 258 530 l 1,113,-1
399 530 m 1,115,-1
 412 516 l 1,116,-1
 399 530 l 1,115,-1
412 530 m 1,117,-1
 427 516 l 1,118,-1
 412 530 l 1,117,-1
570 530 m 1,119,-1
 585 516 l 1,120,-1
 570 530 l 1,119,-1
102 516 m 1,121,-1
 115 503 l 1,122,-1
 102 516 l 1,121,-1
230 516 m 1,123,-1
 244 503 l 1,124,-1
 230 516 l 1,123,-1
470 516 m 1,125,-1
 485 503 l 1,126,-1
 470 516 l 1,125,-1
88 503 m 1,127,-1
 102 488 l 1,128,-1
 88 503 l 1,127,-1
201 488 m 1,129,-1
 188 503 l 1,130,-1
 201 488 l 1,129,-1
201 503 m 1,131,-1
 215 488 l 1,132,-1
 201 503 l 1,131,-1
585 503 m 1,133,-1
 598 488 l 1,134,-1
 585 503 l 1,133,-1
172 488 m 1,135,-1
 188 474 l 1,136,-1
 172 488 l 1,135,-1
73 474 m 1,137,-1
 88 460 l 1,138,-1
 73 474 l 1,137,-1
172 460 m 1,139,-1
 158 474 l 1,140,-1
 172 460 l 1,139,-1
512 474 m 1,141,-1
 527 460 l 1,142,-1
 512 474 l 1,141,-1
59 460 m 1,143,-1
 73 446 l 1,144,-1
 59 460 l 1,143,-1
158 446 m 1,145,-1
 144 460 l 1,146,-1
 158 446 l 1,145,-1
144 446 m 1,147,-1
 158 430 l 1,148,-1
 144 446 l 1,147,-1
272 446 m 1,149,-1
 287 430 l 1,150,-1
 272 446 l 1,149,-1
287 446 m 1,151,-1
 300 430 l 1,152,-1
 287 446 l 1,151,-1
315 446 m 1,153,-1
 330 446 l 1,154,-1
 315 446 l 1,153,-1
399 446 m 1,155,-1
 412 430 l 1,156,-1
 399 446 l 1,155,-1
44 430 m 1,157,-1
 59 416 l 1,158,-1
 44 430 l 1,157,-1
244 430 m 1,159,-1
 258 416 l 1,160,-1
 244 430 l 1,159,-1
412 430 m 1,161,-1
 427 416 l 1,162,-1
 412 430 l 1,161,-1
130 416 m 1,163,-1
 144 403 l 1,164,-1
 130 416 l 1,163,-1
215 416 m 1,165,-1
 230 403 l 1,166,-1
 215 416 l 1,165,-1
30 403 m 1,167,-1
 44 388 l 1,168,-1
 30 403 l 1,167,-1
188 403 m 1,169,-1
 201 388 l 1,170,-1
 188 403 l 1,169,-1
427 403 m 1,171,-1
 442 388 l 1,172,-1
 427 403 l 1,171,-1
115 388 m 1,173,-1
 130 374 l 1,174,-1
 115 388 l 1,173,-1
172 388 m 1,175,-1
 188 374 l 1,176,-1
 172 388 l 1,175,-1
287 374 m 1,177,-1
 300 360 l 1,178,-1
 287 374 l 1,177,-1
315 374 m 1,179,-1
 330 374 l 1,180,-1
 315 374 l 1,179,-1
330 374 m 1,181,-1
 343 360 l 1,182,-1
 330 374 l 1,181,-1
442 374 m 1,183,-1
 456 360 l 1,184,-1
 442 374 l 1,183,-1
16 360 m 1,185,-1
 30 346 l 1,186,-1
 16 360 l 1,185,-1
102 360 m 1,187,-1
 115 346 l 1,188,-1
 102 360 l 1,187,-1
258 360 m 1,189,-1
 272 346 l 1,190,-1
 258 360 l 1,189,-1
272 360 m 1,191,-1
 287 346 l 1,192,-1
 272 360 l 1,191,-1
244 330 m 1,193,194
 257 317 257 317 266.5 309.5 c 128,-1,195
 276 302 276 302 292.5 295 c 128,-1,196
 309 288 309 288 328 288 c 2,197,-1
 358 288 l 1,198,-1
 358 360 l 1,199,-1
 328 360 l 2,200,201
 290 360 290 360 244 331 c 1,202,-1
 244 330 l 1,193,194
88 345 m 1,203,-1
 102 330 l 1,204,-1
 88 345 l 1,203,-1
244 345 m 1,205,-1
 258 330 l 1,206,-1
 244 345 l 1,205,-1
357 345 m 1,207,-1
 370 330 l 1,208,-1
 357 345 l 1,207,-1
88 330 m 1,209,-1
 102 317 l 1,210,-1
 88 330 l 1,209,-1
357 330 m 1,211,-1
 370 317 l 1,212,-1
 357 330 l 1,211,-1
244 317 m 1,213,-1
 258 302 l 1,214,-1
 244 317 l 1,213,-1
442 317 m 1,215,-1
 456 302 l 1,216,-1
 442 317 l 1,215,-1
172 287 m 1,217,-1
 188 274 l 1,218,-1
 172 287 l 1,217,-1
287 287 m 1,219,-1
 300 274 l 1,220,-1
 287 287 l 1,219,-1
315 287 m 1,221,-1
 330 274 l 1,222,-1
 315 287 l 1,221,-1
188 260 m 1,223,-1
 201 247 l 1,224,-1
 188 260 l 1,223,-1
442 247 m 1,225,-1
 456 232 l 1,226,-1
 442 247 l 1,225,-1
215 232 m 1,227,-1
 230 218 l 1,228,-1
 215 232 l 1,227,-1
230 232 m 1,229,-1
 244 218 l 1,230,-1
 230 232 l 1,229,-1
370 218 m 1,231,-1
 385 218 l 1,232,-1
 370 218 l 1,231,-1
470 205 m 1,233,-1
 456 218 l 1,234,-1
 470 205 l 1,233,-1
512 218 m 1,235,-1
 527 205 l 1,236,-1
 512 218 l 1,235,-1
485 205 m 1,237,-1
 498 205 l 1,238,-1
 485 205 l 1,237,-1
585 205 m 1,239,-1
 598 190 l 1,240,-1
 585 205 l 1,239,-1
385 190 m 1,241,-1
 399 175 l 1,242,-1
 385 190 l 1,241,-1
585 190 m 1,243,-1
 598 175 l 1,244,-1
 585 190 l 1,243,-1
399 161 m 1,245,-1
 412 147 l 1,246,-1
 399 161 l 1,245,-1
570 161 m 1,247,-1
 585 147 l 1,248,-1
 570 161 l 1,247,-1
88 147 m 1,249,-1
 102 132 l 1,250,-1
 88 147 l 1,249,-1
555 147 m 1,251,-1
 570 132 l 1,252,-1
 555 147 l 1,251,-1
527 132 m 1,253,-1
 541 119 l 1,254,-1
 527 132 l 1,253,-1
16 119 m 1,255,-1
 30 105 l 1,256,-1
 16 119 l 1,255,-1
102 119 m 1,257,-1
 115 105 l 1,258,-1
 102 119 l 1,257,-1
115 105 m 1,259,-1
 130 90 l 1,260,-1
 115 105 l 1,259,-1
611 89 m 1,261,262
 601 103 601 103 585 103 c 2,263,-1
 570 105 l 1,264,-1
 586 105 l 2,265,266
 599 105 599 105 611 89 c 1,261,262
29 88 m 1,267,-1
 43 74 l 1,268,-1
 29 88 l 1,267,-1
143 88 m 1,269,-1
 157 74 l 1,270,-1
 143 88 l 1,269,-1
554 88 m 1,271,-1
 569 74 l 1,272,-1
 554 88 l 1,271,-1
611 88 m 1,273,-1
 626 74 l 1,274,-1
 611 88 l 1,273,-1
171 74 m 1,275,-1
 187 60 l 1,276,-1
 171 74 l 1,275,-1
200 60 m 1,277,-1
 214 45 l 1,278,-1
 200 60 l 1,277,-1
58 45 m 1,279,-1
 72 30 l 1,280,-1
 58 45 l 1,279,-1
243 45 m 1,281,-1
 257 30 l 1,282,-1
 243 45 l 1,281,-1
526 45 m 1,283,-1
 540 30 l 1,284,-1
 526 45 l 1,283,-1
171 -12 m 1,285,-1
 187 -25 l 1,286,-1
 171 -12 l 1,285,-1
187 -12 m 1,287,-1
 200 -25 l 1,288,-1
 187 -12 l 1,287,-1
214 -25 m 1,289,-1
 229 -40 l 1,290,-1
 214 -25 l 1,289,-1
229 -25 m 1,291,-1
 243 -40 l 1,292,-1
 229 -25 l 1,291,-1
329 -40 m 1,293,-1
 342 -54 l 1,294,-1
 329 -40 l 1,293,-1
342 -40 m 1,295,-1
 356 -54 l 1,296,-1
 342 -40 l 1,295,-1
540 -40 m 1,297,-1
 554 -54 l 1,298,-1
 540 -40 l 1,297,-1
EndSplineSet
EndChar

StartChar: A
Encoding: 65 65 36
Width: 420
GlyphClass: 2
Flags: W
LayerCount: 2
Fore
SplineSet
195 613 m 1,0,-1
 184 623 l 1,1,-1
 195 613 l 1,0,-1
220 148 m 0,2,3
 206 148 206 148 174.5 145 c 128,-1,4
 143 142 143 142 131 142 c 1,5,-1
 128 139 l 1,6,7
 128 92 128 92 96 42 c 0,8,9
 91 37 91 37 83.5 33 c 128,-1,10
 76 29 76 29 68 27 c 128,-1,11
 60 25 60 25 52.5 29 c 128,-1,12
 45 33 45 33 42 43 c 0,13,14
 34 54 34 54 54 93 c 2,15,-1
 62 108 l 2,16,17
 74 133 74 133 74 150 c 1,18,19
 87 196 87 196 101 236 c 2,20,-1
 131 320 l 2,21,22
 166 412 166 412 180 490 c 1,23,-1
 180 525 l 2,24,25
 180 542 180 542 181 555.5 c 128,-1,26
 182 569 182 569 186 585.5 c 128,-1,27
 190 602 190 602 199.5 608.5 c 128,-1,28
 209 615 209 615 224 609 c 0,29,30
 240 604 240 604 251.5 590 c 128,-1,31
 263 576 263 576 267.5 561.5 c 128,-1,32
 272 547 272 547 278.5 524.5 c 128,-1,33
 285 502 285 502 290 491 c 0,34,35
 294 471 294 471 300.5 453 c 128,-1,36
 307 435 307 435 317.5 411 c 128,-1,37
 328 387 328 387 332 378 c 0,38,39
 350 331 350 331 354 309 c 0,40,41
 364 250 364 250 364 198 c 2,42,-1
 364 159 l 2,43,44
 364 146 364 146 370 127 c 2,45,-1
 376 107 l 2,46,47
 388 67 388 67 388 47 c 0,48,49
 388 28 388 28 376 21 c 1,50,51
 366 10 366 10 342 34 c 2,52,-1
 333 44 l 2,53,54
 330 50 330 50 322.5 78.5 c 128,-1,55
 315 107 315 107 302 120 c 0,56,57
 281 148 281 148 220 148 c 0,2,3
236 620 m 1,58,-1
 247 610 l 1,59,-1
 236 620 l 1,58,-1
257 588 m 1,60,-1
 247 599 l 1,61,-1
 257 588 l 1,60,-1
257 578 m 1,62,-1
 267 567 l 1,63,-1
 257 578 l 1,62,-1
279 525 m 1,64,-1
 267 535 l 1,65,-1
 279 525 l 1,64,-1
279 503 m 1,66,-1
 289 492 l 1,67,-1
 279 503 l 1,66,-1
181 460 m 1,68,-1
 171 470 l 1,69,-1
 181 460 l 1,68,-1
300 449 m 1,70,-1
 289 460 l 1,71,-1
 300 449 l 1,70,-1
247 438 m 1,72,-1
 236 449 l 1,73,-1
 247 438 l 1,72,-1
160 438 m 1,74,-1
 171 427 l 1,75,-1
 160 438 l 1,74,-1
236 438 m 1,76,77
 225 427 225 427 236 427 c 1,78,79
 247 438 247 438 236 438 c 1,76,77
310 427 m 1,80,-1
 300 438 l 1,81,-1
 310 427 l 1,80,-1
309 192 m 1,82,83
 309 262 309 262 293.5 317 c 128,-1,84
 278 372 278 372 247 427 c 1,85,-1
 224 427 l 1,86,87
 202 340 202 340 137 192 c 1,88,-1
 309 192 l 1,82,83
256 416 m 1,89,-1
 246 427 l 1,90,-1
 256 416 l 1,89,-1
309 416 m 1,91,-1
 321 406 l 1,92,-1
 309 416 l 1,91,-1
212 406 m 1,93,-1
 224 395 l 1,94,-1
 212 406 l 1,93,-1
266 395 m 1,95,-1
 256 406 l 1,96,-1
 266 395 l 1,95,-1
331 395 m 1,97,-1
 321 406 l 1,98,-1
 331 395 l 1,97,-1
149 384 m 1,99,-1
 159 374 l 1,100,-1
 149 384 l 1,99,-1
266 384 m 1,101,-1
 278 374 l 1,102,-1
 266 384 l 1,101,-1
212 363 m 1,103,-1
 202 374 l 1,104,-1
 212 363 l 1,103,-1
331 374 m 1,105,-1
 341 363 l 1,106,-1
 331 374 l 1,105,-1
202 363 m 1,107,-1
 212 353 l 1,108,-1
 202 363 l 1,107,-1
288 353 m 1,109,-1
 278 363 l 1,110,-1
 288 353 l 1,109,-1
149 341 m 1,111,-1
 137 353 l 1,112,-1
 149 341 l 1,111,-1
341 353 m 1,113,-1
 352 341 l 1,114,-1
 341 353 l 1,113,-1
191 341 m 1,115,-1
 202 331 l 1,116,-1
 191 341 l 1,115,-1
299 331 m 1,117,-1
 288 341 l 1,118,-1
 299 331 l 1,117,-1
127 331 m 1,119,-1
 137 320 l 1,120,-1
 127 331 l 1,119,-1
191 331 m 1,121,-1
 202 320 l 1,122,-1
 191 331 l 1,121,-1
191 310 m 1,123,-1
 180 320 l 1,124,-1
 191 310 l 1,123,-1
362 310 m 1,125,-1
 352 320 l 1,126,-1
 362 310 l 1,125,-1
116 310 m 1,127,-1
 127 300 l 1,128,-1
 116 310 l 1,127,-1
180 310 m 1,129,-1
 191 300 l 1,130,-1
 180 310 l 1,129,-1
299 310 m 1,131,-1
 309 300 l 1,132,-1
 299 310 l 1,131,-1
170 300 m 1,133,-1
 180 288 l 1,134,-1
 170 300 l 1,133,-1
180 278 m 1,135,-1
 170 288 l 1,136,-1
 180 278 l 1,135,-1
116 267 m 1,137,-1
 106 278 l 1,138,-1
 116 267 l 1,137,-1
95 267 m 1,139,-1
 106 257 l 1,140,-1
 95 267 l 1,139,-1
159 267 m 1,141,-1
 170 257 l 1,142,-1
 159 267 l 1,141,-1
170 245 m 1,143,-1
 159 257 l 1,144,-1
 170 245 l 1,143,-1
84 245 m 1,145,-1
 95 235 l 1,146,-1
 84 245 l 1,145,-1
149 235 m 1,147,-1
 159 225 l 1,148,-1
 149 235 l 1,147,-1
149 203 m 1,149,-1
 137 214 l 1,150,-1
 149 203 l 1,149,-1
84 150 m 1,151,-1
 74 160 l 1,152,-1
 84 150 l 1,151,-1
137 129 m 1,153,-1
 127 139 l 1,154,-1
 137 129 l 1,153,-1
374 117 m 1,155,-1
 362 129 l 1,156,-1
 374 117 l 1,155,-1
63 117 m 1,157,-1
 74 107 l 1,158,-1
 63 117 l 1,157,-1
321 107 m 1,159,-1
 309 117 l 1,160,-1
 321 107 l 1,159,-1
63 85 m 1,161,-1
 52 96 l 1,162,-1
 63 85 l 1,161,-1
127 74 m 1,163,-1
 116 85 l 1,164,-1
 127 74 l 1,163,-1
41 74 m 1,165,-1
 52 63 l 1,166,-1
 41 74 l 1,165,-1
384 63 m 1,167,-1
 374 74 l 1,168,-1
 384 63 l 1,167,-1
41 53 m 1,169,-1
 31 63 l 1,170,-1
 41 53 l 1,169,-1
116 53 m 1,171,-1
 106 63 l 1,172,-1
 116 53 l 1,171,-1
331 53 m 1,173,-1
 321 63 l 1,174,-1
 331 53 l 1,173,-1
395 53 m 1,175,-1
 384 63 l 1,176,-1
 395 53 l 1,175,-1
106 42 m 1,177,-1
 95 53 l 1,178,-1
 106 42 l 1,177,-1
41 31 m 1,179,-1
 31 42 l 1,180,-1
 41 31 l 1,179,-1
95 20 m 1,181,-1
 84 31 l 1,182,-1
 95 20 l 1,181,-1
341 20 m 1,183,-1
 331 31 l 1,184,-1
 341 20 l 1,183,-1
384 20 m 1,185,-1
 395 10 l 1,186,-1
 384 20 l 1,185,-1
EndSplineSet
EndChar

StartChar: B
Encoding: 66 66 37
Width: 389
GlyphClass: 2
Flags: W
LayerCount: 2
Fore
SplineSet
67 637 m 1,0,1
 91 625 91 625 97 623 c 1,2,3
 72 633 72 633 66 639 c 2,4,-1
 67 637 l 1,0,1
56 626 m 1,5,-1
 67 616 l 1,6,-1
 56 626 l 1,5,-1
65 7 m 1,7,8
 47 87 47 87 47 232 c 0,9,10
 47 270 47 270 50 347.5 c 128,-1,11
 53 425 53 425 53 463 c 0,12,13
 53 472 53 472 50 501 c 128,-1,14
 47 530 47 530 47 542 c 0,15,16
 47 575 47 575 58 596.5 c 128,-1,17
 69 618 69 618 96 612 c 0,18,19
 109 609 109 609 123 603 c 0,20,21
 140 596 140 596 169.5 582 c 128,-1,22
 199 568 199 568 208 564 c 0,23,24
 229 555 229 555 245 539 c 0,25,26
 283 512 283 512 303.5 485 c 128,-1,27
 324 458 324 458 326 418 c 0,28,29
 327 391 327 391 318.5 363 c 128,-1,30
 310 335 310 335 301.5 317.5 c 128,-1,31
 293 300 293 300 277 273 c 1,32,33
 319 249 319 249 339.5 194.5 c 128,-1,34
 360 140 360 140 343 82 c 0,35,36
 332 47 332 47 301 28 c 0,37,38
 265 10 265 10 184 10 c 2,39,-1
 152 10 l 2,40,41
 79 10 79 10 67 8 c 2,42,-1
 65 7 l 1,7,8
118 604 m 1,43,-1
 129 593 l 1,44,-1
 118 604 l 1,43,-1
140 593 m 1,45,-1
 150 583 l 1,46,-1
 140 593 l 1,45,-1
172 583 m 1,47,-1
 182 572 l 1,48,-1
 172 583 l 1,47,-1
204 572 m 1,49,-1
 214 561 l 1,50,-1
 204 572 l 1,49,-1
236 561 m 1,51,-1
 246 551 l 1,52,-1
 236 561 l 1,51,-1
246 551 m 1,53,-1
 257 540 l 1,54,-1
 246 551 l 1,53,-1
112 284 m 1,55,56
 135 292 135 292 169 296 c 2,57,-1
 200 300 l 2,58,59
 215 301 215 301 227 306 c 0,60,61
 231 310 231 310 241.5 326.5 c 128,-1,62
 252 343 252 343 257 348 c 0,63,64
 267 369 267 369 269 388 c 128,-1,65
 271 407 271 407 267.5 422 c 128,-1,66
 264 437 264 437 253 451 c 128,-1,67
 242 465 242 465 231 474.5 c 128,-1,68
 220 484 220 484 201.5 495 c 128,-1,69
 183 506 183 506 171.5 512 c 128,-1,70
 160 518 160 518 140 526 c 0,71,72
 124 534 124 534 108 540 c 1,73,-1
 112 284 l 1,55,56
122 540 m 1,74,-1
 133 529 l 1,75,-1
 122 540 l 1,74,-1
133 540 m 1,76,-1
 144 529 l 1,77,-1
 133 540 l 1,76,-1
261 540 m 1,78,-1
 272 529 l 1,79,-1
 261 540 l 1,78,-1
154 529 m 1,80,-1
 165 519 l 1,81,-1
 154 529 l 1,80,-1
165 529 m 1,82,-1
 176 519 l 1,83,-1
 165 529 l 1,82,-1
272 529 m 1,84,-1
 282 519 l 1,85,-1
 272 529 l 1,84,-1
186 519 m 1,86,-1
 197 508 l 1,87,-1
 186 519 l 1,86,-1
197 519 m 1,88,-1
 208 508 l 1,89,-1
 197 519 l 1,88,-1
293 497 m 1,90,-1
 282 508 l 1,91,-1
 293 497 l 1,90,-1
304 497 m 1,92,-1
 314 487 l 1,93,-1
 304 497 l 1,92,-1
229 487 m 1,94,-1
 240 476 l 1,95,-1
 229 487 l 1,94,-1
314 487 m 1,96,-1
 325 476 l 1,97,-1
 314 487 l 1,96,-1
325 476 m 1,98,-1
 336 465 l 1,99,-1
 325 476 l 1,98,-1
272 391 m 1,100,-1
 282 380 l 1,101,-1
 272 391 l 1,100,-1
325 380 m 1,102,-1
 336 369 l 1,103,-1
 325 380 l 1,102,-1
325 369 m 1,104,-1
 336 359 l 1,105,-1
 325 369 l 1,104,-1
261 359 m 1,106,-1
 272 348 l 1,107,-1
 261 359 l 1,106,-1
314 348 m 1,108,-1
 325 337 l 1,109,-1
 314 348 l 1,108,-1
250 337 m 1,110,-1
 261 327 l 1,111,-1
 250 337 l 1,110,-1
314 337 m 1,112,-1
 325 327 l 1,113,-1
 314 337 l 1,112,-1
304 327 m 1,114,-1
 314 316 l 1,115,-1
 304 327 l 1,114,-1
229 316 m 1,116,-1
 240 305 l 1,117,-1
 229 316 l 1,116,-1
304 316 m 1,118,-1
 314 305 l 1,119,-1
 304 316 l 1,118,-1
208 305 m 1,120,-1
 218 295 l 1,121,-1
 208 305 l 1,120,-1
293 305 m 1,122,-1
 304 295 l 1,123,-1
 293 305 l 1,122,-1
122 295 m 1,124,-1
 133 284 l 1,125,-1
 122 295 l 1,124,-1
293 295 m 1,126,-1
 304 284 l 1,127,-1
 293 295 l 1,126,-1
112 284 m 1,128,-1
 122 273 l 1,129,-1
 112 284 l 1,128,-1
282 284 m 1,130,-1
 293 273 l 1,131,-1
 282 284 l 1,130,-1
304 273 m 1,132,-1
 314 263 l 1,133,-1
 304 273 l 1,132,-1
314 263 m 1,134,-1
 325 252 l 1,135,-1
 314 263 l 1,134,-1
325 252 m 1,136,-1
 336 241 l 1,137,-1
 325 252 l 1,136,-1
112 241 m 1,138,-1
 122 231 l 1,139,-1
 112 241 l 1,138,-1
176 241 m 1,140,-1
 186 231 l 1,141,-1
 176 241 l 1,140,-1
132 70 m 2,142,143
 138 70 138 70 152.5 69 c 128,-1,144
 167 68 167 68 174 68 c 2,145,-1
 195 68 l 2,146,147
 244 68 244 68 275 82 c 0,148,149
 303 99 303 99 304 137.5 c 128,-1,150
 305 176 305 176 285 203 c 0,151,152
 269 225 269 225 244.5 233 c 128,-1,153
 220 241 220 241 182 239 c 2,154,-1
 164 237 l 2,155,156
 163 237 163 237 142.5 234 c 128,-1,157
 122 231 122 231 112 231 c 1,158,-1
 115 70 l 1,159,-1
 132 70 l 2,142,143
339 230 m 1,160,-1
 349 219 l 1,161,-1
 339 230 l 1,160,-1
285 208 m 1,162,-1
 296 198 l 1,163,-1
 285 208 l 1,162,-1
349 198 m 1,164,-1
 360 187 l 1,165,-1
 349 198 l 1,164,-1
296 187 m 1,166,-1
 307 176 l 1,167,-1
 296 187 l 1,166,-1
296 123 m 1,168,-1
 307 112 l 1,169,-1
 296 123 l 1,168,-1
349 112 m 1,170,-1
 360 102 l 1,171,-1
 349 112 l 1,170,-1
349 102 m 1,172,-1
 360 91 l 1,173,-1
 349 102 l 1,172,-1
285 91 m 1,174,-1
 296 80 l 1,175,-1
 285 91 l 1,174,-1
275 80 m 1,176,-1
 285 70 l 1,177,-1
 275 80 l 1,176,-1
339 59 m 1,178,-1
 349 48 l 1,179,-1
 339 59 l 1,178,-1
328 48 m 1,180,-1
 339 38 l 1,181,-1
 328 48 l 1,180,-1
317 38 m 1,182,-1
 328 27 l 1,183,-1
 317 38 l 1,182,-1
72 16 m 1,184,-1
 61 27 l 1,185,-1
 72 16 l 1,184,-1
307 27 m 1,186,-1
 317 16 l 1,187,-1
 307 27 l 1,186,-1
104 16 m 1,188,-1
 115 6 l 1,189,-1
 104 16 l 1,188,-1
EndSplineSet
EndChar

StartChar: C
Encoding: 67 67 38
Width: 419
GlyphClass: 2
Flags: W
LayerCount: 2
Fore
SplineSet
172 600 m 1,0,-1
 183 589 l 1,1,-1
 172 600 l 1,0,-1
339 544 m 1,2,3
 334 539 334 539 295 539 c 2,4,-1
 272 539 l 2,5,6
 200 539 200 539 170 509 c 1,7,8
 139 489 139 489 126.5 456 c 128,-1,9
 114 423 114 423 114 370 c 2,10,-1
 114 345 l 2,11,12
 114 233 114 233 136.5 168.5 c 128,-1,13
 159 104 159 104 226 78 c 0,14,15
 239 71 239 71 251 70 c 128,-1,16
 263 69 263 69 273 74 c 128,-1,17
 283 79 283 79 290.5 85 c 128,-1,18
 298 91 298 91 308.5 100.5 c 128,-1,19
 319 110 319 110 325 115 c 0,20,21
 339 126 339 126 360 121 c 0,22,23
 389 109 389 109 361 46 c 0,24,25
 359 43 359 43 359 42 c 0,26,27
 329 2 329 2 276 2 c 0,28,29
 228 2 228 2 184 27 c 128,-1,30
 140 52 140 52 113 86 c 0,31,32
 61 147 61 147 52.5 272.5 c 128,-1,33
 44 398 44 398 80 488 c 0,34,35
 92 524 92 524 125.5 555 c 128,-1,36
 159 586 159 586 197 596 c 0,37,38
 293 621 293 621 339 544 c 1,2,3
271 599 m 1,39,-1
 282 588 l 1,40,-1
 271 599 l 1,39,-1
149 588 m 1,41,-1
 160 577 l 1,42,-1
 149 588 l 1,41,-1
316 588 m 1,43,-1
 327 577 l 1,44,-1
 316 588 l 1,43,-1
126 577 m 1,45,-1
 137 566 l 1,46,-1
 126 577 l 1,45,-1
327 577 m 1,47,-1
 338 566 l 1,48,-1
 327 577 l 1,47,-1
115 566 m 1,49,-1
 126 555 l 1,50,-1
 115 566 l 1,49,-1
104 555 m 1,51,-1
 115 543 l 1,52,-1
 104 555 l 1,51,-1
93 543 m 1,53,-1
 104 532 l 1,54,-1
 93 543 l 1,53,-1
204 543 m 1,55,-1
 215 532 l 1,56,-1
 204 543 l 1,55,-1
249 543 m 1,57,-1
 260 532 l 1,58,-1
 249 543 l 1,57,-1
260 543 m 1,59,-1
 271 532 l 1,60,-1
 260 543 l 1,59,-1
327 543 m 1,61,-1
 338 532 l 1,62,-1
 327 543 l 1,61,-1
171 532 m 1,63,-1
 182 521 l 1,64,-1
 171 532 l 1,63,-1
82 521 m 1,65,-1
 93 510 l 1,66,-1
 82 521 l 1,65,-1
160 521 m 1,67,-1
 171 510 l 1,68,-1
 160 521 l 1,67,-1
149 510 m 1,69,-1
 160 499 l 1,70,-1
 149 510 l 1,69,-1
70 499 m 1,71,-1
 82 488 l 1,72,-1
 70 499 l 1,71,-1
137 488 m 1,73,-1
 149 476 l 1,74,-1
 137 488 l 1,73,-1
126 465 m 1,75,-1
 137 454 l 1,76,-1
 126 465 l 1,75,-1
59 454 m 1,77,-1
 70 443 l 1,78,-1
 59 454 l 1,77,-1
115 443 m 1,79,-1
 126 432 l 1,80,-1
 115 443 l 1,79,-1
115 432 m 1,81,-1
 126 421 l 1,82,-1
 115 432 l 1,81,-1
115 209 m 1,83,-1
 126 197 l 1,84,-1
 115 209 l 1,83,-1
59 186 m 1,85,-1
 70 175 l 1,86,-1
 59 186 l 1,85,-1
126 175 m 1,87,-1
 137 164 l 1,88,-1
 126 175 l 1,87,-1
70 164 m 1,89,-1
 82 153 l 1,90,-1
 70 164 l 1,89,-1
137 153 m 1,91,-1
 149 142 l 1,92,-1
 137 153 l 1,91,-1
371 131 m 1,93,94
 355 131 355 131 350 132.5 c 128,-1,95
 345 134 345 134 338 142 c 1,96,-1
 337 141 l 1,97,-1
 345 141 l 2,98,99
 361 141 361 141 371 131 c 1,93,94
81 130 m 1,100,-1
 92 118 l 1,101,-1
 81 130 l 1,100,-1
148 130 m 1,102,-1
 159 118 l 1,103,-1
 148 130 l 1,102,-1
326 130 m 1,104,-1
 337 118 l 1,105,-1
 326 130 l 1,104,-1
371 130 m 1,106,-1
 382 118 l 1,107,-1
 371 130 l 1,106,-1
159 118 m 1,108,-1
 170 107 l 1,109,-1
 159 118 l 1,108,-1
315 118 m 1,110,-1
 326 107 l 1,111,-1
 315 118 l 1,110,-1
92 107 m 1,112,-1
 103 96 l 1,113,-1
 92 107 l 1,112,-1
181 107 m 1,114,-1
 192 96 l 1,115,-1
 181 107 l 1,114,-1
304 85 m 1,116,-1
 315 74 l 1,117,-1
 304 85 l 1,116,-1
371 85 m 1,118,-1
 382 74 l 1,119,-1
 371 85 l 1,118,-1
214 74 m 1,120,-1
 226 63 l 1,121,-1
 214 74 l 1,120,-1
159 51 m 1,122,-1
 170 40 l 1,123,-1
 159 51 l 1,122,-1
360 51 m 1,124,-1
 371 40 l 1,125,-1
 360 51 l 1,124,-1
181 29 m 1,126,-1
 170 40 l 1,127,-1
 181 29 l 1,126,-1
348 40 m 1,128,-1
 360 29 l 1,129,-1
 348 40 l 1,128,-1
337 18 m 1,130,-1
 348 7 l 1,131,-1
 337 18 l 1,130,-1
EndSplineSet
EndChar

StartChar: D
Encoding: 68 68 39
Width: 432
GlyphClass: 2
Flags: W
LayerCount: 2
Fore
SplineSet
74 606 m 1,0,1
 84 606 84 606 74 596 c 1,2,3
 62 596 62 596 74 606 c 1,0,1
93 606 m 1,4,5
 103 606 103 606 93 596 c 1,6,7
 83 596 83 596 93 606 c 1,4,5
49 90 m 2,8,9
 49 93 49 93 50 101 c 128,-1,10
 51 109 51 109 51 113 c 2,11,-1
 51 323 l 2,12,13
 51 343 51 343 48.5 387.5 c 128,-1,14
 46 432 46 432 45.5 460.5 c 128,-1,15
 45 489 45 489 51 522.5 c 128,-1,16
 57 556 57 556 71 576 c 0,17,18
 83 593 83 593 104 596 c 1,19,-1
 102 592 l 1,20,21
 187 607 187 607 277 507 c 0,22,23
 355 419 355 419 383 330 c 1,24,-1
 383 157 l 2,25,26
 383 85 383 85 354.5 49.5 c 128,-1,27
 326 14 326 14 259 14 c 2,28,-1
 236 14 l 2,29,30
 217 14 217 14 180.5 17 c 128,-1,31
 144 20 144 20 125 20 c 0,32,33
 72 20 72 20 62 42 c 1,34,35
 49 53 49 53 49 79 c 2,36,-1
 49 90 l 2,8,9
134 602 m 1,37,-1
 144 592 l 1,38,-1
 134 602 l 1,37,-1
50 592 m 1,39,-1
 61 581 l 1,40,-1
 50 592 l 1,39,-1
165 592 m 1,41,-1
 176 581 l 1,42,-1
 165 592 l 1,41,-1
186 581 m 1,43,-1
 197 571 l 1,44,-1
 186 581 l 1,43,-1
207 571 m 1,45,-1
 217 560 l 1,46,-1
 207 571 l 1,45,-1
227 560 m 1,47,-1
 238 551 l 1,48,-1
 227 560 l 1,47,-1
101 68 m 1,49,50
 116 68 116 68 151.5 65 c 128,-1,51
 187 62 187 62 204 62 c 0,52,53
 312 62 312 62 328 135 c 2,54,-1
 332 153 l 2,55,56
 333 160 333 160 333 209 c 2,57,-1
 333 225 l 2,58,59
 333 349 333 349 271 430.5 c 128,-1,60
 209 512 209 512 102 551 c 1,61,-1
 101 68 l 1,49,50
248 550 m 1,62,-1
 258 539 l 1,63,-1
 248 550 l 1,62,-1
258 539 m 1,64,-1
 269 529 l 1,65,-1
 258 539 l 1,64,-1
269 518 m 1,66,-1
 279 508 l 1,67,-1
 269 518 l 1,66,-1
279 508 m 1,68,-1
 290 497 l 1,69,-1
 279 508 l 1,68,-1
226 487 m 1,70,-1
 237 476 l 1,71,-1
 226 487 l 1,70,-1
290 487 m 1,72,-1
 300 476 l 1,73,-1
 290 487 l 1,72,-1
300 466 m 1,74,-1
 311 455 l 1,75,-1
 300 466 l 1,74,-1
248 455 m 1,76,-1
 258 444 l 1,77,-1
 248 455 l 1,76,-1
311 455 m 1,78,-1
 321 444 l 1,79,-1
 311 455 l 1,78,-1
321 444 m 1,80,-1
 332 434 l 1,81,-1
 321 444 l 1,80,-1
258 434 m 1,82,-1
 269 424 l 1,83,-1
 258 434 l 1,82,-1
332 434 m 1,84,-1
 341 424 l 1,85,-1
 332 434 l 1,84,-1
341 414 m 1,86,-1
 352 403 l 1,87,-1
 341 414 l 1,86,-1
352 403 m 1,88,-1
 362 393 l 1,89,-1
 352 403 l 1,88,-1
300 382 m 1,90,-1
 311 372 l 1,91,-1
 300 382 l 1,90,-1
362 372 m 1,92,-1
 373 361 l 1,93,-1
 362 372 l 1,92,-1
311 361 m 1,94,-1
 321 351 l 1,95,-1
 311 361 l 1,94,-1
373 351 m 1,96,-1
 383 340 l 1,97,-1
 373 351 l 1,96,-1
321 330 m 1,98,-1
 332 319 l 1,99,-1
 321 330 l 1,98,-1
321 121 m 1,100,-1
 332 110 l 1,101,-1
 321 121 l 1,100,-1
311 100 m 1,102,-1
 321 89 l 1,103,-1
 311 100 l 1,102,-1
373 89 m 1,104,-1
 383 79 l 1,105,-1
 373 89 l 1,104,-1
290 79 m 1,106,-1
 300 68 l 1,107,-1
 290 79 l 1,106,-1
362 68 m 1,108,-1
 373 59 l 1,109,-1
 362 68 l 1,108,-1
352 48 m 1,110,-1
 362 38 l 1,111,-1
 352 48 l 1,110,-1
49 38 m 1,112,-1
 60 27 l 1,113,-1
 49 38 l 1,112,-1
341 38 m 1,114,-1
 352 27 l 1,115,-1
 341 38 l 1,114,-1
321 27 m 1,116,-1
 332 17 l 1,117,-1
 321 27 l 1,116,-1
EndSplineSet
EndChar

StartChar: E
Encoding: 69 69 40
Width: 443
GlyphClass: 2
Flags: W
LayerCount: 2
Fore
SplineSet
344 609 m 1,0,-1
 332 622 l 1,1,-1
 344 609 l 1,0,-1
357 609 m 1,2,-1
 344 622 l 1,3,-1
 357 609 l 1,2,-1
369 609 m 1,4,-1
 357 622 l 1,5,-1
 369 609 l 1,4,-1
93 597 m 1,6,-1
 81 609 l 1,7,-1
 93 597 l 1,6,-1
383 12 m 1,8,9
 346 -4 346 -4 282 -4 c 0,10,11
 263 -4 263 -4 226 -2 c 128,-1,12
 189 0 189 0 170 0 c 2,13,-1
 159 0 l 2,14,15
 156 0 156 0 148 -1 c 128,-1,16
 140 -2 140 -2 136 -2 c 2,17,-1
 124 -2 l 2,18,19
 92 -2 92 -2 79 14 c 1,20,21
 55 30 55 30 52 66 c 128,-1,22
 49 102 49 102 57.5 156.5 c 128,-1,23
 66 211 66 211 66 228 c 0,24,25
 55 292 55 292 55 407 c 2,26,-1
 55 466 l 2,27,28
 55 541 55 541 68 580 c 1,29,30
 85 597 85 597 101.5 601 c 128,-1,31
 118 605 118 605 155 605 c 0,32,33
 175 605 175 605 212 607 c 128,-1,34
 249 609 249 609 269 609 c 0,35,36
 335 609 335 609 383 594 c 1,37,38
 362 563 362 563 324.5 551.5 c 128,-1,39
 287 540 287 540 228 540 c 0,40,41
 211 540 211 540 172.5 542.5 c 128,-1,42
 134 545 134 545 118 545 c 1,43,-1
 118 394 l 1,44,45
 142 394 142 394 195 398.5 c 128,-1,46
 248 403 248 403 277 402 c 0,47,48
 327 400 327 400 358.5 387 c 128,-1,49
 390 374 390 374 408 344 c 1,50,51
 353 329 353 329 263 329 c 0,52,53
 238 329 238 329 190.5 331 c 128,-1,54
 143 333 143 333 118 333 c 1,55,56
 127 277 127 277 130.5 242 c 128,-1,57
 134 207 134 207 132 158.5 c 128,-1,58
 130 110 130 110 118 69 c 1,59,60
 132 69 132 69 168.5 71.5 c 128,-1,61
 205 74 205 74 221 74 c 0,62,63
 282 74 282 74 321.5 62.5 c 128,-1,64
 361 51 361 51 382 20 c 1,65,-1
 383 12 l 1,8,9
383 589 m 1,66,-1
 370 601 l 1,67,-1
 383 589 l 1,66,-1
69 564 m 1,68,-1
 57 576 l 1,69,-1
 69 564 l 1,68,-1
383 564 m 1,70,-1
 370 576 l 1,71,-1
 383 564 l 1,70,-1
383 551 m 1,72,-1
 370 564 l 1,73,-1
 383 551 l 1,72,-1
358 539 m 1,74,-1
 345 551 l 1,75,-1
 358 539 l 1,74,-1
370 539 m 1,76,-1
 358 551 l 1,77,-1
 370 539 l 1,76,-1
395 376 m 1,78,-1
 383 388 l 1,79,-1
 395 376 l 1,78,-1
408 363 m 1,80,-1
 395 376 l 1,81,-1
 408 363 l 1,80,-1
408 325 m 1,82,-1
 395 338 l 1,83,-1
 408 325 l 1,82,-1
132 263 m 1,84,-1
 119 275 l 1,85,-1
 132 263 l 1,84,-1
69 250 m 1,86,-1
 57 263 l 1,87,-1
 69 250 l 1,86,-1
57 112 m 1,88,-1
 69 99 l 1,89,-1
 57 112 l 1,88,-1
119 74 m 1,90,-1
 132 62 l 1,91,-1
 119 74 l 1,90,-1
370 49 m 1,92,-1
 358 62 l 1,93,-1
 370 49 l 1,92,-1
383 37 m 1,94,-1
 370 49 l 1,95,-1
 383 37 l 1,94,-1
69 12 m 1,96,-1
 57 24 l 1,97,-1
 69 12 l 1,96,-1
383 -1 m 1,98,-1
 370 12 l 1,99,-1
 383 -1 l 1,98,-1
EndSplineSet
EndChar

StartChar: F
Encoding: 70 70 41
Width: 439
GlyphClass: 2
Flags: W
LayerCount: 2
Fore
SplineSet
68 9 m 1,0,1
 52 61 52 61 49.5 127 c 128,-1,2
 47 193 47 193 52 288 c 128,-1,3
 57 383 57 383 57 419 c 2,4,-1
 57 437 l 2,5,6
 57 444 57 444 56 458.5 c 128,-1,7
 55 473 55 473 55 481 c 2,8,-1
 55 504 l 2,9,10
 55 561 55 561 70 589 c 0,11,12
 72 596 72 596 77 600.5 c 128,-1,13
 82 605 82 605 86.5 607.5 c 128,-1,14
 91 610 91 610 100.5 611 c 128,-1,15
 110 612 110 612 115 612.5 c 128,-1,16
 120 613 120 613 132.5 612.5 c 128,-1,17
 145 612 145 612 149 612 c 2,18,-1
 163 612 l 2,19,20
 175 612 175 612 208.5 614.5 c 128,-1,21
 242 617 242 617 257 617 c 0,22,23
 372 617 372 617 403 568 c 1,24,25
 345 553 345 553 261 553 c 0,26,27
 237 553 237 553 190 555 c 128,-1,28
 143 557 143 557 119 557 c 1,29,-1
 119 376 l 1,30,-1
 313 376 l 1,31,-1
 313 318 l 1,32,-1
 119 318 l 1,33,-1
 119 81 l 2,34,35
 119 25 119 25 75 12 c 1,36,-1
 68 9 l 1,0,1
374 610 m 1,37,-1
 385 599 l 1,38,-1
 374 610 l 1,37,-1
385 599 m 1,39,-1
 397 588 l 1,40,-1
 385 599 l 1,39,-1
385 565 m 1,41,-1
 397 554 l 1,42,-1
 385 565 l 1,41,-1
57 32 m 1,43,-1
 68 21 l 1,44,-1
 57 32 l 1,43,-1
102 21 m 1,45,-1
 113 9 l 1,46,-1
 102 21 l 1,45,-1
EndSplineSet
EndChar

StartChar: G
Encoding: 71 71 42
Width: 495
GlyphClass: 2
Flags: W
LayerCount: 2
Fore
SplineSet
207 607 m 1,0,-1
 219 596 l 1,1,-1
 207 607 l 1,0,-1
91 192 m 1,2,3
 186 231 186 231 302 231 c 0,4,5
 366 231 366 231 410 210 c 128,-1,6
 454 189 454 189 458 142 c 1,7,8
 458 63 458 63 348 20 c 1,9,10
 310 11 310 11 266 11 c 0,11,12
 187 11 187 11 127 41.5 c 128,-1,13
 67 72 67 72 43 127 c 0,14,15
 -7 260 -7 260 104 461 c 0,16,17
 134 514 134 514 166 556 c 0,18,19
 190 585 190 585 233 598 c 128,-1,20
 276 611 276 611 320.5 601 c 128,-1,21
 365 591 365 591 388 557 c 1,22,23
 368 552 368 552 350 552 c 0,24,25
 271 552 271 552 243 534 c 0,26,27
 193 500 193 500 169 435 c 1,28,29
 133 371 133 371 115 318.5 c 128,-1,30
 97 266 97 266 97 192 c 1,31,-1
 91 192 l 1,2,3
360 607 m 1,32,-1
 372 596 l 1,33,-1
 360 607 l 1,32,-1
177 596 m 1,34,-1
 189 584 l 1,35,-1
 177 596 l 1,34,-1
372 596 m 1,36,-1
 384 584 l 1,37,-1
 372 596 l 1,36,-1
164 584 m 1,38,-1
 177 571 l 1,39,-1
 164 584 l 1,38,-1
152 559 m 1,40,-1
 164 547 l 1,41,-1
 152 559 l 1,40,-1
372 559 m 1,42,-1
 384 547 l 1,43,-1
 372 559 l 1,42,-1
139 547 m 1,44,-1
 152 535 l 1,45,-1
 139 547 l 1,44,-1
238 535 m 1,46,-1
 226 547 l 1,47,-1
 238 535 l 1,46,-1
128 535 m 1,48,-1
 139 522 l 1,49,-1
 128 535 l 1,48,-1
226 522 m 1,50,-1
 213 535 l 1,51,-1
 226 522 l 1,50,-1
213 510 m 1,52,-1
 201 522 l 1,53,-1
 213 510 l 1,52,-1
115 497 m 1,54,-1
 128 486 l 1,55,-1
 115 497 l 1,54,-1
189 497 m 1,56,-1
 201 486 l 1,57,-1
 189 497 l 1,56,-1
103 486 m 1,58,-1
 115 473 l 1,59,-1
 103 486 l 1,58,-1
177 486 m 1,60,-1
 189 473 l 1,61,-1
 177 486 l 1,60,-1
177 473 m 1,62,-1
 189 461 l 1,63,-1
 177 473 l 1,62,-1
91 449 m 1,64,-1
 103 436 l 1,65,-1
 91 449 l 1,64,-1
164 449 m 1,66,-1
 177 436 l 1,67,-1
 164 449 l 1,66,-1
78 436 m 1,68,-1
 91 425 l 1,69,-1
 78 436 l 1,68,-1
152 436 m 1,70,-1
 164 425 l 1,71,-1
 152 436 l 1,70,-1
152 425 m 1,72,-1
 164 412 l 1,73,-1
 152 425 l 1,72,-1
67 400 m 1,74,-1
 78 387 l 1,75,-1
 67 400 l 1,74,-1
139 400 m 1,76,-1
 152 387 l 1,77,-1
 139 400 l 1,76,-1
128 387 m 1,78,-1
 139 376 l 1,79,-1
 128 387 l 1,78,-1
54 376 m 1,80,-1
 67 363 l 1,81,-1
 54 376 l 1,80,-1
128 376 m 1,82,-1
 139 363 l 1,83,-1
 128 376 l 1,82,-1
115 363 m 1,84,-1
 128 351 l 1,85,-1
 115 363 l 1,84,-1
42 351 m 1,86,-1
 54 339 l 1,87,-1
 42 351 l 1,86,-1
115 351 m 1,88,-1
 128 339 l 1,89,-1
 115 351 l 1,88,-1
29 339 m 1,90,-1
 42 326 l 1,91,-1
 29 339 l 1,90,-1
115 326 m 1,92,-1
 103 339 l 1,93,-1
 115 326 l 1,92,-1
103 326 m 1,94,-1
 115 315 l 1,95,-1
 103 326 l 1,94,-1
103 290 m 1,96,-1
 91 302 l 1,97,-1
 103 290 l 1,96,-1
152 229 m 1,98,-1
 164 216 l 1,99,-1
 152 229 l 1,98,-1
409 229 m 1,100,-1
 421 216 l 1,101,-1
 409 229 l 1,100,-1
115 216 m 1,102,-1
 128 205 l 1,103,-1
 115 216 l 1,102,-1
421 216 m 1,104,-1
 433 205 l 1,105,-1
 421 216 l 1,104,-1
103 192 m 1,106,-1
 91 205 l 1,107,-1
 103 192 l 1,106,-1
433 205 m 1,108,-1
 446 192 l 1,109,-1
 433 205 l 1,108,-1
446 192 m 1,110,-1
 458 180 l 1,111,-1
 446 192 l 1,110,-1
164 167 m 1,112,-1
 177 155 l 1,113,-1
 164 167 l 1,112,-1
177 167 m 1,114,-1
 189 155 l 1,115,-1
 177 167 l 1,114,-1
127 129 m 1,116,117
 153 108 153 108 194.5 92.5 c 128,-1,118
 236 77 236 77 276 77 c 0,119,120
 322 77 322 77 353 97 c 128,-1,121
 384 117 384 117 397 154 c 1,122,123
 331 174 331 174 252.5 168 c 128,-1,124
 174 162 174 162 128 131 c 1,125,-1
 127 129 l 1,116,117
28 153 m 1,126,-1
 41 141 l 1,127,-1
 28 153 l 1,126,-1
151 153 m 1,128,-1
 163 141 l 1,129,-1
 151 153 l 1,128,-1
127 141 m 1,130,-1
 138 129 l 1,131,-1
 127 141 l 1,130,-1
114 129 m 1,132,-1
 127 116 l 1,133,-1
 114 129 l 1,132,-1
383 129 m 1,134,-1
 396 116 l 1,135,-1
 383 129 l 1,134,-1
41 116 m 1,136,-1
 53 104 l 1,137,-1
 41 116 l 1,136,-1
138 116 m 1,138,-1
 151 104 l 1,139,-1
 138 116 l 1,138,-1
176 104 m 1,140,-1
 188 93 l 1,141,-1
 176 104 l 1,140,-1
359 104 m 1,142,-1
 371 93 l 1,143,-1
 359 104 l 1,142,-1
200 93 m 1,144,-1
 212 80 l 1,145,-1
 200 93 l 1,144,-1
322 93 m 1,146,-1
 335 80 l 1,147,-1
 322 93 l 1,146,-1
445 93 m 1,148,-1
 457 80 l 1,149,-1
 445 93 l 1,148,-1
90 68 m 1,150,-1
 102 55 l 1,151,-1
 90 68 l 1,150,-1
102 68 m 1,152,-1
 114 55 l 1,153,-1
 102 68 l 1,152,-1
432 68 m 1,154,-1
 445 55 l 1,155,-1
 432 68 l 1,154,-1
114 55 m 1,156,-1
 127 43 l 1,157,-1
 114 55 l 1,156,-1
127 55 m 1,158,-1
 138 43 l 1,159,-1
 127 55 l 1,158,-1
396 55 m 1,160,-1
 408 43 l 1,161,-1
 396 55 l 1,160,-1
408 55 m 1,162,-1
 420 43 l 1,163,-1
 408 55 l 1,162,-1
371 43 m 1,164,-1
 383 31 l 1,165,-1
 371 43 l 1,164,-1
383 43 m 1,166,-1
 396 31 l 1,167,-1
 383 43 l 1,166,-1
359 31 m 1,168,-1
 371 19 l 1,169,-1
 359 31 l 1,168,-1
EndSplineSet
EndChar

StartChar: H
Encoding: 72 72 43
Width: 421
GlyphClass: 2
Flags: W
LayerCount: 2
Fore
SplineSet
53 3 m 1,0,1
 42 46 42 46 42 98 c 0,2,3
 42 124 42 124 47.5 174.5 c 128,-1,4
 53 225 53 225 53 253 c 0,5,6
 53 291 53 291 47 359 c 128,-1,7
 41 427 41 427 41 465 c 2,8,-1
 41 481 l 2,9,10
 41 487 41 487 40 501.5 c 128,-1,11
 39 516 39 516 39 523 c 2,12,-1
 39 546 l 2,13,14
 39 602 39 602 54 617 c 1,15,16
 69 625 69 625 89 608 c 0,17,18
 106 589 106 589 106 581 c 0,19,20
 119 519 119 519 119 369 c 1,21,-1
 166 369 l 2,22,23
 254 369 254 369 305 358 c 1,24,-1
 305 470 l 2,25,26
 305 559 305 559 319 596 c 1,27,-1
 329 606 l 2,28,29
 351 628 351 628 372 607 c 0,30,31
 383 596 383 596 383.5 571 c 128,-1,32
 384 546 384 546 379 513.5 c 128,-1,33
 374 481 374 481 374 471 c 2,34,-1
 374 139 l 2,35,36
 374 134 374 134 374.5 122 c 128,-1,37
 375 110 375 110 374.5 102 c 128,-1,38
 374 94 374 94 372 86 c 0,39,40
 361 48 361 48 323 33 c 1,41,42
 308 88 308 88 308 165 c 0,43,44
 308 188 308 188 310 231 c 128,-1,45
 312 274 312 274 312 297 c 1,46,47
 246 311 246 311 126 311 c 1,48,49
 126 294 126 294 128 259.5 c 128,-1,50
 130 225 130 225 130 206 c 0,51,52
 130 31 130 31 60 13 c 1,53,-1
 53 3 l 1,0,1
303 554 m 1,54,-1
 316 541 l 1,55,-1
 303 554 l 1,54,-1
379 529 m 1,56,-1
 367 541 l 1,57,-1
 379 529 l 1,56,-1
367 529 m 1,58,-1
 379 516 l 1,59,-1
 367 529 l 1,58,-1
116 429 m 1,60,-1
 104 442 l 1,61,-1
 116 429 l 1,60,-1
40 416 m 1,62,-1
 53 403 l 1,63,-1
 40 416 l 1,62,-1
291 366 m 1,64,-1
 303 354 l 1,65,-1
 291 366 l 1,64,-1
40 203 m 1,66,-1
 53 191 l 1,67,-1
 40 203 l 1,66,-1
104 165 m 1,68,-1
 116 153 l 1,69,-1
 104 165 l 1,68,-1
303 52 m 1,70,-1
 316 40 l 1,71,-1
 303 52 l 1,70,-1
354 40 m 1,72,-1
 367 27 l 1,73,-1
 354 40 l 1,72,-1
40 27 m 1,74,-1
 53 15 l 1,75,-1
 40 27 l 1,74,-1
91 15 m 1,76,-1
 104 3 l 1,77,-1
 91 15 l 1,76,-1
EndSplineSet
EndChar

StartChar: I
Encoding: 73 73 44
Width: 373
GlyphClass: 2
Flags: W
LayerCount: 2
Fore
SplineSet
45 627 m 1,0,-1
 58 615 l 1,1,-1
 45 627 l 1,0,-1
57 61 m 1,2,3
 83 75 83 75 133 75 c 2,4,-1
 156 75 l 1,5,-1
 156 566 l 1,6,-1
 153 567 l 1,7,-1
 122 567 l 2,8,9
 51 567 51 567 46 587 c 0,10,11
 44 593 44 593 53 602 c 1,12,13
 64 624 64 624 118 624 c 2,14,-1
 139 624 l 2,15,16
 149 624 149 624 195 627 c 128,-1,17
 241 630 241 630 252 627 c 0,18,19
 315 620 315 620 337 576 c 1,20,21
 303 563 303 563 244 563 c 2,22,-1
 216 563 l 1,23,-1
 216 72 l 1,24,-1
 234 72 l 2,25,26
 315 72 315 72 339 22 c 1,27,28
 301 7 301 7 239 7 c 0,29,30
 220 7 220 7 184.5 9 c 128,-1,31
 149 11 149 11 130 11 c 0,32,33
 115 11 115 11 100 12 c 128,-1,34
 85 13 85 13 66 16.5 c 128,-1,35
 47 20 47 20 37.5 28 c 128,-1,36
 28 36 28 36 33 47 c 0,37,38
 39 61 39 61 57 61 c 1,2,3
313 628 m 1,39,-1
 324 616 l 1,40,-1
 313 628 l 1,39,-1
31 616 m 1,41,-1
 42 604 l 1,42,-1
 31 616 l 1,41,-1
324 616 m 1,43,-1
 337 604 l 1,44,-1
 324 616 l 1,43,-1
31 591 m 1,45,-1
 42 580 l 1,46,-1
 31 591 l 1,45,-1
324 580 m 1,47,-1
 337 567 l 1,48,-1
 324 580 l 1,47,-1
31 76 m 1,49,-1
 42 63 l 1,50,-1
 31 76 l 1,49,-1
313 76 m 1,51,-1
 324 63 l 1,52,-1
 313 76 l 1,51,-1
18 63 m 1,53,-1
 31 52 l 1,54,-1
 18 63 l 1,53,-1
324 63 m 1,55,-1
 337 52 l 1,56,-1
 324 63 l 1,55,-1
18 39 m 1,57,-1
 31 27 l 1,58,-1
 18 39 l 1,57,-1
324 27 m 1,59,-1
 337 15 l 1,60,-1
 324 27 l 1,59,-1
EndSplineSet
EndChar

StartChar: J
Encoding: 74 74 45
Width: 398
GlyphClass: 2
Flags: W
LayerCount: 2
Fore
SplineSet
40 604 m 1,0,-1
 53 591 l 1,1,-1
 40 604 l 1,0,-1
349 448 m 2,2,-1
 349 429 l 2,3,4
 349 409 349 409 350.5 365 c 128,-1,5
 352 321 352 321 351.5 288.5 c 128,-1,6
 351 256 351 256 347 227 c 0,7,8
 338 156 338 156 306 113 c 128,-1,9
 274 70 274 70 214 38 c 0,10,11
 193 27 193 27 169 20 c 128,-1,12
 145 13 145 13 118.5 17 c 128,-1,13
 92 21 92 21 79 41 c 0,14,15
 60 67 60 67 47 117 c 128,-1,16
 34 167 34 167 36 211 c 0,17,18
 38 240 38 240 52 250 c 1,19,20
 68 255 68 255 78.5 250.5 c 128,-1,21
 89 246 89 246 95 235 c 0,22,23
 99 227 99 227 104 223 c 0,24,25
 118 170 118 170 118 82 c 1,26,27
 205 109 205 109 245.5 177.5 c 128,-1,28
 286 246 286 246 289 359 c 0,29,30
 290 393 290 393 288.5 454.5 c 128,-1,31
 287 516 287 516 287 538 c 1,32,33
 277 538 277 538 225 535.5 c 128,-1,34
 173 533 173 533 149 535 c 0,35,36
 65 542 65 542 40 591 c 1,37,-1
 35 585 l 1,38,39
 98 595 98 595 136.5 600 c 128,-1,40
 175 605 175 605 234.5 600 c 128,-1,41
 294 595 294 595 323 572 c 0,42,43
 330 567 330 567 334.5 561 c 128,-1,44
 339 555 339 555 342 546 c 128,-1,45
 345 537 345 537 346.5 530.5 c 128,-1,46
 348 524 348 524 348.5 511.5 c 128,-1,47
 349 499 349 499 349 492.5 c 128,-1,48
 349 486 349 486 349 470.5 c 128,-1,49
 349 455 349 455 349 448 c 2,2,-1
308 598 m 1,50,-1
 322 585 l 1,51,-1
 308 598 l 1,50,-1
322 585 m 1,52,-1
 335 571 l 1,53,-1
 322 585 l 1,52,-1
35 559 m 1,54,-1
 48 545 l 1,55,-1
 35 559 l 1,54,-1
347 545 m 1,56,-1
 335 559 l 1,57,-1
 347 545 l 1,56,-1
282 520 m 1,58,-1
 269 533 l 1,59,-1
 282 520 l 1,58,-1
269 234 m 1,60,-1
 282 220 l 1,61,-1
 269 234 l 1,60,-1
257 207 m 1,62,-1
 269 195 l 1,63,-1
 257 207 l 1,62,-1
113 181 m 1,64,-1
 100 195 l 1,65,-1
 113 181 l 1,64,-1
335 195 m 1,66,-1
 347 181 l 1,67,-1
 335 195 l 1,66,-1
257 169 m 1,68,-1
 243 181 l 1,69,-1
 257 169 l 1,68,-1
35 169 m 1,70,-1
 48 156 l 1,71,-1
 35 169 l 1,70,-1
335 156 m 1,72,-1
 322 169 l 1,73,-1
 335 156 l 1,72,-1
231 156 m 1,74,-1
 243 143 l 1,75,-1
 231 156 l 1,74,-1
308 143 m 1,76,-1
 322 129 l 1,77,-1
 308 143 l 1,76,-1
231 117 m 1,78,-1
 217 129 l 1,79,-1
 231 117 l 1,78,-1
204 103 m 1,80,-1
 191 117 l 1,81,-1
 204 103 l 1,80,-1
295 117 m 1,82,-1
 308 103 l 1,83,-1
 295 117 l 1,82,-1
165 103 m 1,84,-1
 179 91 l 1,85,-1
 165 103 l 1,84,-1
126 78 m 1,86,-1
 113 91 l 1,87,-1
 126 78 l 1,86,-1
139 91 m 1,88,-1
 153 78 l 1,89,-1
 139 91 l 1,88,-1
282 91 m 1,90,-1
 295 78 l 1,91,-1
 282 91 l 1,90,-1
269 78 m 1,92,-1
 282 65 l 1,93,-1
 269 78 l 1,92,-1
48 65 m 1,94,-1
 61 51 l 1,95,-1
 48 65 l 1,94,-1
257 65 m 1,96,-1
 269 51 l 1,97,-1
 257 65 l 1,96,-1
243 38 m 1,98,-1
 231 51 l 1,99,-1
 243 38 l 1,98,-1
217 25 m 1,100,-1
 204 38 l 1,101,-1
 217 25 l 1,100,-1
191 13 m 1,102,-1
 179 25 l 1,103,-1
 191 13 l 1,102,-1
EndSplineSet
EndChar

StartChar: K
Encoding: 75 75 46
Width: 487
GlyphClass: 2
Flags: W
LayerCount: 2
Fore
SplineSet
455 538 m 1,0,1
 445 521 445 521 430 505 c 128,-1,2
 415 489 415 489 402 477.5 c 128,-1,3
 389 466 389 466 366 452.5 c 128,-1,4
 343 439 343 439 330 431.5 c 128,-1,5
 317 424 317 424 288 411.5 c 128,-1,6
 259 399 259 399 249 394.5 c 128,-1,7
 239 390 239 390 206 377.5 c 128,-1,8
 173 365 173 365 166 362 c 1,9,10
 195 324 195 324 234 294 c 2,11,-1
 274 264 l 2,12,13
 340 214 340 214 389 167 c 0,14,15
 423 132 423 132 443 86 c 1,16,17
 432 84 432 84 422.5 84 c 128,-1,18
 413 84 413 84 405.5 85 c 128,-1,19
 398 86 398 86 389.5 89.5 c 128,-1,20
 381 93 381 93 376 96 c 128,-1,21
 371 99 371 99 363.5 105 c 128,-1,22
 356 111 356 111 352.5 114.5 c 128,-1,23
 349 118 349 118 341.5 126 c 128,-1,24
 334 134 334 134 332 136 c 2,25,-1
 318 150 l 2,26,27
 293 171 293 171 231.5 212 c 128,-1,28
 170 253 170 253 142 279 c 0,29,30
 130 290 130 290 118 302 c 1,31,32
 118 277 118 277 122.5 222 c 128,-1,33
 127 167 127 167 127 139 c 0,34,35
 127 29 127 29 69 13 c 1,36,-1
 63 7 l 1,37,38
 32 124 32 124 47 341 c 0,39,40
 50 396 50 396 50 449 c 2,41,-1
 50 465 l 2,42,43
 50 471 50 471 49 485.5 c 128,-1,44
 48 500 48 500 48 508 c 2,45,-1
 48 530 l 2,46,47
 48 586 48 586 63 601 c 1,48,49
 77 608 77 608 89.5 599.5 c 128,-1,50
 102 591 102 591 109 577 c 0,51,52
 114 567 114 567 114 564 c 2,53,-1
 114 412 l 1,54,55
 147 424 147 424 207 458.5 c 128,-1,56
 267 493 267 493 280 499 c 0,57,58
 295 507 295 507 305 511.5 c 128,-1,59
 315 516 315 516 331 523 c 128,-1,60
 347 530 347 530 360 533.5 c 128,-1,61
 373 537 373 537 389.5 540 c 128,-1,62
 406 543 406 543 422.5 542.5 c 128,-1,63
 439 542 439 542 455 538 c 1,0,1
403 562 m 1,64,-1
 415 549 l 1,65,-1
 403 562 l 1,64,-1
415 562 m 1,66,-1
 428 549 l 1,67,-1
 415 562 l 1,66,-1
428 562 m 1,68,-1
 441 549 l 1,69,-1
 428 562 l 1,68,-1
378 549 m 1,70,-1
 390 536 l 1,71,-1
 378 549 l 1,70,-1
441 549 m 1,72,-1
 453 536 l 1,73,-1
 441 549 l 1,72,-1
352 536 m 1,74,-1
 365 524 l 1,75,-1
 352 536 l 1,74,-1
352 511 m 1,76,-1
 340 524 l 1,77,-1
 352 511 l 1,76,-1
453 511 m 1,78,-1
 441 524 l 1,79,-1
 453 511 l 1,78,-1
327 499 m 1,80,-1
 315 511 l 1,81,-1
 327 499 l 1,80,-1
453 499 m 1,82,-1
 441 511 l 1,83,-1
 453 499 l 1,82,-1
302 486 m 1,84,-1
 289 499 l 1,85,-1
 302 486 l 1,84,-1
441 486 m 1,86,-1
 428 499 l 1,87,-1
 441 486 l 1,86,-1
277 473 m 1,88,-1
 264 486 l 1,89,-1
 277 473 l 1,88,-1
415 486 m 1,90,-1
 428 473 l 1,91,-1
 415 486 l 1,90,-1
226 473 m 1,92,-1
 239 461 l 1,93,-1
 226 473 l 1,92,-1
403 461 m 1,94,-1
 390 473 l 1,95,-1
 403 461 l 1,94,-1
226 448 m 1,96,-1
 214 461 l 1,97,-1
 226 448 l 1,96,-1
352 461 m 1,98,-1
 365 448 l 1,99,-1
 352 461 l 1,98,-1
365 461 m 1,100,-1
 378 448 l 1,101,-1
 365 461 l 1,100,-1
189 448 m 1,102,-1
 201 436 l 1,103,-1
 189 448 l 1,102,-1
327 448 m 1,104,-1
 340 436 l 1,105,-1
 327 448 l 1,104,-1
340 448 m 1,106,-1
 352 436 l 1,107,-1
 340 448 l 1,106,-1
151 436 m 1,108,-1
 164 423 l 1,109,-1
 151 436 l 1,108,-1
302 436 m 1,110,-1
 315 423 l 1,111,-1
 302 436 l 1,110,-1
315 436 m 1,112,-1
 327 423 l 1,113,-1
 315 436 l 1,112,-1
138 423 m 1,114,-1
 151 410 l 1,115,-1
 138 423 l 1,114,-1
277 423 m 1,116,-1
 289 410 l 1,117,-1
 277 423 l 1,116,-1
252 410 m 1,118,-1
 264 398 l 1,119,-1
 252 410 l 1,118,-1
226 398 m 1,120,-1
 239 385 l 1,121,-1
 226 398 l 1,120,-1
239 398 m 1,122,-1
 252 385 l 1,123,-1
 239 398 l 1,122,-1
201 385 m 1,124,-1
 214 373 l 1,125,-1
 201 385 l 1,124,-1
214 385 m 1,126,-1
 226 373 l 1,127,-1
 214 385 l 1,126,-1
176 373 m 1,128,-1
 189 360 l 1,129,-1
 176 373 l 1,128,-1
164 360 m 1,130,-1
 176 348 l 1,131,-1
 164 360 l 1,130,-1
164 348 m 1,132,-1
 176 335 l 1,133,-1
 164 348 l 1,132,-1
201 310 m 1,134,-1
 189 322 l 1,135,-1
 201 310 l 1,134,-1
214 310 m 1,136,-1
 226 297 l 1,137,-1
 214 310 l 1,136,-1
239 297 m 1,138,-1
 252 285 l 1,139,-1
 239 297 l 1,138,-1
126 285 m 1,140,-1
 138 272 l 1,141,-1
 126 285 l 1,140,-1
252 285 m 1,142,-1
 264 272 l 1,143,-1
 252 285 l 1,142,-1
138 272 m 1,144,-1
 151 259 l 1,145,-1
 138 272 l 1,144,-1
289 247 m 1,146,-1
 277 259 l 1,147,-1
 289 247 l 1,146,-1
302 234 m 1,148,-1
 289 247 l 1,149,-1
 302 234 l 1,148,-1
327 222 m 1,150,-1
 315 234 l 1,151,-1
 327 222 l 1,150,-1
239 209 m 1,152,-1
 226 222 l 1,153,-1
 239 209 l 1,152,-1
340 222 m 1,154,-1
 352 209 l 1,155,-1
 340 222 l 1,154,-1
352 209 m 1,156,-1
 365 196 l 1,157,-1
 352 209 l 1,156,-1
365 196 m 1,158,-1
 378 184 l 1,159,-1
 365 196 l 1,158,-1
378 184 m 1,160,-1
 390 171 l 1,161,-1
 378 184 l 1,160,-1
390 171 m 1,162,-1
 403 159 l 1,163,-1
 390 171 l 1,162,-1
403 159 m 1,164,-1
 415 146 l 1,165,-1
 403 159 l 1,164,-1
415 133 m 1,166,-1
 428 121 l 1,167,-1
 415 133 l 1,166,-1
428 121 m 1,168,-1
 441 108 l 1,169,-1
 428 121 l 1,168,-1
352 108 m 1,170,-1
 365 96 l 1,171,-1
 352 108 l 1,170,-1
428 83 m 1,172,-1
 441 70 l 1,173,-1
 428 83 l 1,172,-1
50 33 m 1,174,-1
 63 20 l 1,175,-1
 50 33 l 1,174,-1
113 7 m 1,176,-1
 101 20 l 1,177,-1
 113 7 l 1,176,-1
EndSplineSet
EndChar

StartChar: L
Encoding: 76 76 47
Width: 438
GlyphClass: 2
Flags: W
LayerCount: 2
Fore
SplineSet
416 26 m 1,0,1
 368 11 368 11 289 11 c 0,2,3
 267 11 267 11 226 13 c 128,-1,4
 185 15 185 15 164 15 c 0,5,6
 99 15 99 15 74 40 c 0,7,8
 60 59 60 59 56 91 c 0,9,10
 52 130 52 130 53 154 c 128,-1,11
 54 178 54 178 57.5 218.5 c 128,-1,12
 61 259 61 259 61 281 c 0,13,14
 61 318 61 318 55 401 c 128,-1,15
 49 484 49 484 49 521 c 2,16,-1
 49 543 l 2,17,18
 49 596 49 596 74 596 c 1,19,20
 93 600 93 600 101 587 c 0,21,22
 105 579 105 579 107 566.5 c 128,-1,23
 109 554 109 554 109.5 546 c 128,-1,24
 110 538 110 538 109.5 519.5 c 128,-1,25
 109 501 109 501 109 495 c 2,26,-1
 109 483 l 1,27,28
 125 400 125 400 125 282 c 2,29,-1
 125 233 l 2,30,31
 125 216 125 216 124 182.5 c 128,-1,32
 123 149 123 149 123 132 c 2,33,-1
 123 81 l 1,34,35
 147 81 147 81 200 85.5 c 128,-1,36
 253 90 253 90 282 89 c 0,37,38
 334 87 334 87 365 73 c 128,-1,39
 396 59 396 59 416 26 c 1,0,1
114 478 m 1,40,-1
 127 466 l 1,41,-1
 114 478 l 1,40,-1
64 453 m 1,42,-1
 52 466 l 1,43,-1
 64 453 l 1,42,-1
391 76 m 1,44,-1
 403 64 l 1,45,-1
 391 76 l 1,44,-1
403 64 m 1,46,-1
 416 51 l 1,47,-1
 403 64 l 1,46,-1
64 38 m 1,48,-1
 77 26 l 1,49,-1
 64 38 l 1,48,-1
403 26 m 1,50,-1
 416 13 l 1,51,-1
 403 26 l 1,50,-1
EndSplineSet
EndChar

StartChar: M
Encoding: 77 77 48
Width: 585
GlyphClass: 2
Flags: W
LayerCount: 2
Fore
SplineSet
75 12 m 1,0,1
 48 109 48 109 48 239 c 0,2,3
 48 326 48 326 61 466 c 1,4,5
 61 522 61 522 80 561.5 c 128,-1,6
 99 601 99 601 139 608 c 0,7,8
 157 610 157 610 172.5 605 c 128,-1,9
 188 600 188 600 196.5 593 c 128,-1,10
 205 586 205 586 216 574 c 0,11,12
 226 562 226 562 252 522.5 c 128,-1,13
 278 483 278 483 297 467 c 0,14,15
 312 455 312 455 335 455 c 0,16,17
 345 455 345 455 353.5 459 c 128,-1,18
 362 463 362 463 368 467.5 c 128,-1,19
 374 472 374 472 381 481.5 c 128,-1,20
 388 491 388 491 391.5 496 c 128,-1,21
 395 501 395 501 401 513 c 128,-1,22
 407 525 407 525 409 527 c 0,23,24
 414 536 414 536 424.5 557.5 c 128,-1,25
 435 579 435 579 439 586 c 0,26,27
 474 621 474 621 503 598 c 0,28,29
 509 594 509 594 513 588.5 c 128,-1,30
 517 583 517 583 520 578 c 128,-1,31
 523 573 523 573 525 565 c 128,-1,32
 527 557 527 557 528 552 c 128,-1,33
 529 547 529 547 529.5 536 c 128,-1,34
 530 525 530 525 530 520.5 c 128,-1,35
 530 516 530 516 530 502.5 c 128,-1,36
 530 489 530 489 530 484 c 2,37,-1
 530 144 l 2,38,39
 530 43 530 43 466 27 c 1,40,41
 453 76 453 76 452.5 140.5 c 128,-1,42
 452 205 452 205 459 261 c 0,43,44
 465 316 465 316 465 381.5 c 128,-1,45
 465 447 465 447 452 495 c 1,46,47
 448 485 448 485 444 477 c 2,48,-1
 432 447 l 2,49,50
 428 439 428 439 424 429 c 0,51,52
 402 399 402 399 378 385.5 c 128,-1,53
 354 372 354 372 320 381 c 0,54,55
 302 387 302 387 286 396 c 128,-1,56
 270 405 270 405 253 421.5 c 128,-1,57
 236 438 236 438 227.5 447 c 128,-1,58
 219 456 219 456 200.5 479 c 128,-1,59
 182 502 182 502 178 506 c 0,60,61
 151 538 151 538 141 548 c 1,62,63
 141 480 141 480 134 354 c 128,-1,64
 127 228 127 228 127 160 c 2,65,-1
 127 136 l 2,66,67
 127 108 127 108 126 93.5 c 128,-1,68
 125 79 125 79 120.5 61.5 c 128,-1,69
 116 44 116 44 105.5 33.5 c 128,-1,70
 95 23 95 23 77 17 c 1,71,-1
 75 12 l 1,0,1
230 557 m 1,72,-1
 217 571 l 1,73,-1
 230 557 l 1,72,-1
413 557 m 1,74,-1
 425 544 l 1,75,-1
 413 557 l 1,74,-1
166 532 m 1,76,-1
 154 544 l 1,77,-1
 166 532 l 1,76,-1
230 544 m 1,78,-1
 244 532 l 1,79,-1
 230 544 l 1,78,-1
399 532 m 1,80,-1
 413 518 l 1,81,-1
 399 532 l 1,80,-1
62 518 m 1,82,-1
 75 505 l 1,83,-1
 62 518 l 1,82,-1
166 518 m 1,84,-1
 178 505 l 1,85,-1
 166 518 l 1,84,-1
256 505 m 1,86,-1
 244 518 l 1,87,-1
 256 505 l 1,86,-1
269 493 m 1,88,-1
 256 505 l 1,89,-1
 269 493 l 1,88,-1
387 505 m 1,90,-1
 399 493 l 1,91,-1
 387 505 l 1,90,-1
452 493 m 1,92,-1
 464 479 l 1,93,-1
 452 493 l 1,92,-1
126 479 m 1,94,-1
 140 467 l 1,95,-1
 126 479 l 1,94,-1
191 479 m 1,96,-1
 205 467 l 1,97,-1
 191 479 l 1,96,-1
373 479 m 1,98,-1
 387 467 l 1,99,-1
 373 479 l 1,98,-1
452 479 m 1,100,-1
 464 467 l 1,101,-1
 452 479 l 1,100,-1
307 453 m 1,102,-1
 295 467 l 1,103,-1
 307 453 l 1,102,-1
360 467 m 1,104,-1
 373 453 l 1,105,-1
 360 467 l 1,104,-1
438 467 m 1,106,-1
 452 453 l 1,107,-1
 438 467 l 1,106,-1
334 453 m 1,108,109
 322 440 322 440 334 440 c 1,110,111
 347 453 347 453 334 453 c 1,108,109
438 453 m 1,112,-1
 452 440 l 1,113,-1
 438 453 l 1,112,-1
230 427 m 1,114,-1
 217 440 l 1,115,-1
 230 427 l 1,114,-1
230 427 m 1,116,-1
 244 414 l 1,117,-1
 230 427 l 1,116,-1
425 427 m 1,118,-1
 438 414 l 1,119,-1
 425 427 l 1,118,-1
244 414 m 1,120,-1
 256 402 l 1,121,-1
 244 414 l 1,120,-1
413 414 m 1,122,-1
 425 402 l 1,123,-1
 413 414 l 1,122,-1
399 402 m 1,124,-1
 413 387 l 1,125,-1
 399 402 l 1,124,-1
373 387 m 1,126,-1
 387 375 l 1,127,-1
 373 387 l 1,126,-1
464 102 m 1,128,-1
 452 116 l 1,129,-1
 464 102 l 1,128,-1
528 90 m 1,130,-1
 517 102 l 1,131,-1
 528 90 l 1,130,-1
528 77 m 1,132,-1
 517 90 l 1,133,-1
 528 77 l 1,132,-1
464 36 m 1,134,-1
 452 51 l 1,135,-1
 464 36 l 1,134,-1
75 26 m 1,136,-1
 62 36 l 1,137,-1
 75 26 l 1,136,-1
517 26 m 1,138,-1
 503 36 l 1,139,-1
 517 26 l 1,138,-1
126 12 m 1,140,-1
 114 26 l 1,141,-1
 126 12 l 1,140,-1
EndSplineSet
EndChar

StartChar: N
Encoding: 78 78 49
Width: 454
GlyphClass: 2
Flags: W
LayerCount: 2
Fore
SplineSet
314 220 m 1,0,1
 314 247 314 247 320 309.5 c 128,-1,2
 326 372 326 372 326 399 c 0,3,4
 326 420 326 420 320 454 c 128,-1,5
 314 488 314 488 314 509 c 0,6,7
 314 518 314 518 312 534 c 128,-1,8
 310 550 310 550 310 559 c 0,9,10
 310 594 310 594 327 619 c 0,11,12
 337 638 337 638 354 631 c 0,13,14
 370 623 370 623 381 604 c 1,15,16
 399 544 399 544 399 445 c 0,17,18
 399 399 399 399 390.5 311 c 128,-1,19
 382 223 382 223 382 178 c 0,20,21
 382 167 382 167 383.5 144.5 c 128,-1,22
 385 122 385 122 385 110 c 0,23,24
 385 26 385 26 341 26 c 0,25,26
 310 26 310 26 290 79 c 2,27,-1
 284 95 l 2,28,29
 283 98 283 98 279.5 107.5 c 128,-1,30
 276 117 276 117 274 122 c 0,31,32
 245 178 245 178 198.5 287.5 c 128,-1,33
 152 397 152 397 124 452 c 1,34,35
 124 394 124 394 131 287 c 128,-1,36
 138 180 138 180 138 122 c 2,37,-1
 138 101 l 2,38,39
 138 58 138 58 126 32.5 c 128,-1,40
 114 7 114 7 84 0 c 1,41,42
 71 47 71 47 64.5 115 c 128,-1,43
 58 183 58 183 57 221 c 128,-1,44
 56 259 56 259 57 360 c 128,-1,45
 58 461 58 461 58 479 c 2,46,-1
 58 493 l 2,47,48
 58 500 58 500 57 515.5 c 128,-1,49
 56 531 56 531 56 538 c 0,50,51
 56 559 56 559 59 576 c 128,-1,52
 62 593 62 593 72.5 605.5 c 128,-1,53
 83 618 83 618 100 615 c 0,54,55
 131 615 131 615 151 562 c 2,56,-1
 157 546 l 2,57,58
 159 541 159 541 163 531 c 128,-1,59
 167 521 167 521 168 519 c 0,60,61
 209 445 209 445 243 368 c 0,62,63
 277 288 277 288 318 218 c 1,64,-1
 314 220 l 1,0,1
136 589 m 1,65,-1
 122 603 l 1,66,-1
 136 589 l 1,65,-1
150 562 m 1,67,-1
 136 576 l 1,68,-1
 150 562 l 1,67,-1
163 534 m 1,69,-1
 150 548 l 1,70,-1
 163 534 l 1,69,-1
163 521 m 1,71,-1
 177 507 l 1,72,-1
 163 521 l 1,71,-1
177 493 m 1,73,-1
 191 480 l 1,74,-1
 177 493 l 1,73,-1
382 493 m 1,75,-1
 396 480 l 1,76,-1
 382 493 l 1,75,-1
314 480 m 1,77,-1
 327 466 l 1,78,-1
 314 480 l 1,77,-1
204 452 m 1,79,-1
 191 466 l 1,80,-1
 204 452 l 1,79,-1
136 439 m 1,81,-1
 122 452 l 1,82,-1
 136 439 l 1,81,-1
204 439 m 1,83,-1
 218 425 l 1,84,-1
 204 439 l 1,83,-1
136 425 m 1,85,-1
 150 411 l 1,86,-1
 136 425 l 1,85,-1
218 411 m 1,87,-1
 232 398 l 1,88,-1
 218 411 l 1,87,-1
150 384 m 1,89,-1
 163 370 l 1,90,-1
 150 384 l 1,89,-1
232 384 m 1,91,-1
 245 370 l 1,92,-1
 232 384 l 1,91,-1
245 357 m 1,93,-1
 259 343 l 1,94,-1
 245 357 l 1,93,-1
177 329 m 1,95,-1
 191 315 l 1,96,-1
 177 329 l 1,95,-1
259 329 m 1,97,-1
 273 315 l 1,98,-1
 259 329 l 1,97,-1
327 302 m 1,99,-1
 314 315 l 1,100,-1
 327 302 l 1,99,-1
191 302 m 1,101,-1
 204 288 l 1,102,-1
 191 302 l 1,101,-1
273 288 m 1,103,-1
 286 274 l 1,104,-1
 273 288 l 1,103,-1
204 274 m 1,105,-1
 218 261 l 1,106,-1
 204 274 l 1,105,-1
396 261 m 1,107,-1
 382 274 l 1,108,-1
 396 261 l 1,107,-1
300 247 m 1,109,-1
 286 261 l 1,110,-1
 300 247 l 1,109,-1
218 247 m 1,111,-1
 232 233 l 1,112,-1
 218 247 l 1,111,-1
300 233 m 1,113,-1
 314 220 l 1,114,-1
 300 233 l 1,113,-1
136 206 m 1,115,-1
 122 220 l 1,116,-1
 136 206 l 1,115,-1
54 206 m 1,117,-1
 67 192 l 1,118,-1
 54 206 l 1,117,-1
232 206 m 1,119,-1
 245 192 l 1,120,-1
 232 206 l 1,119,-1
245 179 m 1,121,-1
 259 165 l 1,122,-1
 245 179 l 1,121,-1
259 137 m 1,123,-1
 273 124 l 1,124,-1
 259 137 l 1,123,-1
273 110 m 1,125,-1
 286 96 l 1,126,-1
 273 110 l 1,125,-1
286 69 m 1,127,-1
 300 55 l 1,128,-1
 286 69 l 1,127,-1
300 42 m 1,129,-1
 314 28 l 1,130,-1
 300 42 l 1,129,-1
81 14 m 1,131,-1
 67 28 l 1,132,-1
 81 14 l 1,131,-1
382 14 m 1,133,-1
 369 28 l 1,134,-1
 382 14 l 1,133,-1
136 1 m 1,135,-1
 122 14 l 1,136,-1
 136 1 l 1,135,-1
EndSplineSet
EndChar

StartChar: O
Encoding: 79 79 50
Width: 459
GlyphClass: 2
Flags: W
LayerCount: 2
Fore
SplineSet
211 577 m 1,0,-1
 199 589 l 1,1,-1
 211 577 l 1,0,-1
406 268 m 0,2,3
 406 161 406 161 364.5 92 c 128,-1,4
 323 23 323 23 235 18 c 0,5,6
 189 15 189 15 155.5 30 c 128,-1,7
 122 45 122 45 102.5 71 c 128,-1,8
 83 97 83 97 72 138.5 c 128,-1,9
 61 180 61 180 57.5 219.5 c 128,-1,10
 54 259 54 259 54 312 c 2,11,-1
 54 395 l 2,12,13
 54 495 54 495 89 540 c 1,14,15
 113 563 113 563 138.5 570 c 128,-1,16
 164 577 164 577 211 577 c 1,17,-1
 210 572 l 1,18,19
 249 576 249 576 279.5 565.5 c 128,-1,20
 310 555 310 555 329 536.5 c 128,-1,21
 348 518 348 518 362.5 486.5 c 128,-1,22
 377 455 377 455 384 426.5 c 128,-1,23
 391 398 391 398 398 359 c 0,24,25
 406 313 406 313 406 268 c 0,2,3
271 572 m 1,26,-1
 259 584 l 1,27,-1
 271 572 l 1,26,-1
126 560 m 1,28,-1
 114 572 l 1,29,-1
 126 560 l 1,28,-1
307 560 m 1,30,-1
 295 572 l 1,31,-1
 307 560 l 1,30,-1
114 548 m 1,32,-1
 101 560 l 1,33,-1
 114 548 l 1,32,-1
331 548 m 1,34,-1
 319 560 l 1,35,-1
 331 548 l 1,34,-1
101 536 m 1,36,-1
 89 548 l 1,37,-1
 101 536 l 1,36,-1
342 536 m 1,38,-1
 331 548 l 1,39,-1
 342 536 l 1,38,-1
89 523 m 1,40,-1
 77 536 l 1,41,-1
 89 523 l 1,40,-1
355 511 m 1,42,-1
 342 523 l 1,43,-1
 355 511 l 1,42,-1
77 499 m 1,44,-1
 65 511 l 1,45,-1
 77 499 l 1,44,-1
137 487 m 2,46,47
 139 489 139 489 142.5 492 c 128,-1,48
 146 495 146 495 146.5 496 c 128,-1,49
 147 497 147 497 148.5 499 c 128,-1,50
 150 501 150 501 150 503.5 c 128,-1,51
 150 506 150 506 150 511 c 2,52,-1
 137 487 l 2,46,47
208 513 m 0,53,54
 184 513 184 513 161 499 c 1,55,56
 130 468 130 468 109 409 c 1,57,58
 98 349 98 349 102 271.5 c 128,-1,59
 106 194 106 194 123 145 c 1,60,61
 142 108 142 108 182 88.5 c 128,-1,62
 222 69 222 69 269 86 c 1,63,64
 310 111 310 111 329 176 c 128,-1,65
 348 241 348 241 343.5 312 c 128,-1,66
 339 383 339 383 317 437 c 0,67,68
 305 469 305 469 276 491 c 128,-1,69
 247 513 247 513 208 513 c 0,53,54
277 494 m 1,70,-1
 289 482 l 1,71,-1
 277 494 l 1,70,-1
349 494 m 1,72,-1
 361 482 l 1,73,-1
 349 494 l 1,72,-1
120 470 m 1,74,-1
 132 458 l 1,75,-1
 120 470 l 1,74,-1
373 458 m 1,76,-1
 361 470 l 1,77,-1
 373 458 l 1,76,-1
59 446 m 1,78,-1
 47 458 l 1,79,-1
 59 446 l 1,78,-1
301 458 m 1,80,-1
 313 446 l 1,81,-1
 301 458 l 1,80,-1
108 446 m 1,82,-1
 120 434 l 1,83,-1
 108 446 l 1,82,-1
108 434 m 1,84,-1
 120 422 l 1,85,-1
 108 434 l 1,84,-1
385 422 m 1,86,-1
 373 434 l 1,87,-1
 385 422 l 1,86,-1
325 409 m 1,88,-1
 313 422 l 1,89,-1
 325 409 l 1,88,-1
397 385 m 1,90,-1
 385 397 l 1,91,-1
 397 385 l 1,90,-1
325 385 m 1,92,-1
 336 373 l 1,93,-1
 325 385 l 1,92,-1
325 193 m 1,94,-1
 336 181 l 1,95,-1
 325 193 l 1,94,-1
397 168 m 1,96,-1
 385 181 l 1,97,-1
 397 168 l 1,96,-1
108 168 m 1,98,-1
 120 156 l 1,99,-1
 108 168 l 1,98,-1
397 156 m 1,100,-1
 385 168 l 1,101,-1
 397 156 l 1,100,-1
59 144 m 1,102,-1
 47 156 l 1,103,-1
 59 144 l 1,102,-1
313 156 m 1,104,-1
 325 144 l 1,105,-1
 313 156 l 1,104,-1
120 144 m 1,106,-1
 132 132 l 1,107,-1
 120 144 l 1,106,-1
301 132 m 1,108,-1
 313 120 l 1,109,-1
 301 132 l 1,108,-1
71 108 m 1,110,-1
 59 120 l 1,111,-1
 71 108 l 1,110,-1
132 120 m 1,112,-1
 144 108 l 1,113,-1
 132 120 l 1,112,-1
385 108 m 1,114,-1
 373 120 l 1,115,-1
 385 108 l 1,114,-1
289 108 m 1,116,-1
 301 96 l 1,117,-1
 289 108 l 1,116,-1
83 84 m 1,118,-1
 71 96 l 1,119,-1
 83 84 l 1,118,-1
156 96 m 1,120,-1
 168 84 l 1,121,-1
 156 96 l 1,120,-1
277 96 m 1,122,-1
 289 84 l 1,123,-1
 277 96 l 1,122,-1
373 84 m 1,124,-1
 361 96 l 1,125,-1
 373 84 l 1,124,-1
180 84 m 1,126,-1
 192 72 l 1,127,-1
 180 84 l 1,126,-1
253 84 m 1,128,-1
 265 72 l 1,129,-1
 253 84 l 1,128,-1
361 72 m 1,130,-1
 349 84 l 1,131,-1
 361 72 l 1,130,-1
108 47 m 1,132,-1
 95 59 l 1,133,-1
 108 47 l 1,132,-1
349 47 m 1,134,-1
 336 59 l 1,135,-1
 349 47 l 1,134,-1
336 35 m 1,136,-1
 325 47 l 1,137,-1
 336 35 l 1,136,-1
301 23 m 1,138,-1
 289 35 l 1,139,-1
 301 23 l 1,138,-1
313 23 m 1,140,-1
 301 35 l 1,141,-1
 313 23 l 1,140,-1
277 11 m 1,142,-1
 265 23 l 1,143,-1
 277 11 l 1,142,-1
289 11 m 1,144,-1
 277 23 l 1,145,-1
 289 11 l 1,144,-1
EndSplineSet
EndChar

StartChar: P
Encoding: 80 80 51
Width: 404
GlyphClass: 2
Flags: W
LayerCount: 2
Fore
SplineSet
89 615 m 1,0,-1
 101 603 l 1,1,-1
 89 615 l 1,0,-1
73 7 m 1,2,3
 57 70 57 70 57 164 c 0,4,5
 57 196 57 196 62 269 c 128,-1,6
 67 342 67 342 66 382 c 0,7,8
 65 410 65 410 63 438 c 0,9,10
 63 451 63 451 58.5 488 c 128,-1,11
 54 525 54 525 57 548.5 c 128,-1,12
 60 572 60 572 75 587 c 1,13,14
 112 612 112 612 199 612 c 0,15,16
 211 612 211 612 235 614 c 128,-1,17
 259 616 259 616 272 616 c 0,18,19
 316 616 316 616 340 603 c 128,-1,20
 364 590 364 590 374 558 c 0,21,22
 386 517 386 517 386.5 466.5 c 128,-1,23
 387 416 387 416 372 379 c 0,24,25
 362 363 362 363 348.5 351.5 c 128,-1,26
 335 340 335 340 312 331.5 c 128,-1,27
 289 323 289 323 276.5 319 c 128,-1,28
 264 315 264 315 230.5 308.5 c 128,-1,29
 197 302 197 302 189 300 c 0,30,31
 157 292 157 292 139 270 c 0,32,33
 122 242 122 242 122 203 c 0,34,35
 122 191 122 191 123 178 c 2,36,-1
 126 127 l 2,37,38
 133 32 133 32 76 12 c 1,39,-1
 73 7 l 1,2,3
343 610 m 1,40,-1
 355 598 l 1,41,-1
 343 610 l 1,40,-1
60 598 m 1,42,-1
 73 585 l 1,43,-1
 60 598 l 1,42,-1
355 598 m 1,44,-1
 369 585 l 1,45,-1
 355 598 l 1,44,-1
48 585 m 1,46,-1
 60 572 l 1,47,-1
 48 585 l 1,46,-1
369 572 m 1,48,-1
 381 560 l 1,49,-1
 369 572 l 1,48,-1
109 543 m 1,50,51
 109 512 109 512 115 444.5 c 128,-1,52
 121 377 121 377 121 346 c 1,53,54
 178 346 178 346 225.5 362.5 c 128,-1,55
 273 379 273 379 299 410 c 0,56,57
 319 435 319 435 319 471 c 0,58,59
 319 498 319 498 314.5 512 c 128,-1,60
 310 526 310 526 294 534 c 1,61,62
 277 551 277 551 247.5 554 c 128,-1,63
 218 557 218 557 171 552.5 c 128,-1,64
 124 548 124 548 110 548 c 1,65,-1
 109 543 l 1,50,51
306 543 m 1,66,-1
 318 531 l 1,67,-1
 306 543 l 1,66,-1
109 494 m 1,68,-1
 121 481 l 1,69,-1
 109 494 l 1,68,-1
47 481 m 1,70,-1
 59 469 l 1,71,-1
 47 481 l 1,70,-1
306 409 m 1,72,-1
 318 396 l 1,73,-1
 306 409 l 1,72,-1
281 396 m 1,74,-1
 293 383 l 1,75,-1
 281 396 l 1,74,-1
256 383 m 1,76,-1
 269 371 l 1,77,-1
 256 383 l 1,76,-1
219 371 m 1,78,-1
 231 359 l 1,79,-1
 219 371 l 1,78,-1
368 371 m 1,80,-1
 380 359 l 1,81,-1
 368 371 l 1,80,-1
171 359 m 1,82,-1
 183 346 l 1,83,-1
 171 359 l 1,82,-1
354 359 m 1,84,-1
 368 346 l 1,85,-1
 354 359 l 1,84,-1
342 346 m 1,86,-1
 354 334 l 1,87,-1
 342 346 l 1,86,-1
318 334 m 1,88,-1
 330 322 l 1,89,-1
 318 334 l 1,88,-1
293 322 m 1,90,-1
 306 310 l 1,91,-1
 293 322 l 1,90,-1
256 310 m 1,92,-1
 269 298 l 1,93,-1
 256 310 l 1,92,-1
208 298 m 1,94,-1
 219 284 l 1,95,-1
 208 298 l 1,94,-1
146 284 m 1,96,-1
 158 272 l 1,97,-1
 146 284 l 1,96,-1
59 27 m 1,98,-1
 72 14 l 1,99,-1
 59 27 l 1,98,-1
109 14 m 1,100,-1
 121 2 l 1,101,-1
 109 14 l 1,100,-1
EndSplineSet
EndChar

StartChar: Q
Encoding: 81 81 52
Width: 619
GlyphClass: 2
Flags: W
LayerCount: 2
Fore
SplineSet
193 605 m 1,0,-1
 182 616 l 1,1,-1
 193 605 l 1,0,-1
587 37 m 1,2,3
 544 16 544 16 486 59 c 0,4,5
 484 61 484 61 477.5 65.5 c 128,-1,6
 471 70 471 70 468 72 c 128,-1,7
 465 74 465 74 458 79 c 128,-1,8
 451 84 451 84 447.5 85 c 128,-1,9
 444 86 444 86 436 90 c 128,-1,10
 428 94 428 94 424 93.5 c 128,-1,11
 420 93 420 93 411.5 95 c 128,-1,12
 403 97 403 97 398 94 c 0,13,14
 383 89 383 89 352 76 c 128,-1,15
 321 63 321 63 306 58 c 0,16,17
 260 50 260 50 193 78 c 0,18,19
 142 101 142 101 88 140 c 0,20,21
 57 167 57 167 45 215.5 c 128,-1,22
 33 264 33 264 39 316.5 c 128,-1,23
 45 369 45 369 58.5 417.5 c 128,-1,24
 72 466 72 466 90 500 c 0,25,26
 95 516 95 516 106 532 c 128,-1,27
 117 548 117 548 124.5 556.5 c 128,-1,28
 132 565 132 565 148 581 c 0,29,30
 175 605 175 605 215 610.5 c 128,-1,31
 255 616 255 616 294.5 605.5 c 128,-1,32
 334 595 334 595 367.5 580 c 128,-1,33
 401 565 401 565 426 547 c 0,34,35
 492 499 492 499 519 443 c 1,36,37
 548 364 548 364 531 288 c 0,38,39
 526 265 526 265 518 241 c 128,-1,40
 510 217 510 217 499 186.5 c 128,-1,41
 488 156 488 156 483 141 c 1,42,43
 552 106 552 106 587 37 c 1,2,3
293 603 m 1,44,-1
 282 614 l 1,45,-1
 293 603 l 1,44,-1
166 591 m 1,46,-1
 154 603 l 1,47,-1
 166 591 l 1,46,-1
305 603 m 1,48,-1
 317 591 l 1,49,-1
 305 603 l 1,48,-1
143 579 m 1,50,-1
 131 591 l 1,51,-1
 143 579 l 1,50,-1
328 591 m 1,52,-1
 340 579 l 1,53,-1
 328 591 l 1,52,-1
131 568 m 1,54,-1
 120 579 l 1,55,-1
 131 568 l 1,54,-1
351 579 m 1,56,-1
 363 568 l 1,57,-1
 351 579 l 1,56,-1
120 556 m 1,58,-1
 108 568 l 1,59,-1
 120 556 l 1,58,-1
375 568 m 1,60,-1
 386 556 l 1,61,-1
 375 568 l 1,60,-1
332 142 m 2,62,63
 331 143 331 143 324.5 149 c 128,-1,64
 318 155 318 155 315 158 c 128,-1,65
 312 161 312 161 307.5 167.5 c 128,-1,66
 303 174 303 174 302 178.5 c 128,-1,67
 301 183 301 183 303 189.5 c 128,-1,68
 305 196 305 196 310 201 c 0,69,70
 327 212 327 212 340.5 206 c 128,-1,71
 354 200 354 200 377.5 191.5 c 128,-1,72
 401 183 401 183 416 188 c 0,73,74
 445 203 445 203 458.5 243 c 128,-1,75
 472 283 472 283 469 328 c 128,-1,76
 466 373 466 373 451 410 c 0,77,78
 443 439 443 439 425 454.5 c 128,-1,79
 407 470 407 470 374 485 c 0,80,81
 363 489 363 489 327 512.5 c 128,-1,82
 291 536 291 536 266 541 c 0,83,84
 248 544 248 544 233 540 c 1,85,86
 214 540 214 540 198 532 c 128,-1,87
 182 524 182 524 171.5 513.5 c 128,-1,88
 161 503 161 503 150 485 c 128,-1,89
 139 467 139 467 133.5 454 c 128,-1,90
 128 441 128 441 119.5 420 c 128,-1,91
 111 399 111 399 107 391 c 0,92,93
 99 364 99 364 95 335.5 c 128,-1,94
 91 307 91 307 93 274 c 128,-1,95
 95 241 95 241 106 219 c 0,96,97
 124 178 124 178 173.5 150.5 c 128,-1,98
 223 123 223 123 280 121 c 0,99,100
 316 119 316 119 340 128 c 1,101,-1
 332 142 l 2,62,63
390 547 m 1,102,-1
 401 536 l 1,103,-1
 390 547 l 1,102,-1
204 536 m 1,104,-1
 216 524 l 1,105,-1
 204 536 l 1,104,-1
413 536 m 1,106,-1
 424 524 l 1,107,-1
 413 536 l 1,106,-1
100 512 m 1,108,-1
 89 524 l 1,109,-1
 100 512 l 1,108,-1
158 524 m 1,110,-1
 170 512 l 1,111,-1
 158 524 l 1,110,-1
436 524 m 1,112,-1
 448 512 l 1,113,-1
 436 524 l 1,112,-1
146 512 m 1,114,-1
 158 501 l 1,115,-1
 146 512 l 1,114,-1
459 512 m 1,116,-1
 471 501 l 1,117,-1
 459 512 l 1,116,-1
89 489 m 1,118,-1
 77 501 l 1,119,-1
 89 489 l 1,118,-1
146 501 m 1,120,-1
 158 489 l 1,121,-1
 146 501 l 1,120,-1
355 489 m 1,122,-1
 343 501 l 1,123,-1
 355 489 l 1,122,-1
355 501 m 1,124,-1
 367 489 l 1,125,-1
 355 501 l 1,124,-1
471 501 m 1,126,-1
 482 489 l 1,127,-1
 471 501 l 1,126,-1
135 489 m 1,128,-1
 146 478 l 1,129,-1
 135 489 l 1,128,-1
367 489 m 1,130,-1
 378 478 l 1,131,-1
 367 489 l 1,130,-1
378 489 m 1,132,-1
 390 478 l 1,133,-1
 378 489 l 1,132,-1
77 466 m 1,134,-1
 65 478 l 1,135,-1
 77 466 l 1,134,-1
135 478 m 1,136,-1
 146 466 l 1,137,-1
 135 478 l 1,136,-1
390 478 m 1,138,-1
 401 466 l 1,139,-1
 390 478 l 1,138,-1
482 478 m 1,140,-1
 494 466 l 1,141,-1
 482 478 l 1,140,-1
123 466 m 1,142,-1
 135 455 l 1,143,-1
 123 466 l 1,142,-1
65 443 m 1,144,-1
 54 455 l 1,145,-1
 65 443 l 1,144,-1
123 455 m 1,146,-1
 135 443 l 1,147,-1
 123 455 l 1,146,-1
494 455 m 1,148,-1
 506 443 l 1,149,-1
 494 455 l 1,148,-1
112 443 m 1,150,-1
 123 431 l 1,151,-1
 112 443 l 1,150,-1
436 443 m 1,152,-1
 448 431 l 1,153,-1
 436 443 l 1,152,-1
54 420 m 1,154,-1
 42 431 l 1,155,-1
 54 420 l 1,154,-1
112 431 m 1,156,-1
 123 420 l 1,157,-1
 112 431 l 1,156,-1
506 431 m 1,158,-1
 517 420 l 1,159,-1
 506 431 l 1,158,-1
100 420 m 1,160,-1
 112 408 l 1,161,-1
 100 420 l 1,160,-1
448 420 m 1,162,-1
 459 408 l 1,163,-1
 448 420 l 1,162,-1
100 408 m 1,164,-1
 112 397 l 1,165,-1
 100 408 l 1,164,-1
42 385 m 1,166,-1
 31 397 l 1,167,-1
 42 385 l 1,166,-1
517 373 m 1,168,-1
 529 362 l 1,169,-1
 517 373 l 1,168,-1
89 362 m 1,170,-1
 100 350 l 1,171,-1
 89 362 l 1,170,-1
459 362 m 1,172,-1
 471 350 l 1,173,-1
 459 362 l 1,172,-1
459 292 m 1,174,-1
 471 281 l 1,175,-1
 459 292 l 1,174,-1
459 246 m 1,176,-1
 448 258 l 1,177,-1
 459 246 l 1,176,-1
529 246 m 1,178,-1
 517 258 l 1,179,-1
 529 246 l 1,178,-1
448 223 m 1,180,-1
 436 234 l 1,181,-1
 448 223 l 1,180,-1
517 211 m 1,182,-1
 506 223 l 1,183,-1
 517 211 l 1,182,-1
89 211 m 1,184,-1
 100 200 l 1,185,-1
 89 211 l 1,184,-1
367 188 m 1,186,-1
 355 200 l 1,187,-1
 367 188 l 1,186,-1
436 188 m 1,188,-1
 424 200 l 1,189,-1
 436 188 l 1,188,-1
494 200 m 1,190,-1
 506 188 l 1,191,-1
 494 200 l 1,190,-1
31 188 m 1,192,-1
 42 177 l 1,193,-1
 31 188 l 1,192,-1
100 188 m 1,194,-1
 112 177 l 1,195,-1
 100 188 l 1,194,-1
390 177 m 1,196,-1
 378 188 l 1,197,-1
 390 177 l 1,196,-1
424 177 m 1,198,-1
 413 188 l 1,199,-1
 424 177 l 1,198,-1
482 188 m 1,200,-1
 494 177 l 1,201,-1
 482 188 l 1,200,-1
135 165 m 1,202,-1
 123 177 l 1,203,-1
 135 165 l 1,202,-1
297 165 m 1,204,-1
 285 177 l 1,205,-1
 297 165 l 1,204,-1
413 165 m 1,206,-1
 401 177 l 1,207,-1
 413 165 l 1,206,-1
494 165 m 1,208,-1
 482 177 l 1,209,-1
 494 165 l 1,208,-1
54 153 m 1,210,-1
 42 165 l 1,211,-1
 54 153 l 1,210,-1
146 165 m 1,212,-1
 158 153 l 1,213,-1
 146 165 l 1,212,-1
170 153 m 1,214,-1
 181 142 l 1,215,-1
 170 153 l 1,214,-1
320 142 m 1,216,-1
 309 153 l 1,217,-1
 320 142 l 1,216,-1
471 153 m 1,218,-1
 482 142 l 1,219,-1
 471 153 l 1,218,-1
181 142 m 1,220,-1
 193 130 l 1,221,-1
 181 142 l 1,220,-1
482 130 m 1,222,-1
 471 142 l 1,223,-1
 482 130 l 1,222,-1
216 130 m 1,224,-1
 228 119 l 1,225,-1
 216 130 l 1,224,-1
332 130 m 1,226,-1
 343 119 l 1,227,-1
 332 130 l 1,226,-1
506 119 m 1,228,-1
 494 130 l 1,229,-1
 506 119 l 1,228,-1
239 107 m 1,230,-1
 228 119 l 1,231,-1
 239 107 l 1,230,-1
320 107 m 1,232,-1
 309 119 l 1,233,-1
 320 107 l 1,232,-1
506 119 m 1,234,-1
 517 107 l 1,235,-1
 506 119 l 1,234,-1
517 107 m 1,236,-1
 529 95 l 1,237,-1
 517 107 l 1,236,-1
401 84 m 1,238,-1
 390 95 l 1,239,-1
 401 84 l 1,238,-1
414 96 m 2,240,241
 419 96 419 96 419 93 c 128,-1,242
 419 90 419 90 414 85 c 1,243,244
 403 85 403 85 413 95 c 0,245,246
 414 96 414 96 414 96 c 2,240,241
541 85 m 1,247,-1
 530 96 l 1,248,-1
 541 85 l 1,247,-1
171 73 m 1,249,-1
 159 85 l 1,250,-1
 171 73 l 1,249,-1
171 85 m 1,251,-1
 182 73 l 1,252,-1
 171 85 l 1,251,-1
379 73 m 1,253,-1
 368 85 l 1,254,-1
 379 73 l 1,253,-1
391 73 m 1,255,-1
 379 85 l 1,256,-1
 391 73 l 1,255,-1
541 85 m 1,257,-1
 553 73 l 1,258,-1
 541 85 l 1,257,-1
356 62 m 1,259,-1
 344 73 l 1,260,-1
 356 62 l 1,259,-1
368 62 m 1,261,-1
 356 73 l 1,262,-1
 368 62 l 1,261,-1
553 73 m 1,263,-1
 564 62 l 1,264,-1
 553 73 l 1,263,-1
217 50 m 1,265,-1
 205 62 l 1,266,-1
 217 50 l 1,265,-1
229 50 m 1,267,-1
 217 62 l 1,268,-1
 229 50 l 1,267,-1
333 50 m 1,269,-1
 321 62 l 1,270,-1
 333 50 l 1,269,-1
344 50 m 1,271,-1
 333 62 l 1,272,-1
 344 50 l 1,271,-1
564 62 m 1,273,-1
 576 50 l 1,274,-1
 564 62 l 1,273,-1
495 39 m 1,275,-1
 507 27 l 1,276,-1
 495 39 l 1,275,-1
564 27 m 1,277,-1
 576 15 l 1,278,-1
 564 27 l 1,277,-1
EndSplineSet
EndChar

StartChar: R
Encoding: 82 82 53
Width: 463
GlyphClass: 2
Flags: W
LayerCount: 2
Fore
SplineSet
62 3 m 1,0,1
 46 61 46 61 43.5 130.5 c 128,-1,2
 41 200 41 200 46 300.5 c 128,-1,3
 51 401 51 401 51 441 c 2,4,-1
 51 456 l 2,5,6
 51 463 51 463 51 478 c 128,-1,7
 51 493 51 493 51 501 c 128,-1,8
 51 509 51 509 51.5 522 c 128,-1,9
 52 535 52 535 53.5 543 c 128,-1,10
 55 551 55 551 58 560.5 c 128,-1,11
 61 570 61 570 65.5 576.5 c 128,-1,12
 70 583 70 583 77 587 c 0,13,14
 92 602 92 602 127 602 c 2,15,-1
 142 602 l 2,16,17
 147 602 147 602 157 601 c 128,-1,18
 167 600 167 600 172 600 c 2,19,-1
 186 600 l 2,20,21
 359 600 359 600 402 509 c 0,22,23
 418 474 418 474 405 419 c 0,24,25
 396 391 396 391 371.5 371.5 c 128,-1,26
 347 352 347 352 309 331 c 0,27,28
 292 322 292 322 247 302.5 c 128,-1,29
 202 283 202 283 185 273 c 1,30,31
 199 267 199 267 242.5 247.5 c 128,-1,32
 286 228 286 228 306.5 217.5 c 128,-1,33
 327 207 327 207 356 186.5 c 128,-1,34
 385 166 385 166 403 143 c 0,35,36
 427 111 427 111 427 67 c 1,37,38
 386 80 386 80 346 100 c 0,39,40
 317 114 317 114 283 132.5 c 128,-1,41
 249 151 249 151 227.5 164 c 128,-1,42
 206 177 206 177 166 202 c 128,-1,43
 126 227 126 227 111 236 c 1,44,45
 111 223 111 223 113.5 188 c 128,-1,46
 116 153 116 153 116 138 c 0,47,48
 116 84 116 84 105 50 c 128,-1,49
 94 16 94 16 63 6 c 1,50,-1
 62 3 l 1,0,1
306 599 m 1,51,-1
 319 587 l 1,52,-1
 306 599 l 1,51,-1
331 587 m 1,53,-1
 343 575 l 1,54,-1
 331 587 l 1,53,-1
355 575 m 1,55,-1
 367 563 l 1,56,-1
 355 575 l 1,55,-1
379 551 m 1,57,-1
 367 563 l 1,58,-1
 379 551 l 1,57,-1
379 551 m 1,59,-1
 391 539 l 1,60,-1
 379 551 l 1,59,-1
233 539 m 2,61,-1
 111 539 l 1,62,-1
 107 318 l 1,63,64
 125 326 125 326 159.5 337.5 c 128,-1,65
 194 349 194 349 212 357 c 0,66,67
 277 384 277 384 317 417 c 0,68,69
 339 439 339 439 338 462 c 0,70,71
 335 494 335 494 302.5 516.5 c 128,-1,72
 270 539 270 539 233 539 c 2,61,-1
400 525 m 1,73,-1
 387 538 l 1,74,-1
 400 525 l 1,73,-1
302 525 m 1,75,-1
 315 513 l 1,76,-1
 302 525 l 1,75,-1
327 440 m 1,77,-1
 339 428 l 1,78,-1
 327 440 l 1,77,-1
327 404 m 1,79,-1
 315 416 l 1,80,-1
 327 404 l 1,79,-1
290 404 m 1,81,-1
 302 391 l 1,82,-1
 290 404 l 1,81,-1
400 391 m 1,83,-1
 387 404 l 1,84,-1
 400 391 l 1,83,-1
278 379 m 1,85,-1
 266 391 l 1,86,-1
 278 379 l 1,85,-1
242 379 m 1,87,-1
 254 367 l 1,88,-1
 242 379 l 1,87,-1
375 379 m 1,89,-1
 387 367 l 1,90,-1
 375 379 l 1,89,-1
216 367 m 1,91,-1
 229 354 l 1,92,-1
 216 367 l 1,91,-1
363 367 m 1,93,-1
 375 354 l 1,94,-1
 363 367 l 1,93,-1
192 342 m 1,95,-1
 180 354 l 1,96,-1
 192 342 l 1,95,-1
339 342 m 1,97,-1
 327 354 l 1,98,-1
 339 342 l 1,97,-1
339 354 m 1,99,-1
 351 342 l 1,100,-1
 339 354 l 1,99,-1
168 330 m 1,101,-1
 156 342 l 1,102,-1
 168 330 l 1,101,-1
315 330 m 1,103,-1
 302 342 l 1,104,-1
 315 330 l 1,103,-1
315 342 m 1,105,-1
 327 330 l 1,106,-1
 315 342 l 1,105,-1
131 318 m 1,107,-1
 119 330 l 1,108,-1
 131 318 l 1,107,-1
278 330 m 1,109,-1
 290 318 l 1,110,-1
 278 330 l 1,109,-1
290 330 m 1,111,-1
 302 318 l 1,112,-1
 290 330 l 1,111,-1
254 318 m 1,113,-1
 266 306 l 1,114,-1
 254 318 l 1,113,-1
266 318 m 1,115,-1
 278 306 l 1,116,-1
 266 318 l 1,115,-1
229 306 m 1,117,-1
 242 294 l 1,118,-1
 229 306 l 1,117,-1
242 306 m 1,119,-1
 254 294 l 1,120,-1
 242 306 l 1,119,-1
216 294 m 1,121,-1
 229 281 l 1,122,-1
 216 294 l 1,121,-1
191 268 m 1,123,124
 188 273 188 273 186 273 c 0,125,126
 185 273 185 273 180 268 c 0,127,128
 179 264 179 264 180 263 c 0,129,130
 181 258 181 258 191 268 c 1,123,124
192 280 m 1,131,-1
 204 268 l 1,132,-1
 192 280 l 1,131,-1
204 256 m 1,133,-1
 192 268 l 1,134,-1
 204 256 l 1,133,-1
229 244 m 1,135,-1
 216 256 l 1,136,-1
 229 244 l 1,135,-1
242 244 m 1,137,-1
 254 232 l 1,138,-1
 242 244 l 1,137,-1
266 232 m 1,139,-1
 278 220 l 1,140,-1
 266 232 l 1,139,-1
278 220 m 1,141,-1
 290 208 l 1,142,-1
 278 220 l 1,141,-1
302 208 m 1,143,-1
 315 195 l 1,144,-1
 302 208 l 1,143,-1
339 183 m 1,145,-1
 327 195 l 1,146,-1
 339 183 l 1,145,-1
351 171 m 1,147,-1
 339 183 l 1,148,-1
 351 171 l 1,147,-1
387 159 m 1,149,-1
 375 171 l 1,150,-1
 387 159 l 1,149,-1
387 159 m 1,151,-1
 400 147 l 1,152,-1
 387 159 l 1,151,-1
400 147 m 1,153,-1
 412 135 l 1,154,-1
 400 147 l 1,153,-1
375 86 m 1,155,-1
 387 74 l 1,156,-1
 375 86 l 1,155,-1
387 74 m 1,157,-1
 400 62 l 1,158,-1
 387 74 l 1,157,-1
58 13 m 1,159,-1
 46 25 l 1,160,-1
 58 13 l 1,159,-1
107 1 m 1,161,-1
 95 13 l 1,162,-1
 107 1 l 1,161,-1
EndSplineSet
EndChar

StartChar: S
Encoding: 83 83 54
Width: 448
GlyphClass: 2
Flags: W
LayerCount: 2
Fore
SplineSet
168 610 m 1,0,-1
 155 623 l 1,1,-1
 168 610 l 1,0,-1
169 603 m 1,2,3
 196 617 196 617 251 617 c 0,4,5
 275 617 275 617 339 600 c 0,6,7
 346 598 346 598 352.5 595 c 128,-1,8
 359 592 359 592 365 587 c 128,-1,9
 371 582 371 582 369 577 c 0,10,11
 366 572 366 572 346 564 c 0,12,13
 328 553 328 553 290 547 c 128,-1,14
 252 541 252 541 222 537.5 c 128,-1,15
 192 534 192 534 168.5 514.5 c 128,-1,16
 145 495 145 495 145 458 c 0,17,18
 145 433 145 433 166 415.5 c 128,-1,19
 187 398 187 398 222 383.5 c 128,-1,20
 257 369 257 369 266 363 c 0,21,22
 297 346 297 346 324 320 c 0,23,24
 382 260 382 260 398 196 c 0,25,26
 414 134 414 134 387 90.5 c 128,-1,27
 360 47 360 47 307 27 c 1,28,29
 278 11 278 11 206 11 c 0,30,31
 189 11 189 11 155.5 13 c 128,-1,32
 122 15 122 15 105 15 c 0,33,34
 94 15 94 15 83 17.5 c 128,-1,35
 72 20 72 20 64 25.5 c 128,-1,36
 56 31 56 31 55.5 38.5 c 128,-1,37
 55 46 55 46 64 56 c 0,38,39
 86 88 86 88 153 88 c 0,40,41
 161 88 161 88 195.5 87 c 128,-1,42
 230 86 230 86 242.5 87 c 128,-1,43
 255 88 255 88 275.5 93.5 c 128,-1,44
 296 99 296 99 308 110 c 0,45,46
 327 127 327 127 334 164 c 1,47,48
 337 207 337 207 316.5 234 c 128,-1,49
 296 261 296 261 258 287 c 0,50,51
 242 298 242 298 193 323 c 128,-1,52
 144 348 144 348 115.5 372 c 128,-1,53
 87 396 87 396 73 430 c 0,54,55
 59 463 59 463 76 514 c 0,56,57
 76 526 76 526 84.5 542.5 c 128,-1,58
 93 559 93 559 102 568 c 1,59,60
 112 572 112 572 120 580 c 2,61,-1
 128 588 l 2,62,63
 150 610 150 610 168 610 c 1,64,-1
 169 603 l 1,2,3
142 589 m 1,65,-1
 129 603 l 1,66,-1
 142 589 l 1,65,-1
129 576 m 1,67,-1
 115 589 l 1,68,-1
 129 576 l 1,67,-1
115 562 m 1,69,-1
 102 576 l 1,70,-1
 115 562 l 1,69,-1
102 549 m 1,71,-1
 88 562 l 1,72,-1
 102 549 l 1,71,-1
371 549 m 1,73,-1
 358 562 l 1,74,-1
 371 549 l 1,73,-1
196 549 m 1,75,-1
 210 535 l 1,76,-1
 196 549 l 1,75,-1
88 522 m 1,77,-1
 75 535 l 1,78,-1
 88 522 l 1,77,-1
183 522 m 1,79,-1
 169 535 l 1,80,-1
 183 522 l 1,79,-1
169 508 m 1,81,-1
 156 522 l 1,82,-1
 169 508 l 1,81,-1
75 495 m 1,83,-1
 61 508 l 1,84,-1
 75 495 l 1,83,-1
156 481 m 1,85,-1
 142 495 l 1,86,-1
 156 481 l 1,85,-1
129 468 m 1,87,-1
 142 454 l 1,88,-1
 129 468 l 1,87,-1
142 427 m 1,89,-1
 156 414 l 1,90,-1
 142 427 l 1,89,-1
75 400 m 1,91,-1
 61 414 l 1,92,-1
 75 400 l 1,91,-1
169 414 m 1,93,-1
 183 400 l 1,94,-1
 169 414 l 1,93,-1
223 387 m 1,95,-1
 210 400 l 1,96,-1
 223 387 l 1,95,-1
88 374 m 1,97,-1
 75 387 l 1,98,-1
 88 374 l 1,97,-1
237 374 m 1,99,-1
 223 387 l 1,100,-1
 237 374 l 1,99,-1
102 360 m 1,101,-1
 88 374 l 1,102,-1
 102 360 l 1,101,-1
115 360 m 1,103,-1
 102 374 l 1,104,-1
 115 360 l 1,103,-1
263 360 m 1,105,-1
 250 374 l 1,106,-1
 263 360 l 1,105,-1
129 347 m 1,107,-1
 115 360 l 1,108,-1
 129 347 l 1,107,-1
142 347 m 1,109,-1
 129 360 l 1,110,-1
 142 347 l 1,109,-1
290 347 m 1,111,-1
 277 360 l 1,112,-1
 290 347 l 1,111,-1
156 333 m 1,113,-1
 142 347 l 1,114,-1
 156 333 l 1,113,-1
169 333 m 1,115,-1
 156 347 l 1,116,-1
 169 333 l 1,115,-1
317 333 m 1,117,-1
 304 347 l 1,118,-1
 317 333 l 1,117,-1
331 320 m 1,119,-1
 317 333 l 1,120,-1
 331 320 l 1,119,-1
210 306 m 1,121,-1
 196 320 l 1,122,-1
 210 306 l 1,121,-1
223 306 m 1,123,-1
 210 320 l 1,124,-1
 223 306 l 1,123,-1
344 306 m 1,125,-1
 331 320 l 1,126,-1
 344 306 l 1,125,-1
237 293 m 1,127,-1
 223 306 l 1,128,-1
 237 293 l 1,127,-1
237 306 m 1,129,-1
 250 293 l 1,130,-1
 237 306 l 1,129,-1
358 293 m 1,131,-1
 344 306 l 1,132,-1
 358 293 l 1,131,-1
263 279 m 1,133,-1
 250 293 l 1,134,-1
 263 279 l 1,133,-1
371 266 m 1,135,-1
 358 279 l 1,136,-1
 371 266 l 1,135,-1
385 252 m 1,137,-1
 371 266 l 1,138,-1
 385 252 l 1,137,-1
317 225 m 1,139,-1
 304 239 l 1,140,-1
 317 225 l 1,139,-1
398 225 m 1,141,-1
 385 239 l 1,142,-1
 398 225 l 1,141,-1
331 198 m 1,143,-1
 317 212 l 1,144,-1
 331 198 l 1,143,-1
331 118 m 1,145,-1
 317 131 l 1,146,-1
 331 118 l 1,145,-1
317 104 m 1,147,-1
 304 118 l 1,148,-1
 317 104 l 1,147,-1
398 104 m 1,149,-1
 385 118 l 1,150,-1
 398 104 l 1,149,-1
304 91 m 1,151,-1
 290 104 l 1,152,-1
 304 91 l 1,151,-1
398 91 m 1,153,-1
 385 104 l 1,154,-1
 398 91 l 1,153,-1
277 77 m 1,155,-1
 263 91 l 1,156,-1
 277 77 l 1,155,-1
61 64 m 1,157,-1
 48 77 l 1,158,-1
 61 64 l 1,157,-1
385 64 m 1,159,-1
 371 77 l 1,160,-1
 385 64 l 1,159,-1
48 50 m 1,161,-1
 34 64 l 1,162,-1
 48 50 l 1,161,-1
371 50 m 1,163,-1
 358 64 l 1,164,-1
 371 50 l 1,163,-1
358 37 m 1,165,-1
 344 50 l 1,166,-1
 358 37 l 1,165,-1
48 23 m 1,167,-1
 34 37 l 1,168,-1
 48 23 l 1,167,-1
331 23 m 1,169,-1
 317 37 l 1,170,-1
 331 23 l 1,169,-1
317 10 m 1,171,-1
 304 23 l 1,172,-1
 317 10 l 1,171,-1
EndSplineSet
EndChar

